<?xml version="1.0" encoding="UTF-8"?>
<svg id="Layer_18" data-name="Layer 18" xmlns="http://www.w3.org/2000/svg" version="1.1" viewBox="0 0 1330.8728014 1212.4197824">
  <defs>
    <style>
      .cls-1 {
        fill: #ffefc5;
      }

      .cls-1, .cls-2, .cls-3, .cls-4, .cls-5, .cls-6 {
        stroke-width: 0px;
      }

      .cls-2 {
        fill: #eb0000;
      }

      .cls-3 {
        fill: #0035a2;
      }

      .cls-4 {
        fill: #000;
      }

      .cls-5 {
        fill: #e00;
      }

      .cls-6 {
        fill: #fff;
      }
    </style>
  </defs>
  <path class="cls-4" d="M1032.2626116,268.1766857l.0154296-18.0486591h-89.4457024v7.4683152h-90.5718643c-11.6273795.0039563-23.3321048,3.7707534-31.8454774,11.1231489-3.322695-2.8550668-7.2481467-5.2389378-11.7201548-7.0740695-9.369319-3.8443407-18.3404361-4.0374083-20.04441-4.0374083h-63.7451704c-11.4341141,0-22.9398372,3.6548337-31.3982173,10.8024904-7.9474234-6.8655722-18.5056118-10.4315869-28.7334487-10.4315869l-21.4477172-.0233422v-14.0749473h316.7998604V0h-89.7740756v41.1693l-19.1362389.0057366c-11.7569562.059938-23.5890744,3.9545237-32.1160963,11.4855463-9.0987012-7.6750321-21.2922344-11.2952481-31.2832866-11.2952481-6.6956488,0-190.5120665-.1072158-190.5120665-.1072158-11.5656612.0348155-23.2066899,3.8124924-31.6795105,11.1484692-12.1924502-10.4375214-28.2185873-11.2479702-31.5393309-11.2479702h-191.6856218c-26.6751823,0-44.6069326,20.6073987-44.6069326,39.8528398v213.976507h116.1179197v52.4867034h12.6714484v73.4525433c0,8.1404912,2.2186903,15.0737163,5.9508696,20.7531886h-1.5734221c-22.1410549,0-44.5556934,13.7234297-44.5556934,39.95333v122.9486764c0,8.4534349,2.3896076,15.5894205,6.3633194,21.381054h-60.6331291c-20.9636639,0-38.0194885,17.0556268-38.0194885,38.0194885v90.9949933c0,20.9638617,17.0558246,38.0194885,38.0194885,38.0194885h675.9523396c14.1174772,0,25.6020342-11.4843594,25.6020342-25.6020348v-115.833857c0-14.1154994-11.4845569-25.5980785-25.6020342-25.5980785h-80.7863421c3.9784593-5.7916335,6.3720232-12.9276191,6.3720232-21.381054v-122.8347349c0-22.9439919-17.2085375-36.3060132-36.3833492-39.2732413v-53.9608223l45.5437754-.0077148v32.3497092c0,10.4009255,3.699342,19.5904308,10.6962634,26.5796375,12.3577132,12.3440643,30.2770007,12.9873593,33.8218491,12.9873593h63.6486224c22.1343337,0,44.5412568-13.5920804,44.5412568-39.5669969v-152.6789167h-63.2777189Z"/>
  <path class="cls-6" d="M852.1729578,227.2307575h89.5847872V21.804185h-51.319909v41.1626827l-38.2648783.0115907s-25.5074639.1313617-25.5074639,20.7318398v123.1228191c0,20.2237792,25.5074639,20.3976403,25.5074639,20.3976403ZM877.9468878,104.1930579h12.4445853v82.8256987h-12.4445853v-82.8256987ZM432.9322259,257.2854114V62.9630041h-89.6736495c-15.3654504,0-25.3682543,10.9996071-25.3682543,20.6276439l-.0115907,123.5437077c0,20.2432179,25.4802981,20.3687842,25.4802981,20.3687842h38.2571511v10.377571h-63.7374492v40.8939225l89.7528529-.0211289c25.2542788,0,25.3006417-21.4680929,25.3006417-21.4680929ZM381.6007262,186.6033012h-12.4251467v-82.4236451h12.4251467v82.4236451ZM750.6959561,104.2935109h12.3597073v122.9372466h50.9334304V83.9075821h-.0191972v-.0156958c0-15.717036-17.3821175-20.7220601-25.2947256-20.7220601-17.0770156,0-29.653204,3.5601666-37.979215,10.3524577v-10.3353131h-50.9217189v164.0437867h50.9217189v-122.9372466ZM1077.1724173,330.9678316v-40.9867691h-63.2932585l.0154543-18.0488262h-50.9761712v18.0488262h-12.6492342v40.9867691h12.6492342v92.464964c0,20.3708367,25.3258757,20.3399281,25.3258757,20.3399281h63.6098304s25.3182693.0811351,25.3182693-20.3399281v-82.3966h-50.6439035v61.75157h-12.649355v-71.819934h63.2932585ZM942.5150063,320.5979878l.1893153-41.1974549h-89.5770601s-25.4804188.0097797-25.4804188,20.7532102v143.7618123h51.2737875v-72.0460741l63.7836914-.0134018v-41.1954023h-63.7836914v-10.0492876l63.5943761-.0134018ZM814.8622625,423.4812111v-30.8274903h-51.0185499v10.3735867h-12.3979809v-20.755142h63.4050608v-82.1859143c0-20.7165062-25.34133-20.6759386-25.34133-20.6759386h-63.7450556s-25.3528,0-25.3528,20.7434305v123.327468c0,20.3398073,25.3838294,20.409231,25.3838294,20.409231l63.7140263.0251133s25.3528-.0945369,25.3528-20.4343443ZM751.4457318,320.5979878h12.3979809v20.4382078h-12.3979809v-20.4382078ZM446.6672464,423.5043926c0,20.2643468,25.3488157,20.4111628,25.3488157,20.4111628h63.6332534s25.3373457-.111923,25.3373457-20.4188899h-.0154543v-82.3194492h-50.6552528v61.8887271h-12.66493v-72.2411848h63.3201828v-40.843696h-64.0060886l.040809-18.7441495h-51.0455949l.0268036,18.7441495h-11.9904941v40.843696h12.6706046v92.6796341ZM496.9420574,165.850091h12.3170872v92.2853077c0,20.3689049,25.6502955,20.3882228,25.6502955,20.3882228h39.0628279v165.391934h50.9857094v-123.0548443h12.3168458v123.0548443h50.9434516v-143.4526053c0-20.6798022-22.6077277-20.6798022-22.6077277-20.6798022l-40.6525696-.0464837v-42.027762l-64.7363049.0211289v-82.2537684c.0695444-8.8552005-6.3633133-12.1121969-6.3633133-12.1121969,0,0,6.3517225-2.4844015,6.3633133-8.2797688v-51.1767151c0-20.7377559-25.3122324-20.944578-25.3122324-20.944578h-88.9260472v196.9652156h50.9586644v-94.0781287ZM496.9343303,104.262723l12.3306098.0482947v20.4074199h-12.3306098v-20.4557147ZM598.2103051,227.1108659h88.9646829V83.7839476c0-20.7224223-25.3508682-20.7224223-25.3508682-20.7224223h-63.6023447s-25.3276868.0771508-25.3276868,20.7224223v30.4061188h50.952869v-10.0392664h12.3655027l-.0077272,20.3976403h-37.9944278s-25.3162168.0211289-25.3162168,20.3842385v61.7862215c0,20.3379963,25.3162168,20.3919656,25.3162168,20.3919656ZM623.8509417,165.6299878h12.3537912v20.6814925h-12.3537912v-20.6814925ZM495.4178758,463.4845789h-63.5983604s-25.3297393-.0424994-25.3297393,20.7262859v30.3967013h50.9434516v-10.0376968h12.3710566v20.3996928h-37.9886324s-25.3258757-.0386358-25.3258757,20.3919656v61.7980537c0,20.3185576,25.3258757,20.3649206,25.3258757,20.3649206h88.9452443v-143.3136372c0-20.7687852-25.3430203-20.7262859-25.3430203-20.7262859ZM469.8042843,586.7444343h-12.3710566v-20.6857183h12.3710566v20.6857183ZM597.0011258,586.5820432h-12.3211923v-123.277h-50.9044536v143.537604c0,20.5504931,25.2909828,20.6818547,25.2909828,20.6818547h63.5424593s25.2754077-.1313617,25.2754077-20.4731008c0-.8616987.0039843-143.5339819.0039843-143.5339819h-50.8871882v123.064624ZM724.5203347,473.7271661l.0115907-18.6265519h-50.9741187v18.6341583h-12.6610664v40.9887009h12.6610664v92.4630323h.0038636c0,19.9439113,25.3122324,20.3379963,25.3122324,20.3379963h63.6098304s25.3065578-.1043166,25.3065578-20.3379963v-82.4100018h-50.6204806v61.75157h-12.6494757v-71.8046005h63.2699563v-40.9963073h-63.2699563ZM889.9084051,463.6450381h-63.7297221s-25.3758607.0348929-25.3758607,20.6798022v122.8347411c0,20.3649206,25.3758607,20.3649206,25.3758607,20.3649206h63.7297221s25.3952994-.0463629,25.3952994-20.3649206v-122.8347411c0-20.8325343-25.3952994-20.6798022-25.3952994-20.6798022ZM864.2581096,586.7868129h-12.3826473v-82.097052h12.3826473v82.097052Z"/>
  <path class="cls-2" d="M693.5711108,739.6513052h-59.1783961c-.2338278,0-.4405447-.2047387-.4405447-.4385563v-85.0720105c0-3.5139893-2.8590129-6.3730124-6.3747926-6.3730124h-27.8680072c-3.5139892,0-6.3710341,2.8590231-6.3710341,6.3730124v115.833857c0,3.5139893,2.8570449,6.3730124,6.3710341,6.3730124h93.8617405c3.5159556,0,6.3749787-2.8590231,6.3749787-6.3730124v-23.9502779c0-3.5139893-2.8590231-6.3730124-6.3749787-6.3730124ZM424.0113012,647.767726h-91.0183355c-10.361956,0-18.7924443,8.4302905-18.7924443,18.7924443v90.9949933c0,10.3621538,8.4304883,18.7924443,18.7924443,18.7924443h91.0183355c10.3619508,0,18.7924389-8.4302905,18.7924389-18.7924443v-90.9949933c0-10.3621538-8.4304881-18.7924443-18.7924389-18.7924443ZM402.1859542,735.6950011c0,2.175176-1.780139,3.9563041-3.9563041,3.9563041h-39.4550335c-2.176165,0-3.9563041-1.7811281-3.9563041-3.9563041v-48.8124838c0-2.175176,1.780139-3.9563041,3.9563041-3.9563041h39.4550335c2.176165,0,3.9563041,1.7811281,3.9563041,3.9563041v48.8124838ZM573.4525678,647.767726h-25.8280913c-3.5158665,0-6.3749094,2.857045-6.3749094,6.3710342v51.0610492l-53.9356271-54.1461751c-1.8679689-1.8737056-5.2697969-3.2859083-7.9126079-3.2859083h-16.864531c-3.5137972,0-6.3710399,2.857045-6.3710399,6.3710342v115.833857c0,3.5159674,2.8572427,6.3749905,6.3710399,6.3749905h25.8204163c3.5137914,0,6.3710341-2.8590231,6.3710341-6.3749905v-51.2926908l53.925875,54.3740582c1.8603135,1.8776619,5.2621811,3.2936231,7.9106695,3.2936231h16.8877719c3.5157695,0,6.3748014-2.8590231,6.3748014-6.3749905v-115.833857c0-3.5139893-2.8590319-6.3710342-6.3748014-6.3710342ZM1008.9453053,682.9262132c3.5159673,0,6.3749904-2.8590231,6.3749904-6.3747927v-22.4126603c0-3.5139893-2.8590231-6.3710342-6.3749904-6.3710342h-98.295163c-3.5139892,0-6.3730122,2.857045-6.3730122,6.3710342v115.833857c0,3.5159674,2.8590231,6.3749905,6.3730122,6.3749905h98.295163c3.5159673,0,6.3749904-2.8590231,6.3749904-6.3749905v-23.9463216c0-3.5159674-2.8590231-6.3749905-6.3749904-6.3749905h-64.0503851v-10.8681651h34.4940251c3.5139892,0,6.3730233-2.8572428,6.3730233-6.3710342v-22.4049455c0-3.5157696-2.8590341-6.3749905-6.3730233-6.3749905h-34.4940251v-10.7059566h64.0503851ZM884.5438857,647.767726h-25.831904c-3.5157695,0-6.3747926,2.857045-6.3747926,6.3710342v51.0610492l-53.9337202-54.1422188c-1.8640126-1.8758816-5.2660322-3.2898646-7.9143882-3.2898646h-16.8607784c-3.5157695,0-6.3747926,2.857045-6.3747926,6.3710342v115.833857c0,3.5159674,2.8590231,6.3749905,6.3747926,6.3749905h25.8164658c3.5157695,0,6.3749904-2.8590231,6.3749904-6.3749905v-51.2926908l53.9258076,54.3778167c1.8642104,1.8758816,5.2660464,3.2898646,7.9106298,3.2898646h16.8876898c3.5139806,0,6.3710255-2.8590231,6.3710255-6.3749905v-115.833857c0-3.5139893-2.8570449-6.3710342-6.3710255-6.3710342ZM747.4100738,647.767726h-27.8717614c-3.5159797,0-6.3750027,2.8590231-6.3750027,6.3730124v115.833857c0,3.5139893,2.8590231,6.3730124,6.3750027,6.3730124h27.8717614c3.5159673,0,6.3749904-2.8590231,6.3749904-6.3730124v-115.833857c0-3.5139893-2.8590231-6.3730124-6.3749904-6.3730124Z"/>
  <g>
    <path class="cls-4" d="M1046.9681587,650.5396499c1.8208736,0,2.7322678.7643886,2.7322678,2.2926871,0,1.2717473-.7036499,1.9988019-2.109035,2.1821212l2.2928456,3.5395451h-1.3393282l-2.1827507-3.4476462h-1.3201812v3.4476462h-1.2474229v-8.0143534h3.1736047ZM1046.472253,654.0973833c.7582187,0,1.278058-.1005145,1.5595179-.3025007.2805026-.2015076.4212326-.5408636.4212326-1.0175893,0-.8189536-.5619626-1.2286697-1.6868451-1.2286697h-1.7241816v2.5487597h1.4302761Z"/>
    <path class="cls-4" d="M1046.472253,661.464615c-3.8178991,0-6.9235321-3.105897-6.9235321-6.9235321s3.105633-6.9235321,6.9235321-6.9235321,6.9235321,3.105897,6.9235321,6.9235321-3.105633,6.9235321-6.9235321,6.9235321ZM1046.472253,648.7002352c-3.2205147,0-5.8417302,2.6200771-5.8417302,5.8408477s2.6212156,5.8408477,5.8417302,5.8408477,5.8417302-2.6200771,5.8417302-5.8408477-2.6212156-5.8408477-5.8417302-5.8408477Z"/>
  </g>
  <g>
    <path class="cls-5" d="M136.2937078,1094.3805373c16.9790417-7.5945522,25.5712243-23.612197,25.5712243-47.7268327,0-11.4739576-2.2827137-21.9696094-6.8094919-31.2453983-4.6620502-8.9907517-11.415984-16.0828653-20.0299067-21.0516928-5.6596806-3.4373562-11.848371-5.7442255-18.3897346-6.8553877-6.9085303-1.1860449-16.3220067-1.7875218-27.9795477-1.7875218H0v40.1250338l1.915547.4444649c3.5122388.8116315,6.0220161,2.2488957,7.4447868,4.2610655.9613969,1.3817061,2.1087926,4.3335326,2.1087926,10.5343009v111.6742181c0,6.1089766-1.0821754,9.0487253-1.9348716,10.3579643-1.449342,2.0435722-4.0267552,3.5412257-7.6597726,4.44948l-1.8744823.466205v40.0912158h95.1879526c13.1721034,0,23.4141203-.7125932,30.4506758-2.1208705,7.5148384-1.5459648,13.9330079-4.1451182,19.1288991-7.7612265,4.7055304-3.4687586,8.6791431-7.8940829,11.8073063-13.1455321,2.9735667-4.9543341,5.3722277-10.9087143,7.1428406-17.7713487,1.516978-6.7297781,2.2875448-14.0417086,2.2875448-21.7328836,0-26.6896333-9.9859665-43.876414-29.7115114-51.2052535ZM66.2784105,1071.9012426v-39.1829615h19.1917039c8.0414326,0,13.8677875,1.5580427,17.2592479,4.5799208,3.292422,3.1136698,4.9615808,8.191198,4.9615808,15.0924815,0,7.0824513-1.6498343,12.1430705-4.8552958,14.9934432-3.5581347,2.9977224-9.398983,4.517116-17.3655329,4.517116h-19.1917039ZM108.5533016,1123.517143c1.6474188,3.5919526,2.483206,8.3361322,2.483206,14.1020978,0,8.4110148-1.7392104,14.4161219-5.1693199,17.8462314-3.6523419,3.6523419-9.7733963,5.5509799-18.1650866,5.6476027h-21.4236906v-47.1470958h21.4236906c5.2611115,0,9.8603569.8430339,13.6020748,2.4735437,3.3262399,1.5701205,5.7055764,3.9011456,7.2491257,7.0776202Z"/>
    <path class="cls-5" d="M444.8296366,1025.8508156l1.9300405.4348026c3.6306018.8164627,6.2007683,2.2150777,7.5293318,3.9953528.915501,1.466251,2.0097543,4.5871675,2.0097543,11.1164533v95.2676664c0,17.6578169-6.7056224,25.8804173-21.1000042,25.8804173-6.6790511,0-11.9788118-2.1933376-16.1335922-6.6283242-1.7537038-2.0314944-2.9687356-4.3697662-3.623355-6.9882441-.7898914-2.9614889-1.190876-7.1935675-1.190876-12.5827043v-95.2676664c0-6.4423253,1.1304868-9.3506716,2.1450262-10.7565333,1.224694-1.8720668,3.6595886-3.2320327,7.2370478-4.0364175l1.9300405-.4348026v-40.1371116h-77.5905249v40.1467739l1.9421183.4275559c3.6620042.8043848,6.1355479,2.2005843,7.3529952,4.1547805,1.3358102,2.1353639,2.0121698,5.7128231,2.0121698,10.6357548v106.0966669c0,20.1096205,6.6186619,35.9122796,19.6458311,46.9514347,12.8339236,11.1865048,30.9603611,16.8582632,53.8817051,16.8582632,14.4137064,0,27.3587462-2.5943222,38.4727839-7.7129151,11.0343239-5.0751126,19.4936501-12.4836659,25.1412529-22.0034274,3.3262399-5.5364865,5.5751356-11.556087,6.6862978-17.8848805,1.0821754-6.0679119,1.6305098-15.2712337,1.6305098-27.3587462v-94.9463956c0-4.8045688.7270866-8.3747813,2.1715975-10.6357548,1.224694-1.9566117,3.6499263-3.3552268,7.2104765-4.157196l1.9300405-.4348026v-40.1371116h-71.2206668v40.1371116Z"/>
    <path class="cls-5" d="M631.7247054,1025.8387377l1.9179626.4444649c3.5315634.8140471,6.0510029,2.2126621,7.432709,4.0774822.8937609,1.3164857,1.9614429,4.241741,1.9614429,10.7178842v48.5577887l-51.5917447-103.9226538h-61.0390391v40.1250338l1.915547.4444649c3.5146544.8116315,6.0244317,2.2513113,7.4447868,4.2610655.9613969,1.3817061,2.1087926,4.3335326,2.1087926,10.5343009v111.6742181c0,6.1089766-1.0797598,9.0487253-1.932456,10.3579643-1.4517576,2.0435722-4.0315864,3.5412257-7.6621881,4.44948l-1.8744823.466205v40.0912158h73.4502379v-40.0791379l-1.8624045-.4758673c-3.8310941-.9783059-6.3915983-2.4034922-7.4616958-4.2151697-.915501-1.4010306-2.0290788-4.3842596-2.1474418-10.5946902v-50.5892831l52.3840517,105.9541482h49.5747437v-167.0390831c0-4.8093999.724671-8.3796124,2.0918836-10.5173919,1.4348486-2.0266633,3.9446259-3.466343,7.4592803-4.2779745l1.9179626-.4444649v-40.1250338h-74.0879484v40.1250338Z"/>
    <path class="cls-5" d="M718.9581858,1079.0779012h45.5721442v-24.9359294c0-8.0100302,1.3841216-13.8846965,4.1185469-17.4645713,2.1329483-2.8189702,5.6669273-4.5557651,10.5294698-5.174151v121.2495376c0,6.140379-1.016955,9.1018679-1.8165087,10.4183535-1.3382258,2.0049231-3.8963145,3.4808364-7.60663,4.3842596l-1.8889758.4613739v40.1008781h77.5905249v-40.0791379l-1.8599889-.4758673c-3.8310941-.9783059-6.3891827-2.4034922-7.4592803-4.2151697-.915501-1.4010306-2.03391-4.3866752-2.1498573-10.5946902v-121.2543688c4.9615808.6135548,8.5511179,2.3527652,10.6888974,5.1789821,2.6257246,3.4711741,3.9591193,9.3458404,3.9591193,17.4645713v24.9359294h45.7315718v-93.3641972h-175.4090333v93.3641972Z"/>
    <path class="cls-5" d="M907.7977885,1025.8387377l1.9179626.4444649c3.5122388.8116315,6.0196005,2.2488957,7.4423713,4.2610655.9638124,1.3841216,2.1112082,4.3359482,2.1112082,10.5343009v111.6742181c0,6.1089766-1.0821754,9.0487253-1.9348716,10.3579643-1.449342,2.0435722-4.0291708,3.5412257-7.6621881,4.44948l-1.8744823.466205v40.0912158h77.7499526v-40.0791379l-1.8599889-.4758673c-3.8286785-.9783059-6.3891827-2.4034922-7.4616958-4.2151697-.915501-1.4010306-2.0290788-4.3842596-2.1474418-10.5946902v-111.6742181c0-4.8045688.7270866-8.3747813,2.0942992-10.5198075,1.432433-2.0266633,3.9422103-3.4639274,7.4568647-4.275559l1.9179626-.4444649v-40.1250338h-77.7499526v40.1250338Z"/>
    <path class="cls-5" d="M1000.9325066,1025.8387377l1.915547.4444649c3.5146544.8116315,6.0244317,2.2513113,7.4447868,4.2610655.9613969,1.3817061,2.1087926,4.3335326,2.1087926,10.5343009v111.6742181c0,6.1089766-1.0797598,9.0487253-1.932456,10.3579643-1.4517576,2.0435722-4.0315864,3.5412257-7.6621881,4.44948l-1.8744823.466205v40.0912158h158.9976505v-77.5905249h-51.9444179v2.4735437c0,2.8358792-.0531425,5.674174-.1594276,8.5366245-.241557,9.3699961-2.2005843,13.3870891-3.7972761,15.1093905-2.3624275,2.5411797-7.0075687,3.8286785-13.8001516,3.8286785h-23.0179668v-46.5093854h60.6984437v-42.0647365h-60.6984437v-38.545251h22.8561236c6.881959,0,11.6261386,1.3865372,14.0948511,4.1209625,2.5363485,2.8093079,3.8238474,8.2564184,3.8238474,16.1867348v4.0678199h51.9444179v-72.0178049h-158.9976505v40.1250338Z"/>
    <path class="cls-5" d="M1319.1572867,1100.6779284c-7.7829666-9.4255543-21.747377-17.9815033-41.4970775-25.4311213l-21.0082125-7.9568877c-9.2298931-3.5895371-15.6698028-7.0196465-19.1385613-10.1937055-3.3189932-3.0412027-4.932594-6.5631038-4.932594-10.7613645,0-4.9132694,1.8527422-8.8844666,5.6645117-12.1382394,3.9277169-3.3528112,8.7685192-4.983321,14.8001976-4.983321,6.7442715,0,11.9280848,1.7657817,15.7760879,5.3311631,3.6934066,3.690991,5.4881751,8.7467791,5.4881751,15.4548171v12.0319543h53.3768509v-55.1933596l-.8212938-.7367489c-8.6042604-7.7322397-19.5081436-13.8508786-32.3952097-18.1844112-12.6261845-4.3142081-25.8127813-6.5027145-39.1950393-6.5027145-16.0997742,0-29.9965486,2.5363485-41.2941697,7.5365785-11.5705804,5.0654504-20.5758255,12.7348852-26.7621004,22.7909032-6.1645347,10.0149533-9.2902823,22.0275831-9.2902823,35.7093718,0,12.2783425,2.5242707,22.8295524,7.4858515,31.3251121,4.8866982,8.6598186,12.5609642,15.8437238,22.8754482,21.3898726,3.5967838,1.7971841,6.7949985,3.3165777,9.5004369,4.5074537,2.915593,1.2971611,10.3434709,4.3311171,22.7208517,9.2806201,9.3458404,3.6764976,16.9790417,7.0703735,22.5952421,10.0270312,4.5461028,2.6692049,7.8216158,5.4253703,9.6453711,8.0607572,1.6691589,2.7827367,2.5146084,6.3191312,2.5146084,10.5149763,0,6.1476257-1.8841446,10.9280388-5.7852902,14.6383544-3.9108079,3.8141851-8.9207001,5.6693429-15.3195451,5.6693429-9.4931902,0-15.8582172-3.415616-19.4308453-10.3724577-1.7440416-3.6885754-2.6305558-10.4062757-2.6305558-19.971933v-4.8601269h-54.809284v58.5437552l1.033864.74158c23.4696784,16.797874,48.876644,25.3151739,75.5179658,25.3151739,15.6021668,0,29.3177735-2.8721128,40.7410041-8.5269622,11.6623721-5.6113692,20.7594088-13.9861505,27.0423065-24.9021114,6.1355479-10.7347932,9.2468021-23.4769251,9.2468021-37.8664758,0-17.1771185-3.9373791-30.7260508-11.7155146-40.286877Z"/>
    <path class="cls-5" d="M315.4009788,997.7432427c-13.246986-10.8338316-32.803441-16.3292534-58.1210305-16.3292534-12.365303,0-23.404458,1.2609276-32.837259,3.7537958-9.5100992,2.6233091-18.0539704,6.8408943-25.4093811,12.5488863-6.3771049,5.0388791-10.8724807,10.8579873-13.3339466,17.2399233-2.7682433,6.6452332-4.2272476,15.3726877-4.3335326,25.9625467v111.9930733c0,9.83137,1.3454725,18.17958,3.9953528,24.8030731,2.6861139,6.831232,7.2660346,13.005429,13.6479707,18.3800724,13.3436088,10.831416,32.9507908,16.3244223,58.2707958,16.3244223,12.5971977,0,23.7523001-1.3164857,33.1561142-3.9132234,9.5245926-2.6257246,17.9162829-6.7974141,24.9504228-12.4039521,6.2466641-5.0219701,10.8386627-11.0367395,13.6503862-17.8969584,2.6547115-6.6379864,4.000184-15.1480397,4.000184-25.2934338v-111.9930733c0-10.2492636-1.3454725-18.8124594-4.0195085-25.4987572-2.8020612-6.6089996-7.381982-12.5537174-13.6165683-17.6771415ZM236.175113,1136.6650907v-80.2911322c0-5.1258396.2536349-8.9810894.7512423-11.4667109.3647511-1.8310021,1.2802521-3.9760283,2.6378025-6.2490797,1.8768979-2.7223474,4.4132464-4.9205162,7.5414096-6.5317014,2.9204242-1.5073157,6.3457025-2.2730514,10.174381-2.2730514,3.3359022,0,6.7853362.8309561,10.2589259,2.4735437,3.1523189,1.48316,5.5872135,3.5798748,7.3264239,6.365027,1.3623815,1.9083003,2.2344023,3.9736127,2.6015689,6.1669503.5024386,2.8165547.758489,6.9592573.758489,12.3097449v80.2911322c0,6.9109459-.3212708,9.9593952-.5821524,11.263803-.4637894,2.140195-1.4179396,4.3287015-2.8141391,6.4688965-4.0074307,5.9133154-9.7468251,8.7878438-17.5491163,8.7878438-7.7177462,0-13.5175299-2.8890218-17.6940505-8.7757659-1.2995767-1.9421183-2.190922-4.157196-2.6522959-6.5703505-.5024386-2.6981917-.758489-6.724947-.758489-11.9691495Z"/>
  </g>
  <g>
    <path class="cls-3" d="M147.0703585,951.0148365v-25.5064578l4.0757623-1.0218304c.4554312-.1132798.7328512-.2265597.887744-.305162.0439248-.2727963.1548928-.957099.1548928-2.1476932v-49.829257c0-1.206777-.1179035-1.8772087-.1965058-2.1893062-.13871-.0647313-.3768288-.1572047-.7582814-.2473662l-4.1636119-.957099v-25.587372h43.8392967c5.4466795,0,9.8923351.291291,13.209816.8646257,3.4446318.582582,6.7112523,1.8009182,9.6981411,3.6157074,4.4942041,2.5892534,8.0544275,6.3297998,10.5142183,11.0783056,2.3465109,4.8039898,3.5186104,10.1350776,3.5186104,15.9123493,0,9.2010969-2.5222102,16.2244468-7.5111467,20.9567697,6.2142082,4.8594738,9.3583016,12.6318577,9.3583016,23.1830653,0,3.7359228-.3791407,7.3146409-1.1258629,10.6344336-.9108624,3.5486643-2.1453814,6.6072198-3.6919979,9.1918496-1.6853265,2.8273722-3.8376434,5.2224316-6.396843,7.1088877-2.8759207,2.0043596-6.2881868,3.4030188-10.2136799,4.2098486-3.4931803.6981737-8.2139441,1.0357014-14.4466469,1.0357014h-46.7522067ZM190.481966,921.4857885c3.4769974-.041613,4.7115165-.901615,5.079098-1.2691965.5086033-.5086033,1.0518842-2.0737146,1.0518842-4.9357643,0-2.4343606-.3906998-3.7983423-.7166684-4.5150106-.2173123-.4392483-.5918293-.7929589-1.1813469-1.0750025-1.0056475-.430001-2.5060274-.6843027-4.2329669-.6843027h-5.2802275v12.4792767h5.2802275ZM189.4878776,881.6783293c3.5070513,0,4.704581-.7675287,4.9912483-1.0079594h-.0023118c-.0069355,0,.6450015-.7120447.6450015-3.4168898,0-1.7523697-.3259685-3.1071041-.8715612-3.6249548-.1063443-.0924733-1.1674759-.873873-4.7623768-.873873h-4.2861391v8.9236769h4.2861391Z"/>
    <path class="cls-3" d="M267.5839215,952.9336582c-12.3058892,0-21.9601054-2.7742001-28.6944761-8.2439979-3.4446318-2.8921036-5.9136698-6.230391-7.3770604-9.9524428-1.3755409-3.4446318-2.0783382-7.700717-2.0783382-12.6341695v-49.9702788c.0531722-5.3102813.8137654-9.7513133,2.2632849-13.2283107,1.3385515-3.4839329,3.7890949-6.6765748,7.2499095-9.4068501,3.7474819-2.9082864,8.0636749-5.0444205,12.84917-6.3621655,4.5982366-1.2160244,9.8992706-1.8286602,15.7875103-1.8286602,12.3105128,0,21.9485462,2.7765119,28.6413039,8.2509334,3.3313519,2.7395226,5.786519,5.9437237,7.3053935,9.5293773,1.4217775,3.5532879,2.1315104,7.922653,2.1315104,13.0456758v49.9702788c0,5.079098-.7027974,9.4137856-2.0898974,12.876912-1.5466165,3.7659766-4.0249019,7.0302854-7.381684,9.7258831-3.5995246,2.8712971-7.8602335,4.995872-12.6734707,6.3251762-4.5635591,1.262261-9.9247008,1.9026389-15.9331558,1.9026389ZM267.5839215,871.4762085c-1.0241422,0-1.8933916.180323-2.5823179.5363453-.7813997.402259-1.3524225.8923677-1.7986064,1.5373692-.2681727.4669903-.4600548.97097-.5086033,1.206777-.0924733.4623667-.2473662,1.6344662-.2473662,4.2722681v35.8241703c0,2.5961889.1433337,3.9116221.263549,4.5589355.0994088.5086033.2681727.9362925.5294098,1.3269924.9802174,1.3801645,2.3326399,2.0251661,4.3439349,2.0251661,2.0344134,0,3.3174809-.610324,4.2884509-2.0436607.2959147-.4554312.5201625-.9547872.6149477-1.3940355h0s.1618283-.8623139.1618283-4.1173753v-35.8241703c0-2.6724794-.1456455-4.0549558-.2681727-4.7438821-.0647313-.3837643-.1918822-.6750554-.430001-1.0079594-.485485-.762905-.9177979-1.1351102-1.6159715-1.4657024-.9732819-.457743-1.9003271-.6912382-2.7510817-.6912382Z"/>
    <path class="cls-3" d="M328.7665923,950.9593525v-25.5341998l4.1104398-.998712c.346775-.0855378.6010767-.1756993.7721524-.249678.0739787-.3768288.1641402-1.0726907.1641402-2.1962417v-28.5950673h-26.8681277v-50.2153332h86.8209031v50.2153332h-26.9397945v28.5950673c.0231183,1.1605404.1433337,1.844843.2311833,2.1939299.1756993.0716668.4461838.166452.8438192.2681727l4.0433966,1.0333895v25.4833395h-43.1781123Z"/>
    <path class="cls-3" d="M416.7942725,950.9593525v-25.5272643l4.1035043-1.0056475c.3513987-.0855378.6057003-.1756993.776776-.249678.0739787-.3768288.1641402-1.0703789.1641402-2.1962417v-28.5950673h-26.8681277v-50.2153332h86.8209031v50.2153332h-26.9397945v28.5950673c.0231183,1.1605404.1433337,1.8471549.2311833,2.1962417.1756993.069355.4461838.1641402.8415074.2658608l4.0457084,1.0333895v25.4833395h-43.1758005Z"/>
    <path class="cls-3" d="M521.0672059,952.8781742c-12.3035773,0-21.9577936-2.7718882-28.6921643-8.2370624-3.4469436-2.9013509-5.9136698-6.2396383-7.3770604-9.9593783-1.3778527-3.4446318-2.0806501-7.700717-2.0806501-12.6318577v-49.967967c.0531722-5.3125931.8137654-9.7536251,2.2632849-13.2283107,1.3385515-3.4816211,3.7890949-6.674263,7.2475977-9.4068501,3.7428583-2.9105982,8.061363-5.0467323,12.8537937-6.3667892,4.5982366-1.2160244,9.8992706-1.8286602,15.7851984-1.8286602,12.3105128,0,21.9462344,2.7765119,28.6413039,8.2532452,3.3313519,2.7395226,5.786519,5.9437237,7.3077054,9.5293773,1.4217775,3.5579116,2.1315104,7.9272767,2.1315104,13.0479877v49.967967c0,5.079098-.7027974,9.4114737-2.0898974,12.8746002-1.5466165,3.7659766-4.0249019,7.0302854-7.381684,9.7281949-3.6064601,2.8759207-7.8694809,5.0004956-12.6780943,6.327488-4.5612473,1.2576374-9.9223889,1.8980152-15.9308439,1.8980152ZM521.0672059,871.4207245c-1.0172067,0-1.8841442.180323-2.5707587.5363453-.7929589.4068827-1.3639817.8946795-1.8078537,1.5419929-.3930117.6750554-.4924205,1.1351102-.5039797,1.1859705-.097097.4808613-.2543017,1.6483372-.2543017,4.2907628v35.8241703c0,2.6008126.1433337,3.9093103.263549,4.5496881.0994088.5178507.2704845.9501635.5386572,1.3501107.97097,1.3662935,2.3257044,2.0112951,4.3346876,2.0112951,2.0367252,0,3.3174809-.610324,4.2907628-2.0436607.291291-.4531193.5224743-.9663464.6149477-1.3894119h0c-.0023118,0,.1618283-.8715612.1618283-4.1219989v-35.8264821c0-2.6493611-.1479573-4.0433966-.2704845-4.746194-.0647313-.3814525-.194194-.679679-.4392483-1.0241422-.471614-.7397867-.9039269-1.1143037-1.595165-1.4379604-.984841-.4669903-1.9095744-.7004855-2.7626409-.7004855Z"/>
    <path class="cls-3" d="M621.9926046,950.9593525v-7.3053935l-1.9003271,7.3053935h-18.8807433l-1.2229599-4.8872158v4.8872158h-39.4098239v-25.5087697l4.0780741-1.0172067c.4508075-.1132798.7282275-.2265597.8831204-.305162.0462367-.27742.1572047-.9594109.1572047-2.1476932v-49.8269452c0-1.2090889-.1179035-1.8818324-.1965058-2.1916181-.1363982-.0647313-.374517-.1548928-.7513459-.2427425l-4.1705474-.9640345v-25.5850602h46.2227969l6.91007,28.5580779,6.8615215-28.5580779h44.597578v25.6081785l-4.2006013.9478517c-.2889792.0647313-.5062915.1317745-.651937.1895703-.0786023.319033-.1965058,1.0033357-.1965058,2.2378547v49.8269452c.0231183,1.192906.1548928,1.8748969.2427425,2.2054891.1641402.069355.4253773.1641402.818389.2704845l3.9879126,1.0750025v25.4278555h-43.1781123Z"/>
    <path class="cls-3" d="M702.6266875,950.9593525v-25.5087697l4.0803859-1.0172067c.4508075-.1132798.7259157-.2265597.8808085-.305162.0439248-.2727963.1548928-.957099.1548928-2.1476932v-49.8269452c0-1.2090889-.1179035-1.8795205-.1965058-2.1916181-.1363982-.0647313-.3722052-.1572047-.749034-.2427425l-4.1705474-.9640345v-25.5850602h43.5526293c6.341359,0,11.5337368.6057003,15.4337997,1.80323,4.2861391,1.2715084,8.1052879,3.4931803,11.3279836,6.5979725,3.6642559,3.4353844,6.3297998,7.4810929,7.894911,11.9961035,1.470326,4.3115693,2.2147364,9.8738404,2.2147364,16.5434798v33.9076604c0,6.7551772-.7143565,12.3266957-2.1245749,16.5573508-1.4657024,4.4572148-4.1890421,8.5260416-8.0914169,12.086265-3.4769974,3.1255987-7.4024905,5.3172168-11.6863178,6.5286175-3.8538263,1.1836587-8.7710959,1.7685525-14.9691212,1.7685525h-43.5526293ZM743.5484504,921.145949c3.6665678-.0393012,5.1946896-.8114535,5.7749598-1.2668847.6149477-.5062915.7143565-2.0205424.7143565-2.8759207v-39.8768142c-.0439248-1.4934444-.3976353-2.7094687-.9478517-3.1602763-.1132798-.0924733-1.3269924-.9802174-5.5414646-.9802174h-2.7903829v48.1601133h2.7903829Z"/>
    <path class="cls-3" d="M821.3925045,952.8781742c-12.2989537,0-21.9531699-2.7718882-28.6944761-8.2370624-3.4469436-2.9013509-5.9136698-6.2396383-7.3770604-9.9593783-1.3755409-3.4446318-2.0783382-7.700717-2.0783382-12.6318577v-49.967967c.0531722-5.3102813.8137654-9.7513133,2.2609731-13.2306225,1.3408634-3.4839329,3.7914068-6.674263,7.2475977-9.4045382,3.7521056-2.9129101,8.0682985-5.0490441,12.8537937-6.3667892,4.5982366-1.2160244,9.8992706-1.8286602,15.7875103-1.8286602,12.308201,0,21.9439226,2.7765119,28.6389921,8.2532452,3.3313519,2.7395226,5.786519,5.9437237,7.3077054,9.5293773,1.4217775,3.5579116,2.1315104,7.9272767,2.1315104,13.0479877v49.967967c0,5.079098-.7027974,9.4114737-2.0898974,12.8746002-1.5419929,3.7613529-4.0202783,7.0279735-7.381684,9.7281949-3.6110838,2.8759207-7.8717927,5.0004956-12.6780943,6.327488-4.5589355,1.2576374-9.9177653,1.8980152-15.9285321,1.8980152ZM821.3925045,871.4207245c-1.0310777,0-1.8748969.1756993-2.5800061.5386572-.7837115.4045708-1.3570462.8946795-1.80323,1.5419929-.2658608.4623667-.4554312.9617227-.5016678,1.192906-.0947852.4693022-.2519898,1.6437135-.2519898,4.2815154v35.8241703c0,2.5938771.1433337,3.9116221.263549,4.5589355.097097.5086033.2681727.9386044.5363453,1.3408634.9732819,1.3662935,2.3280162,2.0112951,4.3369994,2.0112951,2.0344134,0,3.3151691-.610324,4.2884509-2.0436607.2959147-.457743.5201625-.957099.6195713-1.4032829.0023118-.0184947.1572047-.901615.1572047-4.1081279v-35.8264821c0-2.6747912-.1456455-4.0480203-.2681727-4.7276993-.0670432-.3999472-.1965058-.6981737-.4369365-1.0380132-.4739258-.7444104-.9085505-1.1189274-1.5997887-1.442584-.984841-.4669903-1.9095744-.7004855-2.7603291-.7004855Z"/>
    <path class="cls-3" d="M861.4403943,950.9593525v-25.5087697l4.0780741-1.0172067c.4508075-.1132798.7259157-.2265597.8831204-.305162.0485485-.2820437.1572047-.9663464.1572047-2.1476932v-49.8269452c0-1.2114007-.1179035-1.8818324-.1965058-2.1916181-.1363982-.0647313-.374517-.1548928-.7513459-.2427425l-4.1705474-.9594109v-25.5896838h43.2474673v25.5850602l-4.1705474.9640345c-.3768288.0878497-.6126358.1780112-.7467222.2427425-.069355.2843555-.1988177.97097-.1988177,2.1916181v48.9923733h3.6434494c2.6216191,0,3.7174281-.3860762,4.0480203-.540969.1179035-.2820437.3074738-1.012583.3074738-2.3233926v-22.0132776h30.5254481v54.6910426h-76.6557717Z"/>
    <path class="cls-3" d="M939.2335881,950.9593525v-25.5133933l4.0850096-1.012583c.4484957-.110968.7236039-.2265597.8784967-.305162.0439248-.27742.1548928-.9617227.1548928-2.1476932v-49.8269452c0-1.2090889-.1179035-1.8818324-.1965058-2.1916181-.1363982-.0647313-.374517-.1548928-.7513459-.2427425l-4.1705474-.9640345v-25.5850602h43.2474673v25.5850602l-4.1705474.9640345c-.3768288.0878497-.6126358.1780112-.7467222.2427425-.069355.2843555-.1988177.97097-.1988177,2.1916181v48.9923733h3.6434494c2.6216191,0,3.7174281-.3860762,4.0480203-.540969.1179035-.2820437.3074738-1.012583.3074738-2.3233926v-22.0132776h30.5254481v54.6910426h-76.6557717Z"/>
    <path class="cls-3" d="M1056.7117138,950.9593525v-26.5398474l4.7924306-.1317745-.1225272-.69355h-9.8460984c-.0462367.2519898-.083226.4785495-.110968.6843027l5.1738831.1363982v26.544471h-40.3345572v-25.3353822l3.8676973-1.1327984c.3930117-.1155917.5294098-.2242478.5479045-.2404307.0184947-.0485485.5987648-1.1905942,1.3015622-4.7947425l14.9991751-76.2858784h42.2302606l15.6626712,76.8083527c.6958619,3.2781798,1.1952179,4.1705474,1.2160244,4.2075368.0670432.097097.1780112.1895703.568711.305162l3.8676973,1.1327984v25.3353822h-43.8138665Z"/>
    <path class="cls-3" d="M1150.3363427,950.9593525l-1.2853794-3.5509761c-1.4102184-3.8838801-2.0968329-8.9722254-2.0968329-15.5470796v-12.15562c0-4.8664093-.5479045-6.1702833-.5710228-6.2234555-.2519898-.4230655-.4253773-.5432808-.4276892-.5432808-.2820437-.1086562-1.3269924-.4323128-4.1404936-.4323128h-2.8643616v9.4738933c.0231183,1.1605404.1433337,1.8471549.2311833,2.1939299.1756993.0716668.4461838.166452.8415074.2681727l4.0457084,1.0333895v25.4833395h-43.2497791v-25.5133933l4.0850096-1.012583c.4484957-.110968.7236039-.2265597.8784967-.305162.0439248-.2751082.1548928-.9594109.1548928-2.1476932v-49.8269452c0-1.2114007-.1179035-1.8818324-.194194-2.1916181-.1363982-.0647313-.374517-.1548928-.7536577-.2427425l-4.1705474-.9640345v-25.5850602h46.4678512c10.6205626.1132798,18.2842903,2.1684997,23.4627971,6.2881868,7.3354474,5.7772717,11.0621228,14.8026692,11.0621228,26.8172674,0,7.6567922-1.5327455,13.792398-4.5566236,18.2380536-1.0010239,1.4610787-2.1800589,2.7903829-3.5324814,3.9786653.5247862.4461838,1.0102712.9177979,1.456455,1.4171539,2.9845769,3.3244164,4.5011396,7.9272767,4.5011396,13.68143l-.1410218,7.7770075c0,2.1708116.3167212,2.8944154.3213448,2.9013509.0577958.1179035.2126887.3490868.9108624.6889264l3.0308136,1.4726379v24.5285523h-33.4661002ZM1141.2462138,884.5403791c5.0166785,0,6.2812513-.9201097,6.3344235-.9594109.5502163-.4484957,1.220648-2.1638761,1.220648-5.4582386,0-3.8723209-.9270452-4.7785596-1.0333895-4.8687211-.0924733-.0739787-1.6298425-1.192906-7.1620599-1.192906h-1.6552727v12.4792767h2.2956506Z"/>
    <g>
      <path class="cls-1" d="M196.1007791,906.7764699c-1.5083516-.6540001-3.4204046-1.0007729-5.6188346-1.0007729h-8.5099667v18.9391553h8.5099667c3.4481427-.0422162,5.9344489-.7863182,7.3622101-2.2136109,1.3269296-1.3266953,1.9997653-3.7567288,1.9997653-7.2212707,0-2.4216465-.3411034-4.391659-1.0116901-5.8567635-.5697551-1.168935-1.4712425-2.0497126-2.7314508-2.6467372Z"/>
      <path class="cls-1" d="M196.5595819,883.1388031c1.1732456-1.0446291,1.7906053-3.0397558,1.7906053-5.8861884,0-2.7811638-.6323532-4.7889882-1.8828156-5.9703397-1.2935689-1.152161-3.6584273-1.7575726-6.9794997-1.7575726h-7.5158941v15.3841367h7.5158941c3.2967078,0,5.6754352-.5947287,7.07171-1.770036Z"/>
      <path class="cls-1" d="M274.5736703,871.7489962c-.7106945-1.1374017-1.6204284-1.9173945-2.8607702-2.5016746-1.4090193-.6644019-2.798547-1.0007729-4.1288501-1.0007729-1.5409626,0-2.9072502.3005739-4.0621288.8955838-1.2564599.6495958-2.2295416,1.4925615-2.9788445,2.577392-.5060325.8533675-.8726249,1.6986292-1.0135643,2.4008429-.2080356,1.0383037-.3122408,2.6886723-.3122408,4.9086086v35.8241468c0,2.2788797.1064542,4.011057.3189879,5.1504734.1829214.9481549.5169028,1.7827336,1.0244346,2.5375185,1.635422,2.3083983,3.9425552,3.4518911,7.0233558,3.4518911,3.1070393,0,5.3830609-1.133091,6.9596332-3.4602781.5431415-.8325171.9191049-1.6901953,1.1005269-2.5227593.1027058-.5149817.2346491-1.8038183.2346491-4.8014047v-35.8241468c0-2.3274682-.1064542-4.1142314-.3189879-5.3102953-.1409394-.8388894-.4625512-1.5937211-.9862011-2.3251255Z"/>
      <path class="cls-1" d="M528.0592021,871.6943634c-.7106945-1.1353869-1.6226774-1.9173476-2.8607702-2.4976451-1.4090193-.6683846-2.7962979-1.0047556-4.1310991-1.0047556-1.5409626,0-2.9050012.3028229-4.0572559.8975517-1.2590837.6476278-2.2321654,1.4905467-2.9837174,2.577392-.5082815.857725-.8715004,1.7006439-1.0090662,2.3945175-.2114091,1.0426143-.3167388,2.692983-.3167388,4.914934v35.8241937c0,2.2788797.1075788,4.0112913.3216117,5.1484118.181422.9461401.5154034,1.7807189,1.0218107,2.5395802,1.637671,2.3060555,3.9463036,3.4518442,7.0233558,3.4518442,3.1070393,0,5.3841855-1.133091,6.9630067-3.462246.5423918-.8345787.9202294-1.6945997,1.0994024-2.5207914.1027058-.5169496.2357736-1.8058331.2357736-4.8013579v-35.8264896c0-2.3188001-.1098278-4.1035016-.3223614-5.3079995-.1409394-.8388894-.4603021-1.5913784-.983952-2.3271402Z"/>
      <path class="cls-1" d="M623.1183382,839.9419038h-5.0891873l-1.1897386,4.9490912-3.1392755,13.0612602-3.1625155-13.0710998-1.1953611-4.9392517h-51.9920247v13.1511747c-1.5222206-2.2003041-3.3578065-4.2477209-5.5817255-6.0772157-7.3033604-5.9717922-17.6267976-8.9930403-30.7011772-8.9930403-6.1623509,0-11.7395784.6484712-16.5783733,1.9274683-5.2604886,1.4474871-9.9557202,3.7729406-14.0200981,6.9282873-2.1894338,1.731287-3.9819133,3.6367804-5.4490326,5.6746856v-12.6113599h-181.3031865v12.9832938c-1.4944826-2.1159185-3.2839633-4.0870556-5.4314151-5.8550299-7.3022359-5.9711831-17.6267976-8.9927592-30.7011772-8.9927592-6.1657245,0-11.742952.647909-16.5794978,1.9252193-5.2593641,1.4495019-9.9523467,3.7749085-14.017849,6.9296929-3.9346836,3.1045092-6.7144886,6.7306067-8.3041802,10.8107277-.2196556.5325992-.3894576,1.1281713-.5802506,1.6977389-.2773808-.6683846-.516528-1.3558859-.8332668-2.0049194l-.03486-.0702354-.0356097-.0693452c-2.7408218-5.2857434-6.6998699-9.4542327-11.768441-12.3908609-3.3255704-2.0087146-6.9528861-3.3559324-10.7811154-4.0044036-3.4830027-.6004919-8.1122627-.9065009-13.7404683-.9065009h-47.066642v31.3819783l5.0063479,1.1553471.1120768.0257233v49.1484034l-.2264027.0566475-4.892022,1.2229587v31.2574849h49.9806394c6.4558498,0,11.382357-.3581585,15.0640243-1.094998,4.3923618-.9030805,8.2059724-2.4745925,11.3696124-4.6777079l.0715942-.049713.0704697-.0520089c2.9083748-2.1439377,5.3519493-4.8574431,7.2613785-8.0648456.5502635-.9186363,1.0521727-1.9127559,1.5293426-2.9385961,1.6901484,3.6240827,4.2008192,6.9233675,7.5769928,9.7619754,7.4131882,6.0191156,17.7527435,9.0348817,30.8181269,9.0348817,6.2984174,0,11.9487385-.6790206,16.793156-2.0181324,5.2349996-1.444629,9.884126-3.7676928,13.8176851-6.9034542,3.8098622-3.0663693,6.6129072-6.7644359,8.3536589-11.0103762,1.560829-3.8980431,2.3419932-8.633851,2.3419932-14.1261775v-25.4896988h21.6952986v25.0452336l-.1143259.0277381-4.9332543,1.1984067v31.3025593h49.6361625v-31.2178926l-4.857162-1.242872-.2623872-.0673773v-25.0457958h48.555502v25.0481386l-.1214478.0297528-4.9231336,1.204451v31.2915953h49.6339134v-31.218736l-4.8582865-1.2423566-.2612627-.0670493v-25.0457958h21.6087109v25.435066c0,5.3429532.7804145,10.0021534,2.3176287,13.8487498,1.647042,4.1901831,4.4260973,7.9622335,8.2453305,11.1753991,7.4116889,6.0188814,17.7501196,9.0340852,30.8155031,9.0340852,6.299542,0,11.9487385-.6782709,16.7920315-2.015696,5.2290022-1.4407869,9.8792531-3.7639445,13.8188096-6.9039228,2.2655261-1.8208735,4.1288501-3.8934513,5.6720617-6.1474979v13.1477543h111.0490123v-31.1355217l-4.7821942-1.2848071-.2657608-.0710788v-49.1975541l.009371-.0020148,5.038584-1.1351058v-31.420165h-45.2809097ZM225.4206751,928.7596916c-.8193978,3.1848184-1.9292956,5.9364637-3.3105769,8.2405045-1.4667445,2.4638627-3.333442,4.5410323-5.5438668,6.1702694-2.4574436,1.7110457-5.4512816,2.9262265-8.946654,3.6452142-3.2667207.6536721-7.7756574.9692396-13.7970689.9692396h-43.5225406v-19.75696l1.6309239-.407731c1.3734096-.3407285,2.3213771-.8704227,2.8195379-1.5746512.2207801-.3406817.6679629-1.4148293.6679629-4.0110101v-49.8295793c0-2.6256525-.4726718-3.6977854-.7523016-4.1035016-.4752957-.6683846-1.3872786-1.1729645-2.6992147-1.4778491l-1.6669084-.3846315v-19.7863849h40.6085432c5.2559906,0,9.5156594.2733981,12.6620568.8157899,3.0399432.5149817,5.9262024,1.5893636,8.5710655,3.1952202,3.9980313,2.3040408,7.1493017,5.6111504,9.3233671,9.8050819,2.1017215,4.3052118,3.1557684,9.1424605,3.1557684,14.4255331,0,10.2293058-3.3499349,17.3350324-9.9755867,21.2073522,6.7354796,3.2694851,10.5940708,9.4129067,11.5604054,18.3059588v7.8963555c0,.3655616.0322361.7019326.0404826,1.0614031-.1709265,1.9321069-.4243176,3.8156722-.8253952,5.5943763ZM302.4324443,922.1039122c0,4.6626675-.6241067,8.5919159-1.8588259,11.6759026-1.3258051,3.2330789-3.4792543,6.0564121-6.4048717,8.4110093-3.2539762,2.5941661-7.1249371,4.5176517-11.5116764,5.7284749-4.282534,1.1836474-9.3548535,1.7846547-15.0730204,1.7846547-11.5442874,0-20.5141814-2.5288035-26.6615388-7.519455-2.9949625-2.5184486-5.1390408-5.4134697-6.4048717-8.6297746-1.0945295-2.7395567-1.6830265-6.1350346-1.8029749-10.0406212.1281949-1.5321539.2114091-3.0880163.2114091-4.6791135,0-1.7391118-.1075788-3.3512937-.2623872-4.9036889v-41.7976727c.0483542-4.8750606.7271874-8.90083,2.0136344-11.9868783,1.1548785-2.9998823,3.2712188-5.747498,6.2684303-8.112497,3.3971646-2.6363354,7.3310985-4.5809058,11.7084668-5.7876526,4.3046495-1.1371674,9.321118-1.7110457,14.929832-1.7110457,11.545037,0,20.4943149,2.5308652,26.5974413,7.5217978,2.9151218,2.398547,5.059575,5.1860363,6.3760091,8.2890929,1.2508373,3.125875,1.874944,7.0782697,1.874944,11.7871829v49.9702844ZM390.5375698,890.1561146h-22.5023267v-12.176172c0-4.2190926-.8448868-6.2225594-1.5555813-7.1603126-.6079886-.8030454-1.5731987-1.3683024-2.8828857-1.689961v52.8502651c.0506032,2.6340396.5154034,3.7356441.7882861,4.1517621.1919175.3216117.7316855.9313809,2.7127089,1.4379756l1.6185542.4141032v19.7462303h-36.7199649v-19.7673149l1.6436684-.3993908c.9569636-.2331966,2.2134235-.6851586,2.768185-1.5157078.2091601-.3467728.6357267-1.4399904.6357267-4.0676576v-52.8398634c-1.267705.3236734-2.2100499.885182-2.8135405,1.6795592-1.0795359,1.417172-1.623802,3.8240592-1.623802,7.1603126v12.176172h-22.431857v-43.7560652h80.3628287v43.7560652ZM478.56173,890.1561146h-22.5019519v-12.176172c0-4.2190926-.8452616-6.2225594-1.5537071-7.1623273-.6068641-.8010307-1.5743232-1.3662877-2.8840102-1.6879463v52.8502651c.0509781,2.6340396.5154034,3.7356441.7882861,4.1517621.1919175.3216117.7316855.9313809,2.7119592,1.4379756l1.6193039.4141032v19.7462303h-36.7177158v-19.7650191l1.6414194-.4016867c.9580881-.2331966,2.2160474-.6851586,2.7708089-1.5177226.2057865-.3427433.6323532-1.4379756.6323532-4.0656429v-52.8398634c-1.2669554.3236734-2.2089254.885182-2.812416,1.6795592-1.0810353,1.417172-1.6253013,3.8240592-1.6253013,7.1603126v12.176172h-22.4303577v-43.7560652h80.3613293v43.7560652ZM555.9179762,922.0492794c0,4.6626675-.6241067,8.5916348-1.8584511,11.6756215-1.3258051,3.2334069-3.4781298,6.0587548-6.4074956,8.413352-3.2539762,2.5941661-7.1238126,4.5196196-11.5116764,5.7284281-4.2862824,1.1836474-9.3571026,1.7827336-15.0730204,1.7827336-11.5431628,0-20.5130569-2.5288504-26.6577904-7.517534-2.9987109-2.5227593-5.1427892-5.4174993-6.4059962-8.6317894-1.2302212-3.0755997-1.8565769-6.9311923-1.8565769-11.4508119v-49.9682697c.0483542-4.8686883.7260629-8.8944577,2.0136344-11.9868315,1.1571276-2.9998823,3.2734678-5.7454833,6.2695548-8.1148397,3.3971646-2.6380691,7.332223-4.5805778,11.7095913-5.7853567,4.3091476-1.1391353,9.3248664-1.7130605,14.9275829-1.7130605,11.545037,0,20.4943149,2.5308652,26.5974413,7.5215635,2.9177457,2.4008429,5.061824,5.1883321,6.378633,8.2913888,1.2482134,3.1238602,1.8745692,7.0762081,1.8745692,11.7871361v49.9682697ZM661.9411491,866.1968361l-1.6807775.3785404c-.9074849.2037718-2.0934751.6054116-2.5788914,1.3515752-.3178634.4563195-.7882861,1.5347777-.7882861,4.2257459v49.8272366c.0521026,2.6696024.5375189,3.7607583.8220216,4.170832.2080356.3277029.7418061.9186832,2.6294946,1.4252311l1.5964387.4288625v19.7251456h-36.7177158v-19.7673149l1.6436684-.3993908c1.3917767-.3383858,2.3221268-.8492912,2.7685599-1.5177226.2541408-.3910038.7039474-1.4694621.7039474-4.0656429v-23.2047279l-12.7441466,48.9547991h-13.8641651l-12.0896779-48.3008458v22.5507746c.0509781,2.6340396.5157783,3.7356441.7882861,4.1517621.190793.3216117.7316855.9313809,2.7097102,1.4379756l1.6193039.4141032v19.7462303h-32.9505852v-19.756632l1.6309239-.408059c1.3734096-.3404005,2.3210022-.8700947,2.814665-1.5702937.2230291-.3424622.6728358-1.4189057.6728358-4.0150865v-49.8272366c0-2.6279953-.4704228-3.6980665-.7526764-4.1037827-.4771699-.6704462-1.3891528-1.1729645-2.6965908-1.4758343l-1.6691575-.3866463v-19.7863849h40.4526103l9.4609329,39.1017379,9.3964607-39.1017379h38.8228109v19.7967866Z"/>
      <path class="cls-1" d="M751.1404292,871.4715686c-.9569636-.779946-3.0549367-1.7156843-7.5908618-1.7156843h-6.0210367v54.6205354h6.0210367c3.5441015-.0398735,6.1657245-.700199,7.7677858-1.9572211,1.300316-1.0681033,1.9499118-2.8484942,1.9499118-5.4154845v-39.8773732c-.0749678-2.6361012-.7916597-4.5595399-2.1268357-5.6547723Z"/>
      <path class="cls-1" d="M828.3845985,871.6963782c-.711819-1.1374017-1.6253013-1.9193624-2.8630192-2.4996598-1.4078948-.6683846-2.7962979-1.0047556-4.1292249-1.0047556-1.5615787,0-2.8896328.2941548-4.0595049.8975517-1.2564599.6476278-2.2321654,1.4905467-2.982218,2.5794536-.5086563.8556634-.8726249,1.6985823-1.0090662,2.3924559-.2102846,1.0446291-.3156143,2.6949977-.3156143,4.914934v35.8241937c0,2.276865.1075788,4.0089954.3189879,5.1507545.181422.9437974.5157783,1.7783761,1.0218107,2.5372374,1.6380458,2.3060555,3.9485526,3.4518442,7.0256048,3.4518442,3.1062897,0,5.3819364-1.133091,6.9611326-3.462246.542017-.832564.9191049-1.6902422,1.0990276-2.5207914.1030807-.5169496.2361485-1.8058331.2361485-4.8013579v-35.8264896c0-2.3292018-.1075788-4.1139034-.3216117-5.3039231-.1409394-.8449805-.4610518-1.5974695-.9824527-2.3292018Z"/>
      <polygon class="cls-1" points="1052.3470717 902.0568269 1060.2119408 902.0568269 1056.1314449 883.0590561 1052.3470717 902.0568269"/>
      <path class="cls-1" d="M1183.3933626,922.640822l-.5929951-.2881105c-.0187419-.2736792-.0322361-.6189995-.0322361-1.0455193l.1394401-7.597281c.0014994-6.2627609-1.5698252-11.3340496-4.6704923-15.1893142.6004919-.6941079,1.1605011-1.4200302,1.6792781-2.177439,3.4027872-5.0054108,5.1240473-11.7522292,5.1240473-20.06817,0-13.0554971-4.1389707-22.9345628-12.3037109-29.3631899-5.7380333-4.564694-14.0489606-6.8508362-25.3803395-6.9695664l-.0344852-.000328h-49.7313715v31.3776676l5.0011001,1.1582052.1184491.0277849v49.1457795l-.2196556.0546328-2.0848538.518449-1.2901954-.3785873-.4970363-.145906c-.155933-.5346139-.358346-1.3142788-.5907461-2.4144308l-15.1277469-74.1760664-1.0525475-5.1675286h-47.5220713l-1.0255591,5.2120407-14.1805291,72.1234488v-24.2369873h-36.9823521v.0005623h-1.5432116v-20.5360157l.1165749-.0271758,5.0007253-1.1582052v-31.3776676h-49.7058825v31.3776676l5.0007253,1.1582052.1176994.0274569v20.5351724h-36.7799391v.0005623h-1.5432116v-20.5362969l.1154504-.0268947,5.0007253-1.1582052v-31.3776676h-49.7043831v13.9525333c-1.6091832-2.5126855-3.6295647-4.8291428-6.1218683-6.8794645-7.299612-5.970574-17.6230492-8.9921501-30.6978037-8.9921501-6.1631006,0-11.7418274.6484712-16.5802475,1.9274683-5.2537415,1.4463626-9.9478486,3.770879-14.0167245,6.9257103-3.9418055,3.1157544-6.7193615,6.7418518-8.3041802,10.8147104-.1132013.2751317-.1941665.5912615-.2991214.8761858-1.7445001-3.4469245-4.0992378-6.5913072-7.0709603-9.3796866-3.5392286-3.4081755-7.8033955-5.8899368-12.6144523-7.3192442-4.1554637-1.2726717-9.6670943-1.9260627-16.3272313-1.9260627h-46.7810148v31.3776676l5.0003505,1.1582052.1154504.0268947v49.1472789l-.2252782.0563195-4.8905227,1.2235678v31.2563136h46.7810148c6.4858369,0,11.6930984-.6244815,15.9167827-1.9093355,4.7394626-1.3526998,9.0729747-3.7755176,12.8817124-7.2019197,3.126531-2.8522426,5.5401184-6.0055746,7.2774966-9.4039574.0277381.0716411.0461052.1531217.0738433.2239194,1.6474168,4.1913545,4.4260973,7.9634048,8.2453305,11.1765704,7.4188108,6.0194436,17.7572415,9.0340852,30.8177521,9.0340852,6.2999168,0,11.949863-.6782709,16.7909069-2.0158834,5.2248789-1.4403183,9.8751299-3.7625388,13.8165605-6.9017206,2.5361598-2.0396388,4.5835296-4.3850056,6.2122045-6.9626788v13.9609204h328.8187727v-29.7813695l-3.6374363-1.7659596ZM779.8212249,914.0185441c0,6.4098383-.6578422,11.6360292-1.9570337,15.5378206-1.2946934,3.9333248-3.7210254,7.5406334-7.2047778,10.7191264-3.0875477,2.7770874-6.5795466,4.7299979-10.3894088,5.808503-3.6007021,1.1039005-8.223215,1.6460112-14.0905678,1.6460112h-40.3232909v-19.756632l1.6312987-.408059c1.3730348-.3404005,2.3210022-.8700947,2.814665-1.5702937.2207801-.3404474.6702119-1.4189057.6702119-4.0150865v-49.8272366c0-2.63001-.4704228-3.7000813-.7500526-4.1037827-.4775447-.6704462-1.3895277-1.1729645-2.6969656-1.4758343l-1.6691575-.3866463v-19.7863849h40.3232909c6.0165386,0,10.8909432.5571511,14.4882718,1.6587088,3.8076132,1.1310763,7.1875352,3.0967313,10.0344364,5.8379748,3.3045794,3.1007608,5.6926778,6.7167376,7.0822055,10.7277477,1.3512941,3.9648112,2.0368744,9.1719322,2.0368744,15.4872642v33.9067992ZM856.2422481,922.0492794c0,4.6626675-.6252312,8.5916348-1.8588259,11.6756215-1.3269296,3.2334069-3.4792543,6.0587548-6.4071207,8.413352-3.2573497,2.5941661-7.127561,4.5196196-11.5128009,5.7284281-4.2840334,1.1836474-9.3548535,1.7827336-15.0711462,1.7827336-11.542788,0-20.510433-2.5288504-26.6600394-7.517534-2.9983361-2.5227593-5.1424144-5.4174993-6.4059962-8.6317894-1.2275973-3.0712891-1.853953-6.9268348-1.853953-11.4508119v-49.9682697c.0483542-4.8750606.7283119-8.90083,2.0147589-11.9888462,1.1511302-2.9958528,3.2689697-5.7434685,6.2661813-8.112825,3.4016627-2.6380691,7.3340972-4.5805778,11.7092165-5.7853567,4.3095224-1.1391353,9.325991-1.7130605,14.929832-1.7130605,11.5442874,0,20.4935652,2.5308652,26.5955671,7.5215635,2.9184954,2.4008429,5.0629485,5.1883321,6.3782581,8.2913888,1.2497128,3.1238602,1.8760685,7.0762081,1.8760685,11.7871361v49.9682697ZM934.8676986,947.7300054h-70.1975735v-19.756632l1.6309239-.408059c1.3730348-.3404005,2.3210022-.8700947,2.8191631-1.5723085.2185311-.3384326.6683377-1.4168909.6683377-4.0130717v-49.8272366c0-2.6279953-.4704228-3.6980665-.7526764-4.1037827-.4749208-.6727421-1.3869038-1.1729645-2.6965908-1.4758343l-1.6691575-.3846315v-19.7883996h36.7881855v19.7863849l-1.6691575.3866463c-1.307438.3028698-2.2194209.8030923-2.7048372,1.4928895-.3099917.4834484-.742181,1.6668147-.742181,4.0867276v52.223722h6.8741699c3.8181087,0,5.4906397-.7316855,6.2223252-1.3454841,1.121143-.9712544,1.3629141-3.1218455,1.3629141-4.7490678v-18.7833629h24.0661545v48.2315007ZM1012.6610069,947.7300054h-70.1979484v-19.756632l1.6312987-.4057631c1.3730348-.3447112,2.3210022-.8723906,2.8191631-1.5746044.2185311-.3384326.6679629-1.4189057.6679629-4.0130717v-49.8272366c0-2.6279953-.4704228-3.6980665-.7523016-4.1037827-.4775447-.6704462-1.3895277-1.1729645-2.6969656-1.4758343l-1.6691575-.3866463v-19.7863849h36.7896849v19.7863849l-1.6691575.3866463c-1.3085625.3028698-2.2205454.8030923-2.7063366,1.4928895-.3084924.4834484-.7418061,1.6668147-.7418061,4.0867276v52.223722h6.8741699c3.8181087,0,5.4906397-.7316855,6.2223252-1.3454841,1.121143-.9712544,1.3629141-3.1218455,1.3629141-4.7490678v-18.7833629h24.0661545v48.2315007ZM1097.2973735,947.7300054h-37.3571909v-20.1687205l2.0934751-.0589434c2.7929244-.0757175,2.9443593-1.1582521,2.9518561-2.0936625l-.9014875-5.0432695h-15.2117108l-.4486821,2.3080703c-.2102846,1.0513293-.3156143,1.9615786-.3156143,2.718144,0,.8556634,0,2.0289091,3.1651394,2.1107176l2.0957241.0569287v20.1707353h-33.8753127v-19.6872868l1.5465852-.4539767c1.1061495-.3239545,1.8738195-.840951,2.3487403-1.5810235.3905821-.664355,1.0532972-2.2956538,1.7617427-5.9324341l14.4860228-73.6752348h36.935872l15.136743,74.2237178c.8096519,3.8199829,1.4611219,5.0264955,1.7047672,5.3648812.4985357.7906289,1.2407166,1.2781537,2.3352461,1.6000934l1.5480845.4539767v19.6872868ZM1180.573075,947.7300054h-27.9697264l-.5157783-1.4189057c-1.2819489-3.533934-1.9049311-8.2619171-1.9049311-14.4506942v-12.1553216c0-5.551879-.6807074-7.2903816-.9753307-7.7802023-.6139861-1.0573736-1.2969425-1.7049546-2.098348-1.9994374-.7751668-.3045566-2.2827687-.6493146-5.2949738-.6493146h-6.0918812v12.7038045c.0494787,2.6340396.5142789,3.7356441.788661,4.1517621.1904181.3216117.7316855.9313809,2.7093353,1.4379756l1.6178045.4141032v19.7462303h-36.7889352v-19.756632l1.6320484-.4057631c1.3719102-.3447112,2.3210022-.8723906,2.8195379-1.5746044.2181562-.3384326.6679629-1.4168909.6679629-4.0130717v-49.8272366c0-2.6279953-.4707976-3.6980665-.7526764-4.1037827-.4775447-.6704462-1.3891528-1.1729645-2.6980901-1.4758343l-1.6687826-.3866463v-19.7863849h43.2391624c9.847017.1031275,16.8580031,1.9300922,21.4535276,5.5856613,6.5281937,5.1400716,9.8402699,13.3135736,9.8402699,24.2892773,0,6.9984759-1.3449218,12.523179-3.9957823,16.4206599-1.6635349,2.4303146-3.910319,4.4230986-6.7171125,5.9639675,2.0241299.8807776,3.6644247,2.0182262,4.9051414,3.401569,2.440201,2.7201588,3.6764196,6.5988508,3.6764196,11.53084l-.1409394,7.7151678c0,2.5834832.3703408,3.8448628.6784583,4.4398726.3980789.8556634,1.1814921,1.5367925,2.3719803,2.1147472l1.2129786.5886376v19.2795559Z"/>
      <path class="cls-1" d="M1140.6047566,868.8311568h-4.8826511v18.9388273h5.5243752c5.0963092,0,7.3198533-.8807776,8.288437-1.620569,1.6402949-1.3266953,2.4956772-4.0405287,2.4956772-8.0264246,0-3.6307361-.7264377-6.094552-2.1613209-7.3221492-1.084034-.8807776-3.6111976-1.9696845-9.2645174-1.9696845Z"/>
    </g>
  </g>
</svg>