<svg width="638" height="575" viewBox="0 0 638 575" fill="none" xmlns="http://www.w3.org/2000/svg">
<path d="M608.345 440.656L634.483 423.214L608.345 405.771L590.013 418.005L584.071 414.039L602.403 401.805L576.264 384.363L557.933 396.597L533.659 380.397L519.916 389.567L502.662 378.21V326.138C502.662 319.108 496.943 313.39 489.911 313.39H449.679C451.661 310.505 452.852 306.951 452.852 302.741V241.567C452.852 230.142 444.282 223.487 434.732 222.009V195.135L457.415 195.131V211.241C457.415 216.42 459.257 220.996 462.741 224.478C468.895 230.626 477.819 230.946 479.585 230.946H511.283C522.306 230.946 533.465 224.178 533.465 211.241V135.205H501.951L501.959 126.217H457.413V129.936H412.307C406.516 129.937 400.687 131.814 396.448 135.476C394.794 134.053 392.839 132.867 390.612 131.953C385.945 130.038 381.478 129.941 380.629 129.941H348.882C343.187 129.941 337.458 131.761 333.245 135.321C329.286 131.902 324.029 130.126 318.934 130.126L308.252 130.114V123.104H466.024V1.64844H421.315V22.1504L411.785 22.1524C405.929 22.1818 400.038 24.1227 395.791 27.873C391.259 24.0501 385.188 22.2486 380.211 22.2486C376.876 22.2486 285.333 22.1956 285.333 22.1956C279.573 22.2132 273.776 24.0933 269.556 27.7474C263.484 22.5488 255.503 22.1465 253.849 22.1465H158.386C145.102 22.1465 136.171 32.4103 136.171 41.993V148.557H193.999V174.696H200.31V211.276C200.31 215.331 201.415 218.783 203.274 221.613H202.491C191.463 221.613 180.301 228.448 180.301 241.51V302.741C180.301 306.951 181.49 310.505 183.47 313.39H153.277C142.837 313.39 134.343 321.883 134.343 332.324V375.441C134.343 376.432 134.42 377.404 134.567 378.354L117.533 389.565L103.79 380.395L79.5157 396.595L61.1842 384.361L35.046 401.803L53.3775 414.037L47.4351 418.004L29.1036 405.77L2.96533 423.212L29.1036 440.654L47.4351 428.42L53.3775 432.387L35.046 444.621L61.1842 462.065L79.5157 449.831L103.79 466.031L117.535 456.859L195.592 509.687L263.747 573.349H373.699L441.854 509.687L519.912 456.859L533.657 466.031L557.931 449.831L576.262 462.065L602.401 444.621L584.069 432.387L590.012 428.42L608.345 440.656ZM592.985 419.986L608.345 409.734L628.541 423.212L608.345 436.69L592.985 426.438L597.82 423.212L592.985 419.986ZM29.1056 436.69L8.90968 423.212L29.1056 409.734L44.4659 419.986L39.6303 423.212L44.4659 426.438L29.1056 436.69ZM103.792 389.601L110.637 394.169L70.088 421.23L68.9498 420.47L63.2448 416.663L103.792 389.601ZM67.1188 423.214L60.2736 427.783L53.4285 423.214L60.2736 418.645L67.1188 423.214ZM40.9903 401.803L61.1862 388.325L76.5465 398.577L56.3507 412.055L40.9903 401.803ZM61.1862 458.101L40.9903 444.623L56.3507 434.371L76.5465 447.849L61.1862 458.101ZM103.792 456.823L63.2448 429.763L68.9498 425.955L70.0919 425.194L110.639 452.255L103.792 456.823ZM370.526 565.103H266.925L212.958 514.271L227.4 516.288L270.288 556.582H367.158L410.046 516.288L424.492 514.271L370.526 565.103ZM533.659 389.601L574.208 416.661L568.503 420.468L567.365 421.228L526.816 394.167L533.659 389.601ZM577.179 418.645L584.024 423.214L577.179 427.783L570.334 423.214L577.179 418.645ZM533.659 456.823L526.812 452.255L567.359 425.194L568.501 425.955L574.206 429.763L533.659 456.823ZM596.46 444.623L576.264 458.101L560.904 447.849L581.1 434.371L596.46 444.623ZM581.1 412.055L560.904 398.577L576.264 388.325L596.46 401.803L581.1 412.055Z" fill="black"/>
<path d="M466.028 1.64847V123.104H308.256V130.114L318.938 130.126C324.033 130.126 329.29 131.902 333.248 135.321C337.46 131.761 343.19 129.941 348.885 129.941H380.633C381.48 129.941 385.949 130.038 390.616 131.953C392.843 132.868 394.798 134.055 396.452 135.476C400.691 131.814 406.522 129.938 412.311 129.936H457.416V126.217H501.963L501.955 135.205H533.468V211.241C533.468 224.178 522.31 230.946 511.286 230.946H479.589C477.822 230.946 468.899 230.626 462.745 224.478C459.259 220.996 457.418 216.42 457.418 211.241V195.131L434.736 195.135V222.009C444.286 223.487 452.856 230.142 452.856 241.567V302.741C452.856 306.951 451.664 310.505 449.682 313.39H489.915C496.947 313.39 502.665 319.109 502.665 326.138V378.21L519.919 389.567L533.663 380.397L557.937 396.597L576.268 384.363L602.406 401.805L584.075 414.039L590.017 418.006L608.349 405.771L634.487 423.214L608.349 440.656L590.017 428.422L584.075 432.389L602.406 444.623L576.268 462.067L557.937 449.833L533.663 466.033L519.917 456.861L441.86 509.689L373.705 573.351H263.753L195.598 509.689L117.541 456.861L103.795 466.033L79.5216 449.833L61.1901 462.067L35.0518 444.623L53.3833 432.389L47.441 428.422L29.1094 440.656L2.97119 423.214L29.1094 405.771L47.441 418.006L53.3833 414.039L35.0518 401.805L61.1901 384.363L79.5216 396.597L103.795 380.397L117.539 389.567L134.573 378.356C134.426 377.406 134.349 376.432 134.349 375.441V332.324C134.349 321.883 142.843 313.39 153.283 313.39H183.48C181.502 310.505 180.311 306.951 180.311 302.741V241.51C180.311 228.448 191.473 221.613 202.5 221.613H203.283C201.425 218.785 200.32 215.331 200.32 211.276V174.696H194.009V148.558H136.18V41.9931C136.18 32.4083 145.112 22.1466 158.396 22.1466H253.858C255.513 22.1466 263.494 22.5508 269.566 27.7474C273.785 24.0933 279.583 22.2133 285.342 22.1956C285.342 22.1956 376.886 22.2486 380.22 22.2486C385.195 22.2486 391.269 24.0521 395.801 27.8731C400.047 24.1228 405.939 22.1838 411.795 22.1524L421.324 22.1505V1.64847H466.028ZM581.1 412.055L596.46 401.803L576.264 388.325L560.904 398.577L581.1 412.055ZM56.3506 412.055L76.5465 398.577L61.1862 388.325L40.9903 401.803L56.3506 412.055ZM567.362 421.23L568.501 420.47L574.208 416.663L533.659 389.603L526.814 394.171L567.362 421.23ZM70.088 421.23L110.637 394.169L103.792 389.601L63.2428 416.661L68.9497 420.468L70.088 421.23ZM608.345 436.69L628.541 423.212L608.345 409.734L592.984 419.986L597.82 423.212L592.984 426.438L608.345 436.69ZM29.1055 436.69L44.4658 426.44L39.6303 423.214L44.4658 419.988L29.1055 409.736L8.90965 423.214L29.1055 436.69ZM577.177 427.781L584.022 423.212L577.177 418.643L570.332 423.212L577.177 427.781ZM60.2736 427.781L67.1187 423.212L60.2736 418.643L53.4285 423.212L60.2736 427.781ZM533.659 456.823L574.206 429.763L568.501 425.956L567.358 425.194L526.812 452.255L533.659 456.823ZM103.792 456.823L110.639 452.255L70.0919 425.194L68.9497 425.956L63.2448 429.763L103.792 456.823ZM576.264 458.101L596.46 444.623L581.1 434.371L560.904 447.849L576.264 458.101ZM61.1862 458.101L76.5465 447.849L56.3506 434.371L40.9903 444.623L61.1862 458.101ZM270.29 556.582L227.402 516.288L212.96 514.271L266.927 565.103H370.528L424.492 514.271L410.05 516.288L367.162 556.582H270.29ZM467.676 0H466.028H421.319H419.67V1.64847V20.502L411.789 20.504C405.815 20.5354 400.063 22.4331 395.773 25.7516C391.416 22.5057 385.704 20.5982 380.214 20.5982C376.88 20.5982 285.339 20.5452 285.339 20.5452C279.48 20.5628 273.811 22.4017 269.554 25.6299C262.911 20.6472 254.8 20.4961 253.852 20.4961H158.39C144.115 20.4961 134.526 31.6116 134.526 41.9931V148.558V150.206H136.174H192.354V174.696V176.344H194.003H198.664V211.276C198.664 214.444 199.286 217.378 200.514 220.031C189.348 220.808 178.654 228.152 178.654 241.508V302.74C178.654 306.005 179.314 309.021 180.617 311.737H153.277C141.928 311.737 132.693 320.971 132.693 332.322V375.439C132.693 376.14 132.728 376.843 132.801 377.541L117.541 387.587L104.706 379.023L103.792 378.413L102.877 379.023L79.5177 394.611L62.1007 382.987L61.1862 382.377L60.2716 382.987L34.1334 400.43L32.0787 401.801L34.1334 403.173L50.4102 414.036L47.439 416.018L30.022 404.394L29.1075 403.783L28.193 404.394L2.05471 421.836L0 423.208L2.05471 424.58L28.193 442.022L29.1075 442.633L30.022 442.022L47.439 430.401L50.4102 432.383L34.1334 443.245L32.0787 444.617L34.1334 445.989L60.2716 463.433L61.1862 464.043L62.1007 463.433L79.5177 451.809L102.877 467.397L103.792 468.008L104.706 467.397L117.529 458.839L194.562 510.972L262.623 574.546L263.098 574.99H263.747H373.699H374.349L374.824 574.546L442.884 510.972L519.917 458.839L532.74 467.397L533.655 468.008L534.569 467.397L557.929 451.809L575.346 463.433L576.26 464.043L577.175 463.433L603.313 445.989L605.368 444.617L603.313 443.245L587.036 432.383L590.007 430.401L607.424 442.022L608.339 442.633L609.253 442.022L635.392 424.58L637.446 423.208L635.392 421.836L609.253 404.394L608.339 403.783L607.424 404.394L590.007 416.018L587.036 414.036L603.313 403.173L605.368 401.801L603.313 400.43L577.175 382.987L576.26 382.377L575.346 382.987L557.929 394.611L534.569 379.023L533.655 378.413L532.74 379.023L519.906 387.587L504.308 377.32V326.136C504.308 318.198 497.847 311.739 489.909 311.739H452.536C453.841 309.021 454.502 306.007 454.502 302.741V241.567C454.502 233.462 449.724 223.304 436.383 220.626V196.783L455.766 196.779V211.241C455.766 216.867 457.776 221.848 461.577 225.646C468.2 232.261 477.742 232.597 479.587 232.597H511.285C523.128 232.597 535.117 225.261 535.117 211.243V135.207V133.558H533.468H503.605L503.611 126.221L503.613 124.57H501.963H467.678V123.108V1.6524V0H467.676ZM309.905 124.755H455.764V126.217V128.287H412.307C406.419 128.289 400.72 130.124 396.444 133.358C394.896 132.194 393.149 131.211 391.236 130.426C386.284 128.395 381.529 128.291 380.627 128.291H348.88C343.108 128.291 337.493 130.071 333.254 133.209C329.263 130.187 324.121 128.476 318.932 128.476L309.901 128.466V124.755H309.905ZM43.9615 401.803L61.1862 390.309L73.5753 398.577L56.3506 410.071L43.9615 401.803ZM563.875 398.577L576.264 390.309L593.489 401.803L581.1 410.071L563.875 398.577ZM66.214 416.661L103.792 391.585L107.665 394.169L70.088 419.246L69.8642 419.097L66.214 416.661ZM529.785 394.169L533.659 391.585L571.236 416.661L567.586 419.097L567.362 419.246L529.785 394.169ZM595.956 419.986L608.345 411.718L625.57 423.212L608.345 434.706L595.956 426.438L598.735 424.584L600.789 423.212L598.735 421.84L595.956 419.986ZM11.8808 423.212L29.1055 411.718L41.4946 419.986L38.7158 421.84L36.6611 423.212L38.7158 424.584L41.4946 426.438L29.1055 434.706L11.8808 423.212ZM56.3997 423.212L60.2736 420.627L64.1475 423.214L60.2736 425.799L56.3997 423.212ZM573.303 423.214L577.177 420.627L581.051 423.212L577.177 425.799L573.303 423.214ZM529.783 452.255L567.358 427.178L567.584 427.329L571.234 429.765L533.659 454.841L529.783 452.255ZM66.216 429.765L69.8662 427.329L70.0919 427.178L107.667 452.255L103.792 454.841L66.216 429.765ZM563.875 447.849L581.1 436.353L593.489 444.621L576.264 456.117L563.875 447.849ZM43.9615 444.623L56.3506 436.355L73.5753 447.851L61.1862 456.119L43.9615 444.623ZM410.796 517.849L419.592 516.62L369.872 563.455H267.58L217.861 516.62L226.656 517.849L269.162 557.783L269.639 558.23H270.292H367.162H367.816L368.292 557.783L410.796 517.849Z" fill="url(#paint0_linear_22_1672)"/>
<path d="M430.893 11.2253V31.7254L411.838 31.7312C411.838 31.7312 399.135 31.796 399.135 42.0558V103.373C399.135 113.445 411.838 113.531 411.838 113.531H456.453V11.2253H430.893ZM430.87 93.5041H424.672V52.2548H430.87V93.5041Z" fill="white" stroke="url(#paint1_linear_22_1672)" stroke-width="0.4202" stroke-miterlimit="10"/>
<path d="M158.39 31.7214C150.738 31.7214 145.755 37.1987 145.755 41.995L145.749 103.523C145.749 113.604 158.439 113.667 158.439 113.667H177.484H177.492V118.836H145.749V139.202L190.447 139.192C203.024 139.192 203.046 128.501 203.046 128.501V31.7254H158.39V31.7214ZM177.484 93.2961H171.297V52.247H177.484V93.2961Z" fill="white" stroke="url(#paint2_linear_22_1672)" stroke-width="0.4202" stroke-miterlimit="10"/>
<path d="M392.821 113.529V42.152H392.811V42.1441C392.811 34.3178 384.155 31.8235 380.214 31.8235C371.709 31.8235 365.447 33.5956 361.3 36.9789V31.8313H335.941V113.527H361.3V52.3019H367.456V113.527H367.458H392.813H392.821V113.529Z" fill="white" stroke="url(#paint3_linear_22_1672)" stroke-width="0.4202" stroke-miterlimit="10"/>
<path d="M492.37 165.193H523.892V144.782H492.378H492.37L492.378 135.793H466.992V144.782H460.692V165.193H466.992V211.243C466.992 221.387 479.604 221.373 479.604 221.373H511.283C511.283 221.373 523.892 221.414 523.892 211.243V170.207H498.67V200.961H492.378H492.37V165.193Z" fill="white" stroke="url(#paint4_linear_22_1672)" stroke-width="0.4202" stroke-miterlimit="10"/>
<path d="M456.83 160.028L456.924 139.51H412.313C412.313 139.51 399.623 139.514 399.623 149.847V221.442H399.627H425.159V185.562L456.924 185.556V165.04H425.159V160.036L456.83 160.028Z" fill="white" stroke="url(#paint5_linear_22_1672)" stroke-width="0.4202" stroke-miterlimit="10"/>
<path d="M367.849 195.914V201.081H361.675V190.745H393.251V149.815C393.251 139.499 380.63 139.518 380.63 139.518H348.883C348.883 139.518 336.257 139.518 336.257 149.849V211.268C336.257 221.399 348.899 221.432 348.899 221.432L380.63 221.444C380.63 221.444 393.257 221.397 393.257 211.266V195.914H367.849ZM367.849 160.034V170.206H361.675V160.026H367.849V160.034Z" fill="white" stroke="url(#paint6_linear_22_1672)" stroke-width="0.4202" stroke-miterlimit="10"/>
<path d="M266.815 211.272V170.276H241.587V201.097H235.279V165.119H266.815V144.778H234.938L234.958 135.442H209.536L209.549 144.778H203.578V165.119H209.887V211.274C209.887 221.365 222.512 221.44 222.512 221.44H254.202C254.202 221.44 266.82 221.385 266.82 211.27H266.815V211.272Z" fill="white" stroke="url(#paint7_linear_22_1672)" stroke-width="0.4202" stroke-miterlimit="10"/>
<path d="M318.926 139.703L298.681 139.679V118.749L266.442 118.759V77.7964C266.477 73.3868 263.272 71.7638 263.272 71.7638C263.272 71.7638 266.436 70.5274 266.442 67.6406V42.154C266.442 31.8254 253.837 31.7234 253.837 31.7234H209.549V129.816H234.928V82.9636H241.063V128.923C241.063 139.067 253.837 139.077 253.837 139.077H273.291V221.444H273.3H298.683V160.162H304.818V221.444H330.189V150.002C330.185 139.703 318.926 139.703 318.926 139.703ZM241.065 52.3137V62.4774H234.924V52.2902L241.065 52.3137Z" fill="white" stroke="url(#paint8_linear_22_1672)" stroke-width="0.4202" stroke-miterlimit="10"/>
<path d="M317.04 31.7705H285.366C285.366 31.7705 272.753 31.8098 272.753 42.0912V57.2337H298.128V52.2333H304.286L304.282 62.391H285.36C285.36 62.391 272.753 62.4008 272.753 72.5429V103.313C272.753 113.441 285.36 113.468 285.36 113.468H329.665V42.0892C329.665 31.7705 317.04 31.7705 317.04 31.7705ZM304.282 93.1509H298.13V82.8518H304.282V93.1509Z" fill="white" stroke="url(#paint9_linear_22_1672)" stroke-width="0.4202" stroke-miterlimit="10"/>
<path d="M234.169 231.188H202.496C202.496 231.188 189.881 231.166 189.881 241.51V256.649H215.252V251.65H221.412V261.81H202.494C202.494 261.81 189.881 261.79 189.881 271.966V302.741C189.881 312.86 202.494 312.883 202.494 312.883H246.791V241.512C246.789 231.166 234.169 231.188 234.169 231.188ZM221.412 292.574H215.252V282.273H221.412V292.574Z" fill="white" stroke="url(#paint10_linear_22_1672)" stroke-width="0.4202" stroke-miterlimit="10"/>
<path d="M310.099 302.686C310.099 302.257 310.101 231.205 310.101 231.205H284.757V292.493H278.621V231.099H253.27V302.582C253.27 312.817 265.865 312.882 265.865 312.882H297.51C297.512 312.882 310.099 312.817 310.099 302.686Z" fill="white" stroke="url(#paint11_linear_22_1672)" stroke-width="0.4202" stroke-miterlimit="10"/>
<path d="M348.265 256.706H379.775V236.288H348.271H348.265L348.271 227.011H322.885V236.288V236.292H316.579V256.706H322.885V302.753H322.887C322.887 312.685 335.492 312.882 335.492 312.882H367.17C367.17 312.882 379.773 312.83 379.773 302.753V261.712H354.563V292.466H348.263V256.706H348.265Z" fill="white" stroke="url(#paint12_linear_22_1672)" stroke-width="0.4202" stroke-miterlimit="10"/>
<path d="M348.265 256.706H379.775V236.288H348.271H348.265L348.271 227.011H322.885V236.288V236.292H316.579V256.706H322.885V302.753H322.887C322.887 312.685 335.492 312.882 335.492 312.882H367.17C367.17 312.882 379.773 312.83 379.773 302.753V261.712H354.563V292.466H348.263V256.706H348.265Z" fill="white" stroke="url(#paint13_linear_22_1672)" stroke-width="0.4202" stroke-miterlimit="10"/>
<path d="M430.63 231.268H398.891C398.891 231.268 386.253 231.286 386.253 241.567V302.741C386.253 312.884 398.891 312.884 398.891 312.884H430.63C430.63 312.884 443.279 312.86 443.279 302.741V241.567C443.277 231.192 430.63 231.268 430.63 231.268ZM411.689 251.709H417.855V292.595H411.689V251.709Z" fill="white" stroke="url(#paint14_linear_22_1672)" stroke-width="0.4202" stroke-miterlimit="10"/>
<path d="M133.955 407.848L130.548 414.42C129.211 413.074 127.61 412.401 125.74 412.401H122.784L117.843 431.427C117.423 433.119 117.213 434.365 117.213 435.167C117.213 435.941 117.682 436.887 118.62 438.005H104.141C105.348 437.205 106.227 436.372 106.78 435.513C107.334 434.653 107.844 433.293 108.315 431.431L113.192 412.658C112.052 412.487 111.096 412.401 110.327 412.401C107.946 412.401 105.652 412.96 103.438 414.077L107.008 407.718C108.115 408.005 109.755 408.148 111.936 408.148H127.019C130.067 408.15 132.379 408.05 133.955 407.848Z" fill="white" stroke="url(#paint15_linear_22_1672)" stroke-width="0.2801" stroke-miterlimit="10"/>
<path d="M170.121 408.15C168.914 408.953 168.035 409.783 167.482 410.643C166.928 411.502 166.416 412.862 165.947 414.722L161.624 431.433C161.188 433.123 160.97 434.369 160.97 435.171C160.97 435.974 161.439 436.918 162.377 438.007H147.898C149.133 437.204 150.016 436.374 150.547 435.515C151.081 434.655 151.582 433.293 152.049 431.431L153.87 424.39H143.761L141.938 431.439C141.487 433.128 141.261 434.373 141.261 435.173C141.261 435.947 141.73 436.89 142.668 438.007H128.189C129.429 437.206 130.316 436.382 130.854 435.536C131.39 434.693 131.892 433.325 132.363 431.433L136.688 414.722C137.124 413.033 137.342 411.787 137.342 410.986C137.342 410.242 136.873 409.296 135.935 408.15H150.414C149.199 408.923 148.306 409.759 147.733 410.662C147.16 411.563 146.654 412.915 146.216 414.719L145.003 420.007H155.059L156.376 414.721C156.827 413.031 157.053 411.787 157.053 410.986C157.053 410.242 156.584 409.298 155.646 408.152H170.121V408.15Z" fill="white" stroke="url(#paint16_linear_22_1672)" stroke-width="0.2801" stroke-miterlimit="10"/>
<path d="M193.42 408.15L191.712 414.895C191.277 413.578 190.223 412.791 188.547 412.534C188.145 412.448 186.588 412.42 183.876 412.448L181.847 420.092H185.17C187.048 420.092 188.457 419.962 189.397 419.705L187.638 426.578C187.403 425.661 187.059 425.088 186.608 424.859C186.155 424.629 185.175 424.515 183.668 424.515H180.703L178.534 432.891C180.177 433.464 182.106 433.751 184.318 433.751C186.294 433.751 187.87 433.582 189.044 433.244C190.217 432.907 191.642 432.202 193.318 431.131L189.195 438.003H165.213C166.42 437.202 167.299 436.37 167.853 435.511C168.406 434.651 168.916 433.291 169.387 431.429L173.713 414.718C174.148 413.029 174.366 411.783 174.366 410.982C174.366 410.238 173.897 409.292 172.959 408.146H193.42V408.15Z" fill="white" stroke="url(#paint17_linear_22_1672)" stroke-width="0.2801" stroke-miterlimit="10"/>
<path d="M243.132 398.638L241.987 407.092C239.43 404.178 236.133 402.722 232.095 402.722C227.561 402.722 223.793 404.482 220.787 408.005C217.78 411.525 216.277 415.904 216.277 421.138C216.277 424.833 217.264 427.72 219.238 429.796C221.213 431.874 223.972 432.915 227.516 432.915C231.196 432.915 235.66 431.515 240.91 428.717L235.929 436.424C232.204 437.88 228.123 438.61 223.679 438.61C217.174 438.61 212.046 437.095 208.3 434.067C204.553 431.038 202.681 426.898 202.681 421.644C202.681 417.964 203.523 414.448 205.205 411.092C206.888 407.738 209.185 404.949 212.103 402.724C217.127 398.928 223.656 397.031 231.688 397.031C235.594 397.029 239.407 397.566 243.132 398.638Z" fill="white" stroke="url(#paint18_linear_22_1672)" stroke-width="0.2801" stroke-miterlimit="10"/>
<path d="M277.508 438.005H263.531C265.039 437.032 265.794 436.172 265.794 435.428C265.794 435.315 265.743 434.885 265.643 434.139L265.543 433.409L264.838 429.113H253.224L251.213 432.163C249.772 434.339 249.05 435.715 249.05 436.286C249.05 436.688 249.468 437.259 250.308 438.005H239.75C240.788 437.432 241.569 436.853 242.087 436.265C242.607 435.678 243.704 434.167 245.38 431.733L257.194 414.42C258.233 412.903 258.753 411.7 258.753 410.811C258.753 409.752 258.182 408.864 257.043 408.148H270.064L275.292 433.407C275.595 434.84 275.862 435.813 276.097 436.327C276.335 436.845 276.804 437.405 277.508 438.005ZM264.083 424.947L262.425 415.109L255.938 424.947H264.083Z" fill="white" stroke="url(#paint19_linear_22_1672)" stroke-width="0.2801" stroke-miterlimit="10"/>
<path d="M309.818 408.15L306.602 411.716L295.777 424.519L293.944 431.437C293.534 432.954 293.328 434.2 293.328 435.173C293.328 435.976 293.781 436.92 294.686 438.007H280.558C281.798 437.206 282.695 436.374 283.246 435.515C283.8 434.655 284.31 433.295 284.781 431.433L286.539 424.603C285.802 422.111 284.453 419.169 282.493 415.776C280.532 412.383 278.748 409.912 277.139 408.366C279.149 407.822 280.907 407.549 282.416 407.549C284.493 407.549 286.169 407.914 287.44 408.645C288.712 409.375 289.87 410.656 290.908 412.487C291.141 412.917 292.264 415.221 294.274 419.401L300.159 411.928C301.001 410.87 301.423 410.083 301.423 409.567C301.423 409.11 301.087 408.637 300.418 408.15H309.818Z" fill="white" stroke="url(#paint20_linear_22_1672)" stroke-width="0.2801" stroke-miterlimit="10"/>
<path d="M339.417 419.576C339.417 425.275 337.572 429.871 333.886 433.366C330.199 436.859 325.34 438.608 319.305 438.608C314.813 438.608 311.361 437.57 308.949 435.493C306.535 433.417 305.328 430.432 305.328 426.536C305.328 423.844 305.841 421.252 306.863 418.761C307.885 416.269 309.285 414.179 311.061 412.489C314.513 409.196 319.338 407.549 325.54 407.549C330.065 407.549 333.584 408.639 336.098 410.815C338.31 412.732 339.417 415.653 339.417 419.576ZM329.261 418.288C329.261 413.792 327.651 411.543 324.435 411.543C321.888 411.543 319.725 413.303 317.949 416.828C316.306 420.064 315.484 423.744 315.484 427.869C315.484 429.959 315.92 431.606 316.791 432.809C317.662 434.012 318.836 434.612 320.31 434.612C323.057 434.612 325.287 432.736 326.998 428.984C328.507 425.661 329.261 422.097 329.261 418.288Z" fill="white" stroke="url(#paint21_linear_22_1672)" stroke-width="0.2801" stroke-miterlimit="10"/>
<path d="M390.031 407.128C390.031 411.068 388.52 414.263 385.497 416.712C382.475 419.162 378.566 420.386 373.776 420.386C371.267 420.386 368.583 419.984 366.21 419.181C368.807 419.065 370.999 418.475 372.3 417.401C374.941 415.184 376.262 412.026 376.262 407.932C376.262 404.565 374.6 402.881 371.273 402.881L370.143 402.893L363.327 429.229C362.725 431.486 362.425 433.148 362.425 434.22C362.425 435.252 363.051 436.514 364.307 438.005H344.96C346.617 436.934 347.804 435.835 348.52 434.704C349.237 433.576 349.908 431.749 350.536 429.223L356.313 406.898C356.894 404.641 357.185 402.977 357.185 401.906C357.185 400.911 356.557 399.649 355.303 398.118H372.029C375.61 398.118 378.007 398.175 379.215 398.291C382.081 398.52 384.365 399.076 386.067 399.955C388.71 401.33 390.031 403.723 390.031 407.128Z" fill="white" stroke="url(#paint22_linear_22_1672)" stroke-width="0.2801" stroke-miterlimit="3"/>
<path d="M414.138 408.15L412.431 414.895C411.995 413.578 410.941 412.791 409.265 412.534C408.863 412.448 407.306 412.42 404.594 412.448L402.565 420.092H405.888C407.766 420.092 409.177 419.962 410.115 419.705L408.356 426.578C408.121 425.661 407.777 425.088 407.326 424.859C406.873 424.629 405.894 424.515 404.386 424.515H401.421L399.252 432.891C400.895 433.464 402.824 433.751 405.036 433.751C407.012 433.751 408.588 433.582 409.762 433.244C410.935 432.907 412.36 432.202 414.036 431.131L409.913 438.003H385.931C387.138 437.202 388.017 436.37 388.571 435.511C389.124 434.651 389.634 433.291 390.105 431.429L394.431 414.718C394.866 413.029 395.084 411.783 395.084 410.982C395.084 410.238 394.615 409.292 393.677 408.146H414.138V408.15Z" fill="white" stroke="url(#paint23_linear_22_1672)" stroke-width="0.2801" stroke-miterlimit="10"/>
<path d="M447.806 438.005C445.728 438.205 444.034 438.305 442.727 438.305C439.409 438.305 437.061 437.776 435.688 436.716C434.547 435.829 433.14 433.537 431.464 429.841L428.899 424.127L427.008 431.435C426.56 433.095 426.336 434.341 426.336 435.169C426.336 435.97 426.806 436.916 427.744 438.003H413.465C414.705 437.202 415.592 436.378 416.13 435.532C416.665 434.689 417.168 433.321 417.639 431.429L421.964 414.718C422.4 413.029 422.618 411.783 422.618 410.982C422.618 410.238 422.149 409.292 421.21 408.146H434.887C439.177 408.146 442.142 408.505 443.785 409.22C444.856 409.679 445.712 410.444 446.348 411.518C446.984 412.591 447.304 413.759 447.304 415.019C447.304 417.798 446.314 419.974 444.336 421.548C442.961 422.664 440.918 423.238 438.202 423.267L440.062 426.703C442.14 430.569 443.714 433.276 444.788 434.822C445.794 436.259 446.799 437.318 447.806 438.005ZM437.097 415.109C437.097 412.99 435.584 411.93 432.557 411.93L432.108 411.938L429.421 422.115C429.822 422.227 430.224 422.284 430.626 422.284C432.499 422.284 434.047 421.605 435.266 420.243C436.486 418.883 437.097 417.172 437.097 415.109Z" fill="white" stroke="url(#paint24_linear_22_1672)" stroke-width="0.2801" stroke-miterlimit="10"/>
<path d="M470.581 408.15C469.374 408.923 468.502 409.74 467.967 410.599C467.431 411.459 466.911 412.833 466.408 414.722L462.083 431.433C461.647 433.123 461.43 434.369 461.43 435.171C461.43 435.945 461.899 436.89 462.837 438.007H448.358C449.557 437.177 450.432 436.339 450.981 435.493C451.531 434.647 452.041 433.293 452.506 431.431L456.83 414.721C457.281 413.031 457.507 411.787 457.507 410.986C457.507 410.242 457.038 409.298 456.1 408.152H470.581V408.15Z" fill="white" stroke="url(#paint25_linear_22_1672)" stroke-width="0.2801" stroke-miterlimit="10"/>
<path d="M498.493 408.75L497.639 415.066C495.73 412.889 493.265 411.8 490.249 411.8C486.863 411.8 484.047 413.115 481.802 415.747C479.557 418.376 478.432 421.648 478.432 425.557C478.432 428.316 479.17 430.473 480.644 432.026C482.118 433.578 484.181 434.355 486.828 434.355C489.575 434.355 492.912 433.309 496.833 431.219L493.112 436.975C490.329 438.062 487.279 438.608 483.961 438.608C479.1 438.608 475.271 437.477 472.472 435.215C469.674 432.952 468.275 429.859 468.275 425.936C468.275 423.187 468.903 420.559 470.161 418.053C471.419 415.547 473.134 413.464 475.314 411.802C479.066 408.966 483.945 407.549 489.944 407.549C492.863 407.547 495.71 407.95 498.493 408.75Z" fill="white" stroke="url(#paint26_linear_22_1672)" stroke-width="0.2801" stroke-miterlimit="10"/>
<path d="M533.467 419.576C533.467 425.275 531.622 429.871 527.936 433.366C524.249 436.859 519.39 438.608 513.355 438.608C508.863 438.608 505.411 437.57 502.999 435.493C500.585 433.417 499.378 430.432 499.378 426.536C499.378 423.844 499.89 421.252 500.913 418.761C501.935 416.269 503.335 414.179 505.111 412.489C508.563 409.196 513.388 407.549 519.59 407.549C524.115 407.549 527.634 408.639 530.148 410.815C532.36 412.732 533.467 415.653 533.467 419.576ZM523.311 418.288C523.311 413.792 521.701 411.543 518.485 411.543C515.938 411.543 513.775 413.303 511.999 416.828C510.356 420.064 509.536 423.744 509.536 427.869C509.536 429.959 509.972 431.606 510.843 432.809C511.714 434.012 512.888 434.612 514.362 434.612C517.109 434.612 519.339 432.736 521.05 428.984C522.557 425.661 523.311 422.097 523.311 418.288Z" fill="white" stroke="url(#paint27_linear_22_1672)" stroke-width="0.2801" stroke-miterlimit="10"/>
<path d="M518.561 328.036H517.918V323.654L516.385 328.036H515.7L514.171 323.654V328.036H513.522V322.804H514.511L516.051 327.218L517.59 322.804H518.561V328.036Z" fill="black"/>
<path d="M508.847 322.804V323.414H510.498V328.036H511.143V323.414H512.784V322.804H508.847Z" fill="black"/>
<path d="M151.329 550.665L153.03 547.119C154.618 543.812 155.831 540.558 155.831 531.433V508.315H133.054V531.433C133.054 540.555 134.269 543.812 135.857 547.119L137.558 550.665H86.4277L88.1292 547.119C89.7168 543.81 90.9316 540.555 90.9316 531.433V467.448C90.9316 458.325 89.7168 455.067 88.1292 451.76L86.4277 448.214H137.558L135.857 451.76C134.269 455.069 133.054 458.325 133.054 467.448V487.214H155.831V467.448C155.831 458.321 154.616 455.065 153.03 451.76L151.329 448.214H202.455L200.756 451.758C199.168 455.069 197.953 458.327 197.953 467.448V531.433C197.953 540.553 199.168 543.812 200.756 547.121L202.455 550.665H151.329Z" fill="black"/>
<path d="M198.524 450.691C196.697 454.498 195.479 458.156 195.479 467.448V531.433C195.479 540.727 196.697 544.383 198.524 548.191H155.26C157.089 544.383 158.305 540.725 158.305 531.433V505.84H130.579V531.433C130.579 540.727 131.798 544.383 133.627 548.191H90.3605C92.1895 544.383 93.4082 540.725 93.4082 531.433V467.448C93.4082 458.154 92.1895 454.498 90.3605 450.691H133.627C131.798 454.498 130.579 458.156 130.579 467.448V489.691H158.305V467.448C158.305 458.154 157.089 454.498 155.26 450.691H198.524ZM206.386 445.743H198.524H155.26H147.396L150.801 452.834C152.298 455.952 153.358 458.827 153.358 467.45V484.744H135.529V467.45C135.529 458.831 136.591 455.956 138.088 452.834L141.493 445.743H133.629H90.3624H82.4988L85.9037 452.834C87.403 455.956 88.4628 458.831 88.4628 467.45V531.435C88.4628 540.054 87.4011 542.929 85.9037 546.052L82.4988 553.142H90.3624H133.629H141.493L138.088 546.052C136.589 542.929 135.529 540.054 135.529 531.435V510.79H153.358V531.435C153.358 540.058 152.298 542.933 150.801 546.052L147.396 553.142H155.26H198.524H206.386L202.987 546.054C201.49 542.929 200.428 540.052 200.428 531.435V467.45C200.428 458.833 201.488 455.956 202.987 452.832L206.386 445.743Z" fill="black"/>
<path d="M201.466 550.665L203.17 547.119C204.759 543.81 205.974 540.556 205.974 531.433V467.448C205.974 458.323 204.759 455.067 203.17 451.76L201.466 448.214H291.903L295.924 472.963L291.868 471.715C288.031 470.531 284.065 469.311 275.935 469.311H248.091V487.212H272.125C280.099 487.212 284.061 485.994 287.894 484.814L291.356 483.751V511.773L287.91 510.713C284.075 509.53 280.111 508.309 272.125 508.309H248.091V529.563H277.915C286.196 529.563 290.112 528.309 293.897 527.098L297.81 525.844L297.106 529.883L293.391 550.659H201.466V550.665Z" fill="black"/>
<path d="M289.797 450.691L292.843 469.428C288.883 468.21 284.618 466.84 275.934 466.84H245.618V489.691H272.127C280.658 489.691 284.923 488.319 288.883 487.103V508.429C284.923 507.21 280.658 505.84 272.127 505.84H245.618V532.043H277.916C286.598 532.043 290.865 530.674 294.672 529.455L291.32 548.193H205.399C207.228 544.385 208.447 540.727 208.447 531.435V467.45C208.447 458.156 207.228 454.5 205.399 450.693H289.797V450.691ZM294.007 445.743H289.797H205.399H197.535L200.94 452.834C202.44 455.956 203.499 458.831 203.499 467.45V531.435C203.499 540.054 202.438 542.929 200.94 546.052L197.535 553.142H205.399H291.32H295.461L296.191 549.066L299.543 530.328L300.989 522.239L293.163 524.745C289.54 525.905 285.812 527.098 277.915 527.098H250.565V510.792H272.125C279.734 510.792 283.517 511.957 287.175 513.084L287.425 513.16L293.828 515.131V508.431V487.104V480.408L287.427 482.375L287.158 482.457C283.5 483.582 279.72 484.746 272.123 484.746H250.563V471.789H275.932C283.694 471.789 287.48 472.955 291.14 474.083L291.385 474.16L299.003 476.505L297.724 468.638L294.678 449.9L294.007 445.743Z" fill="black"/>
<path d="M295.599 550.665L297.3 547.119C298.888 543.81 300.103 540.555 300.103 531.433V467.448C300.103 458.325 298.888 455.067 297.3 451.76L295.599 448.214H346.729L345.028 451.76C343.44 455.069 342.225 458.325 342.225 467.448V531.433C342.225 540.555 343.44 543.812 345.028 547.119L346.729 550.665H295.599Z" fill="black"/>
<path d="M342.796 450.691C340.967 454.498 339.748 458.156 339.748 467.448V531.433C339.748 540.727 340.967 544.383 342.796 548.191H299.529C301.358 544.383 302.577 540.725 302.577 531.433V467.448C302.577 458.154 301.358 454.498 299.529 450.691H342.796ZM350.66 445.743H342.796H299.529H291.664L295.068 452.834C296.568 455.956 297.628 458.831 297.628 467.45V531.435C297.628 540.054 296.566 542.929 295.068 546.052L291.664 553.142H299.529H342.796H350.66L347.255 546.052C345.755 542.929 344.696 540.054 344.696 531.435V467.45C344.696 458.831 345.757 455.956 347.255 452.834L350.66 445.743Z" fill="black"/>
<path d="M350.275 550.665L345.971 524.017L350.293 526.177C353.784 527.922 357.081 529.57 363.808 529.57H399.763C402.938 529.57 403.921 529.341 404.186 529.147C404.186 529.148 404.186 529.149 404.184 529.149C404.167 529.149 404.294 528.846 404.294 527.781V521.075C404.294 520.013 404.157 519.748 404.139 519.723C403.992 519.613 403.217 519.285 399.763 519.285H369.444C352.865 519.285 346.405 512.654 346.405 495.635V473.85C346.405 457.559 354.802 448.216 369.444 448.216H440.555L444.839 474.113L440.675 472.307C436.388 470.453 433.413 469.315 426.574 469.315H391.991C388.4 469.315 387.623 469.668 387.456 469.819C387.458 469.819 387.307 470.068 387.307 471.104V476.589C387.307 477.679 387.46 477.946 387.468 477.955C387.701 478.132 388.7 478.379 391.993 478.379H418.349C436.418 478.379 445.2 485.617 445.2 500.506V524.272C445.2 542.525 437.248 550.663 419.415 550.663H350.275V550.665Z" fill="black"/>
<path d="M438.457 450.691L441.658 470.039C437.087 468.059 433.733 466.84 426.574 466.84H391.991C386.202 466.84 384.832 467.601 384.832 471.104V476.589C384.832 480.244 386.202 480.854 391.991 480.854H418.347C434.192 480.854 442.723 486.339 442.723 500.506V524.274C442.723 539.66 437.238 548.19 419.413 548.19H352.383L349.184 528.387C352.838 530.214 356.496 532.041 363.808 532.041H399.763C405.552 532.041 406.769 531.431 406.769 527.777V521.073C406.769 517.568 405.552 516.808 399.763 516.808H369.444C354.667 516.808 348.878 511.932 348.878 495.633V473.848C348.878 458.613 356.343 450.691 369.444 450.691H438.457ZM442.653 445.743H438.457H369.444C353.468 445.743 343.93 456.25 343.93 473.848V495.633C343.93 514.189 351.323 521.758 369.444 521.758H399.763C400.663 521.758 401.331 521.779 401.821 521.811V527.053C401.325 527.078 400.658 527.096 399.763 527.096H363.808C357.666 527.096 354.9 525.714 351.399 523.964L342.764 519.648L344.301 529.176L347.5 548.979L348.171 553.138H352.384H419.415C438.694 553.138 447.673 543.965 447.673 524.272V500.504C447.673 484.18 437.807 475.903 418.349 475.903H391.993C391.014 475.903 390.302 475.881 389.781 475.852V471.846C390.294 471.811 391.006 471.785 391.993 471.785H426.576C432.938 471.785 435.576 472.794 439.693 474.576L448.022 478.183L446.54 469.228L443.34 449.88L442.653 445.743Z" fill="black"/>
<path d="M472.166 550.665L473.866 547.121C475.453 543.81 476.668 540.552 476.668 531.433V469.315H462.234C456.052 469.315 453.554 470.461 449.688 472.892L445.114 475.773L449.29 448.216H546.17L550.344 475.771L545.771 472.892C541.905 470.461 539.407 469.315 533.225 469.315H518.791V531.433C518.791 540.558 520.006 543.814 521.591 547.119L523.293 550.665H472.166Z" fill="black"/>
<path d="M544.042 450.691L547.09 470.8C542.976 468.21 540.082 466.84 533.227 466.84H516.318V531.433C516.318 540.727 517.535 544.383 519.364 548.191H476.099C477.926 544.383 479.145 540.725 479.145 531.433V466.84H462.236C455.381 466.84 452.487 468.21 448.373 470.8L451.421 450.691H544.042ZM548.297 445.743H544.042H451.417H447.163L446.525 449.949L443.477 470.058L441.856 480.748L451.005 474.986C454.343 472.884 456.359 471.787 462.232 471.787H474.194V531.433C474.194 540.05 473.134 542.927 471.635 546.052L468.236 553.14H476.097H519.362H527.226L523.821 546.05C522.323 542.931 521.264 540.056 521.264 531.433V471.787H533.225C539.099 471.787 541.114 472.884 544.452 474.986L553.601 480.748L551.98 470.058L548.932 449.949L548.297 445.743Z" fill="black"/>
<path d="M158.305 489.691V467.448C158.305 458.154 157.089 454.498 155.26 450.691H198.524C196.697 454.498 195.479 458.156 195.479 467.448V531.433C195.479 540.727 196.697 544.383 198.524 548.19H155.26C157.089 544.383 158.305 540.725 158.305 531.433V505.84H130.579V531.433C130.579 540.727 131.798 544.383 133.627 548.19H90.3604C92.1894 544.383 93.4081 540.725 93.4081 531.433V467.448C93.4081 458.154 92.1894 454.498 90.3604 450.691H133.627C131.798 454.498 130.579 458.156 130.579 467.448V489.691H158.305Z" fill="black"/>
<path d="M198.524 450.691C196.697 454.498 195.479 458.156 195.479 467.448V531.433C195.479 540.727 196.697 544.383 198.524 548.191H155.26C157.089 544.383 158.305 540.725 158.305 531.433V505.84H130.579V531.433C130.579 540.727 131.798 544.383 133.627 548.191H90.3604C92.1894 544.383 93.4081 540.725 93.4081 531.433V467.448C93.4081 458.154 92.1894 454.498 90.3604 450.691H133.627C131.798 454.498 130.579 458.156 130.579 467.448V489.691H158.305V467.448C158.305 458.154 157.089 454.498 155.26 450.691H198.524ZM200.273 449.592H198.526H155.262H153.513L154.268 451.168C155.933 454.633 157.206 458.032 157.206 467.45V488.592H131.68V467.45C131.68 458.036 132.954 454.635 134.62 451.168L135.376 449.592H133.627H90.3604H88.6118L89.3674 451.168C91.0335 454.635 92.3072 458.036 92.3072 467.45V531.435C92.3072 540.849 91.0335 544.25 89.3674 547.718L88.6118 549.294H90.3604H133.627H135.376L134.62 547.718C132.954 544.25 131.68 540.849 131.68 531.435V506.941H157.206V531.435C157.206 540.853 155.933 544.252 154.268 547.718L153.513 549.294H155.262H198.526H200.273L199.517 547.718C197.853 544.248 196.58 540.845 196.58 531.435V467.45C196.58 458.04 197.853 454.637 199.517 451.168L200.273 449.592Z" fill="url(#paint28_linear_22_1672)"/>
<path d="M277.916 532.043C286.598 532.043 290.865 530.674 294.672 529.455L291.32 548.193H205.399C207.228 544.385 208.447 540.727 208.447 531.435V467.45C208.447 458.156 207.228 454.5 205.399 450.693H289.797L292.843 469.43C288.883 468.212 284.618 466.842 275.934 466.842H245.618V489.693H272.127C280.658 489.693 284.922 488.321 288.883 487.105V508.431C284.922 507.212 280.658 505.842 272.127 505.842H245.618V532.045H277.916V532.043Z" fill="black"/>
<path d="M289.797 450.691L292.843 469.428C288.883 468.21 284.618 466.84 275.934 466.84H245.618V489.691H272.127C280.658 489.691 284.922 488.319 288.883 487.103V508.429C284.922 507.21 280.658 505.84 272.127 505.84H245.618V532.043H277.916C286.598 532.043 290.865 530.674 294.672 529.455L291.32 548.193H205.399C207.228 544.385 208.447 540.727 208.447 531.435V467.45C208.447 458.156 207.228 454.5 205.399 450.693H289.797V450.691ZM290.733 449.592H289.797H205.399H203.65L204.406 451.168C206.072 454.635 207.346 458.036 207.346 467.45V531.435C207.346 540.849 206.072 544.25 204.406 547.718L203.65 549.294H205.399H291.32H292.24L292.403 548.387L295.755 529.649L296.077 527.851L294.338 528.409C290.616 529.6 286.416 530.946 277.916 530.946H246.719V506.943H272.127C280.315 506.943 284.379 508.195 288.312 509.406L288.561 509.483L289.984 509.92V508.431V487.104V485.617L288.561 486.055L288.294 486.137C284.365 487.346 280.303 488.596 272.127 488.596H246.719V467.943H275.936C284.277 467.943 288.343 469.195 292.278 470.408L292.523 470.482L294.217 471.002L293.932 469.254L290.886 450.516L290.733 449.592Z" fill="url(#paint29_linear_22_1672)"/>
<path d="M299.529 548.19C301.358 544.383 302.577 540.725 302.577 531.433V467.448C302.577 458.154 301.358 454.498 299.529 450.691H342.796C340.967 454.498 339.748 458.156 339.748 467.448V531.433C339.748 540.727 340.967 544.383 342.796 548.19H299.529Z" fill="black"/>
<path d="M342.796 450.691C340.967 454.498 339.748 458.156 339.748 467.448V531.433C339.748 540.727 340.967 544.383 342.796 548.191H299.529C301.358 544.383 302.577 540.725 302.577 531.433V467.448C302.577 458.154 301.358 454.498 299.529 450.691H342.796ZM344.544 449.592H342.796H299.529H297.781L298.536 451.168C300.202 454.635 301.476 458.036 301.476 467.45V531.435C301.476 540.849 300.202 544.25 298.536 547.718L297.781 549.294H299.529H342.796H344.544L343.789 547.718C342.123 544.25 340.849 540.849 340.849 531.435V467.45C340.849 458.036 342.123 454.635 343.789 451.168L344.544 449.592Z" fill="url(#paint30_linear_22_1672)"/>
<path d="M441.658 470.039C437.087 468.059 433.733 466.84 426.574 466.84H391.991C386.202 466.84 384.832 467.601 384.832 471.104V476.59C384.832 480.244 386.202 480.854 391.991 480.854H418.347C434.192 480.854 442.723 486.339 442.723 500.506V524.274C442.723 539.659 437.238 548.19 419.413 548.19H352.383L349.184 528.387C352.838 530.214 356.496 532.041 363.808 532.041H399.763C405.552 532.041 406.769 531.431 406.769 527.777V521.073C406.769 517.568 405.552 516.808 399.763 516.808H369.444C354.667 516.808 348.878 511.932 348.878 495.633V473.848C348.878 458.613 356.343 450.691 369.444 450.691H438.457L441.658 470.039Z" fill="black"/>
<path d="M438.457 450.691L441.658 470.039C437.087 468.059 433.733 466.84 426.574 466.84H391.991C386.202 466.84 384.832 467.601 384.832 471.104V476.589C384.832 480.244 386.202 480.854 391.991 480.854H418.347C434.192 480.854 442.723 486.339 442.723 500.506V524.274C442.723 539.66 437.238 548.19 419.413 548.19H352.383L349.184 528.387C352.838 530.214 356.496 532.041 363.808 532.041H399.763C405.552 532.041 406.769 531.431 406.769 527.777V521.073C406.769 517.568 405.552 516.808 399.763 516.808H369.444C354.667 516.808 348.878 511.932 348.878 495.633V473.848C348.878 458.613 356.343 450.691 369.444 450.691H438.457ZM439.389 449.592H438.457H369.444C355.474 449.592 347.779 458.207 347.779 473.848V495.633C347.779 512.079 353.448 517.909 369.444 517.909H399.763C405.67 517.909 405.67 518.706 405.67 521.075V527.779C405.67 530.273 405.67 530.944 399.763 530.944H363.808C356.757 530.944 353.319 529.225 349.678 527.406L347.759 526.446L348.099 528.562L351.297 548.365L351.447 549.289H352.383H419.413C436.522 549.289 443.822 541.808 443.822 524.272V500.504C443.822 486.345 435.727 479.751 418.347 479.751H391.991C385.931 479.751 385.931 479.017 385.931 476.586V471.1C385.931 468.861 385.931 467.935 391.991 467.935H426.574C433.541 467.935 436.755 469.109 441.22 471.044L443.071 471.844L442.741 469.854L439.54 450.506L439.389 449.592Z" fill="url(#paint31_linear_22_1672)"/>
<path d="M544.042 450.691L547.09 470.8C542.977 468.21 540.082 466.84 533.227 466.84H516.318V531.433C516.318 540.727 517.535 544.383 519.364 548.19H476.099C477.926 544.383 479.145 540.725 479.145 531.433V466.84H462.236C455.381 466.84 452.487 468.21 448.373 470.8L451.421 450.691H544.042Z" fill="black"/>
<path d="M544.042 450.691L547.09 470.8C542.977 468.21 540.082 466.84 533.227 466.84H516.318V531.433C516.318 540.727 517.535 544.383 519.364 548.191H476.099C477.926 544.383 479.145 540.725 479.145 531.433V466.84H462.236C455.381 466.84 452.487 468.21 448.373 470.8L451.421 450.691H544.042ZM544.986 449.592H544.04H451.417H450.471L450.33 450.526L447.282 470.635L446.923 473.012L448.956 471.732C453.048 469.156 455.691 467.941 462.234 467.941H478.044V531.435C478.044 540.845 476.77 544.248 475.106 547.718L474.351 549.294H476.097H519.362H521.111L520.355 547.718C518.691 544.252 517.417 540.853 517.417 531.435V467.941H533.227C539.768 467.941 542.413 469.156 546.505 471.732L548.538 473.012L548.179 470.635L545.131 450.526L544.986 449.592Z" fill="url(#paint32_linear_22_1672)"/>
<path d="M158.305 489.691V467.448C158.305 458.154 157.089 454.498 155.26 450.691H198.524C196.697 454.498 195.479 458.156 195.479 467.448V531.433C195.479 540.727 196.697 544.383 198.524 548.19H155.26C157.089 544.383 158.305 540.725 158.305 531.433V505.84H130.579V531.433C130.579 540.727 131.798 544.383 133.627 548.19H90.3604C92.1894 544.383 93.4081 540.725 93.4081 531.433V467.448C93.4081 458.154 92.1894 454.498 90.3604 450.691H133.627C131.798 454.498 130.579 458.156 130.579 467.448V489.691H158.305Z" fill="url(#paint33_linear_22_1672)"/>
<path d="M277.916 532.043C286.598 532.043 290.865 530.674 294.672 529.455L291.32 548.193H205.399C207.228 544.385 208.447 540.727 208.447 531.435V467.45C208.447 458.156 207.228 454.5 205.399 450.693H289.797L292.843 469.431C288.883 468.212 284.618 466.842 275.934 466.842H245.618V489.693H272.127C280.658 489.693 284.922 488.321 288.883 487.105V508.431C284.922 507.212 280.658 505.842 272.127 505.842H245.618V532.045H277.916V532.043Z" fill="url(#paint34_linear_22_1672)"/>
<path d="M299.529 548.19C301.358 544.383 302.577 540.725 302.577 531.433V467.448C302.577 458.154 301.358 454.498 299.529 450.691H342.796C340.967 454.498 339.748 458.156 339.748 467.448V531.433C339.748 540.727 340.967 544.383 342.796 548.19H299.529Z" fill="url(#paint35_linear_22_1672)"/>
<path d="M441.658 470.039C437.087 468.059 433.733 466.84 426.574 466.84H391.991C386.202 466.84 384.832 467.601 384.832 471.104V476.59C384.832 480.244 386.202 480.854 391.991 480.854H418.348C434.193 480.854 442.724 486.339 442.724 500.506V524.274C442.724 539.659 437.238 548.19 419.413 548.19H352.383L349.184 528.387C352.838 530.214 356.496 532.041 363.808 532.041H399.763C405.552 532.041 406.769 531.431 406.769 527.777V521.073C406.769 517.568 405.552 516.808 399.763 516.808H369.444C354.667 516.808 348.878 511.932 348.878 495.633V473.848C348.878 458.613 356.343 450.691 369.444 450.691H438.457L441.658 470.039Z" fill="url(#paint36_linear_22_1672)"/>
<path d="M544.042 450.691L547.09 470.8C542.977 468.21 540.082 466.84 533.227 466.84H516.318V531.433C516.318 540.727 517.535 544.383 519.364 548.19H476.099C477.926 544.383 479.145 540.725 479.145 531.433V466.84H462.236C455.382 466.84 452.487 468.21 448.374 470.8L451.421 450.691H544.042Z" fill="url(#paint37_linear_22_1672)"/>
<path d="M158.305 489.691V467.448C158.305 458.154 157.089 454.498 155.26 450.691H198.524C196.697 454.498 195.479 458.156 195.479 467.448V531.433C195.479 540.727 196.697 544.383 198.524 548.19H155.26C157.089 544.383 158.305 540.725 158.305 531.433V505.84H130.579V531.433C130.579 540.727 131.798 544.383 133.627 548.19H90.3604C92.1894 544.383 93.4081 540.725 93.4081 531.433V467.448C93.4081 458.154 92.1894 454.498 90.3604 450.691H133.627C131.798 454.498 130.579 458.156 130.579 467.448V489.691H158.305Z" fill="url(#paint38_linear_22_1672)"/>
<path d="M277.916 532.043C286.598 532.043 290.865 530.674 294.672 529.455L291.32 548.193H205.399C207.228 544.385 208.447 540.727 208.447 531.435V467.45C208.447 458.156 207.228 454.5 205.399 450.693H289.797L292.843 469.431C288.883 468.212 284.618 466.842 275.934 466.842H245.618V489.693H272.127C280.658 489.693 284.922 488.321 288.883 487.105V508.431C284.922 507.212 280.658 505.842 272.127 505.842H245.618V532.045H277.916V532.043Z" fill="url(#paint39_linear_22_1672)"/>
<path d="M299.529 548.19C301.358 544.383 302.577 540.725 302.577 531.433V467.448C302.577 458.154 301.358 454.498 299.529 450.691H342.796C340.967 454.498 339.748 458.156 339.748 467.448V531.433C339.748 540.727 340.967 544.383 342.796 548.19H299.529Z" fill="url(#paint40_linear_22_1672)"/>
<path d="M441.658 470.039C437.087 468.059 433.733 466.84 426.574 466.84H391.991C386.202 466.84 384.832 467.601 384.832 471.104V476.59C384.832 480.244 386.202 480.854 391.991 480.854H418.348C434.193 480.854 442.724 486.339 442.724 500.506V524.274C442.724 539.659 437.238 548.19 419.413 548.19H352.383L349.184 528.387C352.838 530.214 356.496 532.041 363.808 532.041H399.763C405.552 532.041 406.769 531.431 406.769 527.777V521.073C406.769 517.568 405.552 516.808 399.763 516.808H369.444C354.667 516.808 348.878 511.932 348.878 495.633V473.848C348.878 458.613 356.343 450.691 369.444 450.691H438.457L441.658 470.039Z" fill="url(#paint41_linear_22_1672)"/>
<path d="M544.042 450.691L547.09 470.8C542.977 468.21 540.082 466.84 533.227 466.84H516.318V531.433C516.318 540.727 517.535 544.383 519.364 548.19H476.099C477.926 544.383 479.145 540.725 479.145 531.433V466.84H462.236C455.382 466.84 452.487 468.21 448.374 470.8L451.421 450.691H544.042Z" fill="url(#paint42_linear_22_1672)"/>
<path d="M198.177 450.911C196.513 454.429 195.261 458.04 195.261 467.448V531.433C195.261 540.841 196.515 544.452 198.177 547.971H155.609C157.273 544.456 158.525 540.847 158.525 531.433V505.84V505.62H158.305H130.579H130.36V505.84V531.433C130.36 540.843 131.614 544.454 133.278 547.971H90.7077C92.3719 544.454 93.6259 540.843 93.6259 531.433V467.448C93.6259 458.038 92.3719 454.427 90.7077 450.911H133.278C131.614 454.427 130.36 458.038 130.36 467.448V489.691V489.911H130.579H158.305H158.525V489.691V467.448C158.525 458.034 157.271 454.423 155.609 450.911H198.177ZM198.524 450.691H155.26C157.089 454.498 158.305 458.156 158.305 467.448V489.691H130.579V467.448C130.579 458.154 131.798 454.498 133.627 450.691H90.3604C92.1894 454.498 93.4081 458.156 93.4081 467.448V531.433C93.4081 540.727 92.1894 544.383 90.3604 548.19H133.627C131.798 544.383 130.579 540.725 130.579 531.433V505.84H158.305V531.433C158.305 540.727 157.089 544.383 155.26 548.19H198.524C196.697 544.383 195.479 540.725 195.479 531.433V467.448C195.481 458.156 196.699 454.498 198.524 450.691Z" fill="white"/>
<path d="M289.611 450.911L292.57 469.114C288.753 467.939 284.404 466.62 275.934 466.62H245.618H245.398V466.84V489.691V489.911H245.618H272.127C280.487 489.911 284.832 488.578 288.663 487.399V508.13C284.834 506.951 280.487 505.62 272.127 505.62H245.618H245.398V505.84V532.043V532.263H245.618H277.916C286.357 532.263 290.661 530.968 294.391 529.775L291.138 547.971H205.748C207.412 544.454 208.666 540.843 208.666 531.433V467.448C208.666 458.038 207.412 454.427 205.748 450.911H289.611ZM289.797 450.691H205.399C207.228 454.498 208.447 458.156 208.447 467.448V531.433C208.447 540.727 207.228 544.383 205.399 548.19H291.32L294.672 529.453C290.865 530.671 286.598 532.041 277.916 532.041H245.618V505.838H272.127C280.658 505.838 284.922 507.208 288.883 508.427V487.101C284.922 488.317 280.658 489.689 272.127 489.689H245.618V466.838H275.934C284.618 466.838 288.883 468.208 292.843 469.427L289.797 450.691Z" fill="white"/>
<path d="M342.446 450.911C340.782 454.427 339.528 458.038 339.528 467.448V531.433C339.528 540.843 340.782 544.454 342.446 547.971H299.876C301.541 544.454 302.795 540.843 302.795 531.433V467.448C302.795 458.038 301.541 454.427 299.876 450.911H342.446ZM342.796 450.691H299.529C301.358 454.498 302.577 458.156 302.577 467.448V531.433C302.577 540.727 301.358 544.383 299.529 548.19H342.796C340.967 544.383 339.748 540.725 339.748 531.433V467.448C339.748 458.156 340.967 454.498 342.796 450.691Z" fill="white"/>
<path d="M438.271 450.911L441.375 469.676C436.942 467.77 433.604 466.618 426.574 466.618H391.991C386.061 466.618 384.612 467.497 384.612 471.102V476.588C384.612 480.483 386.275 481.072 391.991 481.072H418.348C435.054 481.072 442.504 487.065 442.504 500.504V524.272C442.504 541.104 435.814 547.969 419.413 547.969H352.569L349.468 528.774C352.971 530.52 356.704 532.261 363.806 532.261H399.761C405.448 532.261 406.987 531.704 406.987 527.777V521.073C406.987 517.427 405.637 516.589 399.761 516.589H369.444C354.231 516.589 349.097 511.3 349.097 495.633V473.848C349.097 459.057 356.323 450.911 369.444 450.911H438.271ZM438.457 450.691H369.444C356.343 450.691 348.878 458.611 348.878 473.848V495.633C348.878 511.934 354.667 516.808 369.444 516.808H399.763C405.552 516.808 406.769 517.568 406.769 521.073V527.777C406.769 531.431 405.552 532.041 399.763 532.041H363.808C356.496 532.041 352.84 530.212 349.184 528.387L352.383 548.19H419.413C437.238 548.19 442.724 539.659 442.724 524.274V500.506C442.724 486.339 434.193 480.854 418.348 480.854H391.991C386.202 480.854 384.832 480.244 384.832 476.59V471.104C384.832 467.601 386.202 466.84 391.991 466.84H426.574C433.733 466.84 437.087 468.059 441.658 470.039L438.457 450.691Z" fill="white"/>
<path d="M543.852 450.911L546.799 470.359C543.053 468.025 540.103 466.618 533.225 466.618H516.316H516.097V466.838V531.431C516.097 540.845 517.351 544.456 519.013 547.969H476.445C478.109 544.45 479.361 540.839 479.361 531.431V466.838V466.618H479.141H462.232C455.354 466.618 452.404 468.025 448.658 470.359L451.606 450.911H543.852ZM544.042 450.691H451.417L448.369 470.8C452.483 468.21 455.377 466.84 462.232 466.84H479.141V531.433C479.141 540.727 477.922 544.383 476.095 548.19H519.36C517.531 544.383 516.314 540.725 516.314 531.433V466.84H533.223C540.078 466.84 542.973 468.21 547.086 470.8L544.042 450.691Z" fill="white"/>
<path d="M333.074 368.657H303.601C303.486 368.657 303.382 368.555 303.382 368.439V326.071C303.382 324.321 301.957 322.898 300.206 322.898H286.328C284.577 322.898 283.154 324.323 283.154 326.071V383.758C283.154 385.509 284.577 386.932 286.328 386.932H333.072C334.822 386.932 336.247 385.507 336.247 383.758V371.831C336.249 370.08 334.824 368.657 333.074 368.657Z" fill="url(#paint43_linear_22_1672)"/>
<path d="M198.828 322.896H153.499C148.338 322.896 144.14 327.094 144.14 332.255V377.573C144.14 382.734 148.338 386.932 153.499 386.932H198.828C203.99 386.932 208.188 382.734 208.188 377.573V332.255C208.188 327.096 203.99 322.896 198.828 322.896ZM187.958 366.687C187.958 367.77 187.071 368.657 185.988 368.657H166.34C165.256 368.657 164.369 367.77 164.369 366.687V342.378C164.369 341.294 165.256 340.407 166.34 340.407H185.988C187.071 340.407 187.958 341.294 187.958 342.378V366.687Z" fill="url(#paint44_linear_22_1672)"/>
<path d="M273.254 322.896H260.391C258.641 322.896 257.216 324.319 257.216 326.069V351.499L230.356 324.533C229.425 323.601 227.732 322.896 226.415 322.896H218.016C216.265 322.896 214.842 324.319 214.842 326.069V383.756C214.842 385.507 216.265 386.932 218.016 386.932H230.874C232.624 386.932 234.047 385.507 234.047 383.756V358.213L260.904 385.291C261.83 386.227 263.524 386.932 264.842 386.932H273.254C275.004 386.932 276.429 385.507 276.429 383.756V326.069C276.427 324.321 275.004 322.896 273.254 322.896Z" fill="url(#paint45_linear_22_1672)"/>
<path d="M490.135 340.407C491.885 340.407 493.31 338.983 493.31 337.232V326.069C493.31 324.319 491.885 322.896 490.135 322.896H441.183C439.432 322.896 438.01 324.319 438.01 326.069V383.756C438.01 385.507 439.434 386.932 441.183 386.932H490.135C491.885 386.932 493.31 385.507 493.31 383.756V371.831C493.31 370.08 491.885 368.655 490.135 368.655H458.237V363.243H475.416C477.167 363.243 478.59 361.82 478.59 360.069V348.913C478.59 347.162 477.165 345.737 475.416 345.737H458.237V340.405H490.135V340.407Z" fill="url(#paint46_linear_22_1672)"/>
<path d="M428.181 322.896H415.317C413.567 322.896 412.142 324.319 412.142 326.069V351.499L385.282 324.535C384.353 323.601 382.66 322.896 381.341 322.896H372.944C371.193 322.896 369.768 324.319 369.768 326.069V383.756C369.768 385.507 371.193 386.932 372.944 386.932H385.8C387.55 386.932 388.975 385.507 388.975 383.756V358.213L415.832 385.293C416.76 386.227 418.453 386.932 419.77 386.932H428.181C429.932 386.932 431.355 385.507 431.355 383.756V326.069C431.355 324.321 429.93 322.896 428.181 322.896Z" fill="url(#paint47_linear_22_1672)"/>
<path d="M359.885 322.896H346.005C344.254 322.896 342.829 324.321 342.829 326.069V383.756C342.829 385.507 344.254 386.93 346.005 386.93H359.885C361.636 386.93 363.061 385.505 363.061 383.756V326.069C363.061 324.321 361.638 322.896 359.885 322.896Z" fill="url(#paint48_linear_22_1672)"/>
<g opacity="0.6">
<g opacity="0.6">
<g opacity="0.6">
<g opacity="0.6">
<path opacity="0.6" d="M300.208 323.612C301.564 323.612 302.669 324.715 302.669 326.071V368.439C302.669 368.953 303.089 369.371 303.603 369.371H333.076C334.432 369.371 335.537 370.474 335.537 371.83V383.758C335.537 385.114 334.434 386.217 333.076 386.217H286.332C284.975 386.217 283.873 385.114 283.873 383.758V326.071C283.873 324.715 284.975 323.612 286.332 323.612H300.208ZM300.208 322.896H286.33C284.579 322.896 283.156 324.321 283.156 326.069V383.756C283.156 385.507 284.579 386.93 286.33 386.93H333.074C334.824 386.93 336.249 385.505 336.249 383.756V371.828C336.249 370.078 334.824 368.655 333.074 368.655H303.601C303.486 368.655 303.382 368.553 303.382 368.437V326.069C303.382 324.321 301.959 322.896 300.208 322.896Z" fill="white"/>
</g>
<g opacity="0.6">
<path opacity="0.6" d="M198.828 323.612C203.595 323.612 207.473 327.49 207.473 332.257V377.575C207.473 382.342 203.595 386.219 198.828 386.219H153.499C148.732 386.219 144.854 382.342 144.854 377.575V332.257C144.854 327.49 148.732 323.612 153.499 323.612H198.828ZM166.34 369.372H185.988C187.468 369.372 188.673 368.167 188.673 366.687V342.378C188.673 340.898 187.468 339.693 185.988 339.693H166.34C164.86 339.693 163.655 340.898 163.655 342.378V366.687C163.655 368.167 164.86 369.372 166.34 369.372ZM198.828 322.896H153.499C148.338 322.896 144.14 327.094 144.14 332.255V377.573C144.14 382.734 148.338 386.932 153.499 386.932H198.828C203.99 386.932 208.188 382.734 208.188 377.573V332.255C208.188 327.096 203.99 322.896 198.828 322.896ZM166.34 368.657C165.256 368.657 164.369 367.77 164.369 366.687V342.378C164.369 341.294 165.256 340.407 166.34 340.407H185.988C187.071 340.407 187.958 341.294 187.958 342.378V366.687C187.958 367.77 187.071 368.657 185.988 368.657H166.34Z" fill="white"/>
</g>
<g opacity="0.6">
<path opacity="0.6" d="M273.254 323.612C274.61 323.612 275.714 324.715 275.714 326.071V383.758C275.714 385.115 274.612 386.219 273.254 386.219H264.842C263.712 386.219 262.205 385.591 261.41 384.791L234.553 357.712L233.331 356.48V358.215V383.758C233.331 385.115 232.228 386.219 230.872 386.219H218.014C216.658 386.219 215.555 385.116 215.555 383.758V326.069C215.555 324.713 216.658 323.61 218.014 323.61H226.413C227.541 323.61 229.051 324.236 229.847 325.037L256.708 352.004L257.929 353.23V351.499V326.069C257.929 324.713 259.031 323.61 260.389 323.61H273.254V323.612ZM273.254 322.896H260.391C258.641 322.896 257.216 324.319 257.216 326.069V351.499L230.356 324.533C229.425 323.601 227.732 322.896 226.415 322.896H218.016C216.265 322.896 214.842 324.319 214.842 326.069V383.756C214.842 385.507 216.265 386.932 218.016 386.932H230.874C232.624 386.932 234.047 385.507 234.047 383.756V358.213L260.904 385.291C261.83 386.227 263.524 386.932 264.842 386.932H273.254C275.004 386.932 276.429 385.507 276.429 383.756V326.069C276.427 324.319 275.004 322.896 273.254 322.896Z" fill="white"/>
</g>
<g opacity="0.6">
<path opacity="0.6" d="M490.135 323.612C491.491 323.612 492.596 324.715 492.596 326.071V337.234C492.596 338.59 491.493 339.695 490.135 339.695H458.237H457.522V340.409V345.741V346.456H458.237H475.416C476.772 346.456 477.875 347.559 477.875 348.917V360.075C477.875 361.431 476.772 362.534 475.416 362.534H458.237H457.522V363.249V368.661V369.375H458.237H490.135C491.491 369.375 492.596 370.478 492.596 371.836V383.762C492.596 385.118 491.493 386.223 490.135 386.223H441.183C439.827 386.223 438.724 385.12 438.724 383.762V326.069C438.724 324.713 439.827 323.61 441.183 323.61H490.135V323.612ZM490.135 322.896H441.183C439.432 322.896 438.01 324.319 438.01 326.069V383.756C438.01 385.507 439.434 386.932 441.183 386.932H490.135C491.885 386.932 493.31 385.507 493.31 383.756V371.831C493.31 370.08 491.885 368.655 490.135 368.655H458.237V363.243H475.416C477.167 363.243 478.59 361.82 478.59 360.069V348.913C478.59 347.162 477.165 345.737 475.416 345.737H458.237V340.405H490.135C491.885 340.405 493.31 338.981 493.31 337.23V326.067C493.31 324.319 491.885 322.896 490.135 322.896Z" fill="white"/>
</g>
<g opacity="0.6">
<path opacity="0.6" d="M428.182 323.612C429.538 323.612 430.64 324.715 430.64 326.071V383.758C430.64 385.115 429.538 386.219 428.182 386.219H419.77C418.642 386.219 417.133 385.591 416.338 384.793L389.481 357.712L388.259 356.48V358.215V383.758C388.259 385.115 387.156 386.219 385.798 386.219H372.942C371.586 386.219 370.481 385.116 370.481 383.758V326.069C370.481 324.713 371.584 323.61 372.942 323.61H381.339C382.469 323.61 383.979 324.236 384.773 325.039L411.634 352.004L412.855 353.23V351.499V326.069C412.855 324.713 413.957 323.61 415.316 323.61H428.182V323.612ZM428.182 322.896H415.317C413.567 322.896 412.142 324.319 412.142 326.069V351.499L385.282 324.535C384.353 323.601 382.66 322.896 381.341 322.896H372.944C371.193 322.896 369.768 324.319 369.768 326.069V383.756C369.768 385.507 371.193 386.932 372.944 386.932H385.8C387.55 386.932 388.975 385.507 388.975 383.756V358.213L415.832 385.293C416.76 386.227 418.453 386.932 419.77 386.932H428.182C429.932 386.932 431.355 385.507 431.355 383.756V326.069C431.353 324.319 429.93 322.896 428.182 322.896Z" fill="white"/>
</g>
<g opacity="0.6">
<path opacity="0.6" d="M359.885 323.612C361.241 323.612 362.346 324.715 362.346 326.071V383.758C362.346 385.114 361.243 386.217 359.885 386.217H346.005C344.649 386.217 343.544 385.114 343.544 383.758V326.071C343.544 324.715 344.647 323.612 346.005 323.612H359.885ZM359.885 322.896H346.005C344.254 322.896 342.829 324.321 342.829 326.069V383.756C342.829 385.507 344.254 386.93 346.005 386.93H359.885C361.636 386.93 363.061 385.505 363.061 383.756V326.069C363.061 324.321 361.638 322.896 359.885 322.896Z" fill="white"/>
</g>
</g>
</g>
</g>
<path d="M333.074 368.657H303.601C303.486 368.657 303.382 368.555 303.382 368.439V326.071C303.382 324.321 301.957 322.898 300.206 322.898H286.328C284.577 322.898 283.154 324.323 283.154 326.071V383.758C283.154 385.509 284.577 386.932 286.328 386.932H333.072C334.822 386.932 336.247 385.507 336.247 383.758V371.831C336.249 370.08 334.824 368.657 333.074 368.657Z" stroke="url(#paint49_linear_22_1672)" stroke-width="0.4202" stroke-miterlimit="10"/>
<path d="M198.828 322.896H153.499C148.338 322.896 144.14 327.094 144.14 332.255V377.573C144.14 382.734 148.338 386.932 153.499 386.932H198.828C203.99 386.932 208.188 382.734 208.188 377.573V332.255C208.188 327.096 203.99 322.896 198.828 322.896ZM187.958 366.687C187.958 367.77 187.071 368.657 185.988 368.657H166.34C165.256 368.657 164.369 367.77 164.369 366.687V342.378C164.369 341.294 165.256 340.407 166.34 340.407H185.988C187.071 340.407 187.958 341.294 187.958 342.378V366.687Z" stroke="url(#paint50_linear_22_1672)" stroke-width="0.4202" stroke-miterlimit="10"/>
<path d="M273.254 322.896H260.391C258.641 322.896 257.216 324.319 257.216 326.069V351.499L230.356 324.533C229.425 323.601 227.732 322.896 226.415 322.896H218.016C216.265 322.896 214.842 324.319 214.842 326.069V383.756C214.842 385.507 216.265 386.932 218.016 386.932H230.874C232.624 386.932 234.047 385.507 234.047 383.756V358.213L260.904 385.291C261.83 386.227 263.524 386.932 264.842 386.932H273.254C275.004 386.932 276.429 385.507 276.429 383.756V326.069C276.427 324.321 275.004 322.896 273.254 322.896Z" stroke="url(#paint51_linear_22_1672)" stroke-width="0.4202" stroke-miterlimit="10"/>
<path d="M490.135 340.407C491.885 340.407 493.31 338.983 493.31 337.232V326.069C493.31 324.319 491.885 322.896 490.135 322.896H441.183C439.432 322.896 438.01 324.319 438.01 326.069V383.756C438.01 385.507 439.434 386.932 441.183 386.932H490.135C491.885 386.932 493.31 385.507 493.31 383.756V371.831C493.31 370.08 491.885 368.655 490.135 368.655H458.237V363.243H475.416C477.167 363.243 478.59 361.82 478.59 360.069V348.913C478.59 347.162 477.165 345.737 475.416 345.737H458.237V340.405H490.135V340.407Z" stroke="url(#paint52_linear_22_1672)" stroke-width="0.4202" stroke-miterlimit="10"/>
<path d="M428.182 322.896H415.317C413.567 322.896 412.142 324.319 412.142 326.069V351.499L385.282 324.535C384.353 323.601 382.66 322.896 381.341 322.896H372.944C371.193 322.896 369.768 324.319 369.768 326.069V383.756C369.768 385.507 371.193 386.932 372.944 386.932H385.8C387.55 386.932 388.975 385.507 388.975 383.756V358.213L415.832 385.293C416.76 386.227 418.453 386.932 419.77 386.932H428.182C429.932 386.932 431.355 385.507 431.355 383.756V326.069C431.355 324.321 429.93 322.896 428.182 322.896Z" stroke="url(#paint53_linear_22_1672)" stroke-width="0.4202" stroke-miterlimit="10"/>
<path d="M359.885 322.896H346.005C344.254 322.896 342.829 324.321 342.829 326.069V383.756C342.829 385.507 344.254 386.93 346.005 386.93H359.885C361.636 386.93 363.061 385.505 363.061 383.756V326.069C363.061 324.321 361.638 322.896 359.885 322.896Z" stroke="url(#paint54_linear_22_1672)" stroke-width="0.4202" stroke-miterlimit="10"/>
<defs>
<linearGradient id="paint0_linear_22_1672" x1="-0.0041212" y1="287.499" x2="637.455" y2="287.499" gradientUnits="userSpaceOnUse">
<stop stop-color="#FFA61D"/>
<stop offset="0.1614" stop-color="#FFC34C"/>
<stop offset="0.2547" stop-color="#FFD162"/>
<stop offset="0.3559" stop-color="#FFD86D"/>
<stop offset="0.4853" stop-color="#FFDE77"/>
<stop offset="0.5678" stop-color="#FFD76A"/>
<stop offset="0.7193" stop-color="#FFC649"/>
<stop offset="0.7539" stop-color="#FFC140"/>
<stop offset="0.9743" stop-color="#F89945"/>
<stop offset="1" stop-color="#F69046"/>
</linearGradient>
<linearGradient id="paint1_linear_22_1672" x1="398.722" y1="62.3773" x2="456.864" y2="62.3773" gradientUnits="userSpaceOnUse">
<stop stop-color="#724929"/>
<stop offset="0.143" stop-color="#976B35"/>
<stop offset="0.4325" stop-color="#EDB950"/>
<stop offset="0.6866" stop-color="#F9EBAC"/>
<stop offset="0.7567" stop-color="#EEDD9F"/>
<stop offset="0.8897" stop-color="#D0B77E"/>
<stop offset="1" stop-color="#B4935F"/>
</linearGradient>
<linearGradient id="paint2_linear_22_1672" x1="145.338" y1="85.4609" x2="203.461" y2="85.4609" gradientUnits="userSpaceOnUse">
<stop stop-color="#724929"/>
<stop offset="0.143" stop-color="#976B35"/>
<stop offset="0.4325" stop-color="#EDB950"/>
<stop offset="0.6866" stop-color="#F9EBAC"/>
<stop offset="0.7567" stop-color="#EEDD9F"/>
<stop offset="0.8897" stop-color="#D0B77E"/>
<stop offset="1" stop-color="#B4935F"/>
</linearGradient>
<linearGradient id="paint3_linear_22_1672" x1="335.528" y1="72.6775" x2="393.234" y2="72.6775" gradientUnits="userSpaceOnUse">
<stop stop-color="#724929"/>
<stop offset="0.143" stop-color="#976B35"/>
<stop offset="0.4325" stop-color="#EDB950"/>
<stop offset="0.6866" stop-color="#F9EBAC"/>
<stop offset="0.7567" stop-color="#EEDD9F"/>
<stop offset="0.8897" stop-color="#D0B77E"/>
<stop offset="1" stop-color="#B4935F"/>
</linearGradient>
<linearGradient id="paint4_linear_22_1672" x1="460.279" y1="178.582" x2="524.303" y2="178.582" gradientUnits="userSpaceOnUse">
<stop stop-color="#724929"/>
<stop offset="0.143" stop-color="#976B35"/>
<stop offset="0.4325" stop-color="#EDB950"/>
<stop offset="0.6866" stop-color="#F9EBAC"/>
<stop offset="0.7567" stop-color="#EEDD9F"/>
<stop offset="0.8897" stop-color="#D0B77E"/>
<stop offset="1" stop-color="#B4935F"/>
</linearGradient>
<linearGradient id="paint5_linear_22_1672" x1="399.211" y1="180.477" x2="457.338" y2="180.477" gradientUnits="userSpaceOnUse">
<stop stop-color="#724929"/>
<stop offset="0.143" stop-color="#976B35"/>
<stop offset="0.4325" stop-color="#EDB950"/>
<stop offset="0.6866" stop-color="#F9EBAC"/>
<stop offset="0.7567" stop-color="#EEDD9F"/>
<stop offset="0.8897" stop-color="#D0B77E"/>
<stop offset="1" stop-color="#B4935F"/>
</linearGradient>
<linearGradient id="paint6_linear_22_1672" x1="335.846" y1="180.479" x2="393.668" y2="180.479" gradientUnits="userSpaceOnUse">
<stop stop-color="#724929"/>
<stop offset="0.143" stop-color="#976B35"/>
<stop offset="0.4325" stop-color="#EDB950"/>
<stop offset="0.6866" stop-color="#F9EBAC"/>
<stop offset="0.7567" stop-color="#EEDD9F"/>
<stop offset="0.8897" stop-color="#D0B77E"/>
<stop offset="1" stop-color="#B4935F"/>
</linearGradient>
<linearGradient id="paint7_linear_22_1672" x1="203.167" y1="178.444" x2="267.234" y2="178.444" gradientUnits="userSpaceOnUse">
<stop stop-color="#724929"/>
<stop offset="0.143" stop-color="#976B35"/>
<stop offset="0.4325" stop-color="#EDB950"/>
<stop offset="0.6866" stop-color="#F9EBAC"/>
<stop offset="0.7567" stop-color="#EEDD9F"/>
<stop offset="0.8897" stop-color="#D0B77E"/>
<stop offset="1" stop-color="#B4935F"/>
</linearGradient>
<linearGradient id="paint8_linear_22_1672" x1="209.136" y1="126.582" x2="330.598" y2="126.582" gradientUnits="userSpaceOnUse">
<stop stop-color="#724929"/>
<stop offset="0.143" stop-color="#976B35"/>
<stop offset="0.4325" stop-color="#EDB950"/>
<stop offset="0.6866" stop-color="#F9EBAC"/>
<stop offset="0.7567" stop-color="#EEDD9F"/>
<stop offset="0.8897" stop-color="#D0B77E"/>
<stop offset="1" stop-color="#B4935F"/>
</linearGradient>
<linearGradient id="paint9_linear_22_1672" x1="272.34" y1="72.6208" x2="330.078" y2="72.6208" gradientUnits="userSpaceOnUse">
<stop stop-color="#724929"/>
<stop offset="0.143" stop-color="#976B35"/>
<stop offset="0.4325" stop-color="#EDB950"/>
<stop offset="0.6866" stop-color="#F9EBAC"/>
<stop offset="0.7567" stop-color="#EEDD9F"/>
<stop offset="0.8897" stop-color="#D0B77E"/>
<stop offset="1" stop-color="#B4935F"/>
</linearGradient>
<linearGradient id="paint10_linear_22_1672" x1="189.468" y1="272.035" x2="247.201" y2="272.035" gradientUnits="userSpaceOnUse">
<stop stop-color="#724929"/>
<stop offset="0.143" stop-color="#976B35"/>
<stop offset="0.4325" stop-color="#EDB950"/>
<stop offset="0.6866" stop-color="#F9EBAC"/>
<stop offset="0.7567" stop-color="#EEDD9F"/>
<stop offset="0.8897" stop-color="#D0B77E"/>
<stop offset="1" stop-color="#B4935F"/>
</linearGradient>
<linearGradient id="paint11_linear_22_1672" x1="252.858" y1="271.99" x2="310.513" y2="271.99" gradientUnits="userSpaceOnUse">
<stop stop-color="#724929"/>
<stop offset="0.143" stop-color="#976B35"/>
<stop offset="0.4325" stop-color="#EDB950"/>
<stop offset="0.6866" stop-color="#F9EBAC"/>
<stop offset="0.7567" stop-color="#EEDD9F"/>
<stop offset="0.8897" stop-color="#D0B77E"/>
<stop offset="1" stop-color="#B4935F"/>
</linearGradient>
<linearGradient id="paint12_linear_22_1672" x1="316.167" y1="269.947" x2="380.186" y2="269.947" gradientUnits="userSpaceOnUse">
<stop stop-color="#724929"/>
<stop offset="0.143" stop-color="#976B35"/>
<stop offset="0.4325" stop-color="#EDB950"/>
<stop offset="0.6866" stop-color="#F9EBAC"/>
<stop offset="0.7567" stop-color="#EEDD9F"/>
<stop offset="0.8897" stop-color="#D0B77E"/>
<stop offset="1" stop-color="#B4935F"/>
</linearGradient>
<linearGradient id="paint13_linear_22_1672" x1="316.167" y1="269.947" x2="380.186" y2="269.947" gradientUnits="userSpaceOnUse">
<stop stop-color="#724929"/>
<stop offset="0.143" stop-color="#976B35"/>
<stop offset="0.4325" stop-color="#EDB950"/>
<stop offset="0.6866" stop-color="#F9EBAC"/>
<stop offset="0.7567" stop-color="#EEDD9F"/>
<stop offset="0.8897" stop-color="#D0B77E"/>
<stop offset="1" stop-color="#B4935F"/>
</linearGradient>
<linearGradient id="paint14_linear_22_1672" x1="385.842" y1="272.075" x2="443.69" y2="272.075" gradientUnits="userSpaceOnUse">
<stop stop-color="#724929"/>
<stop offset="0.143" stop-color="#976B35"/>
<stop offset="0.4325" stop-color="#EDB950"/>
<stop offset="0.6866" stop-color="#F9EBAC"/>
<stop offset="0.7567" stop-color="#EEDD9F"/>
<stop offset="0.8897" stop-color="#D0B77E"/>
<stop offset="1" stop-color="#B4935F"/>
</linearGradient>
<linearGradient id="paint15_linear_22_1672" x1="102.756" y1="422.84" x2="134.441" y2="422.84" gradientUnits="userSpaceOnUse">
<stop stop-color="#845C2A"/>
<stop offset="0.118" stop-color="#AC813D"/>
<stop offset="0.2886" stop-color="#ECBC5C"/>
<stop offset="0.5125" stop-color="#B4832F"/>
<stop offset="0.6318" stop-color="#9B691B"/>
<stop offset="0.6943" stop-color="#9E6D1F"/>
<stop offset="0.7625" stop-color="#A87B2B"/>
<stop offset="0.8334" stop-color="#B8903F"/>
<stop offset="0.9061" stop-color="#CFAF5C"/>
<stop offset="0.9796" stop-color="#ECD680"/>
<stop offset="1" stop-color="#F5E28B"/>
</linearGradient>
<linearGradient id="paint16_linear_22_1672" x1="127.259" y1="423.077" x2="171.031" y2="423.077" gradientUnits="userSpaceOnUse">
<stop stop-color="#845C2A"/>
<stop offset="0.118" stop-color="#AC813D"/>
<stop offset="0.2886" stop-color="#ECBC5C"/>
<stop offset="0.5125" stop-color="#B4832F"/>
<stop offset="0.6318" stop-color="#9B691B"/>
<stop offset="0.6943" stop-color="#9E6D1F"/>
<stop offset="0.7625" stop-color="#A87B2B"/>
<stop offset="0.8334" stop-color="#B8903F"/>
<stop offset="0.9061" stop-color="#CFAF5C"/>
<stop offset="0.9796" stop-color="#ECD680"/>
<stop offset="1" stop-color="#F5E28B"/>
</linearGradient>
<linearGradient id="paint17_linear_22_1672" x1="164.304" y1="423.077" x2="194.156" y2="423.077" gradientUnits="userSpaceOnUse">
<stop stop-color="#845C2A"/>
<stop offset="0.118" stop-color="#AC813D"/>
<stop offset="0.2886" stop-color="#ECBC5C"/>
<stop offset="0.5125" stop-color="#B4832F"/>
<stop offset="0.6318" stop-color="#9B691B"/>
<stop offset="0.6943" stop-color="#9E6D1F"/>
<stop offset="0.7625" stop-color="#A87B2B"/>
<stop offset="0.8334" stop-color="#B8903F"/>
<stop offset="0.9061" stop-color="#CFAF5C"/>
<stop offset="0.9796" stop-color="#ECD680"/>
<stop offset="1" stop-color="#F5E28B"/>
</linearGradient>
<linearGradient id="paint18_linear_22_1672" x1="202.407" y1="417.818" x2="243.435" y2="417.818" gradientUnits="userSpaceOnUse">
<stop stop-color="#845C2A"/>
<stop offset="0.118" stop-color="#AC813D"/>
<stop offset="0.2886" stop-color="#ECBC5C"/>
<stop offset="0.5125" stop-color="#B4832F"/>
<stop offset="0.6318" stop-color="#9B691B"/>
<stop offset="0.6943" stop-color="#9E6D1F"/>
<stop offset="0.7625" stop-color="#A87B2B"/>
<stop offset="0.8334" stop-color="#B8903F"/>
<stop offset="0.9061" stop-color="#CFAF5C"/>
<stop offset="0.9796" stop-color="#ECD680"/>
<stop offset="1" stop-color="#F5E28B"/>
</linearGradient>
<linearGradient id="paint19_linear_22_1672" x1="238.681" y1="423.077" x2="278.252" y2="423.077" gradientUnits="userSpaceOnUse">
<stop stop-color="#845C2A"/>
<stop offset="0.118" stop-color="#AC813D"/>
<stop offset="0.2886" stop-color="#ECBC5C"/>
<stop offset="0.5125" stop-color="#B4832F"/>
<stop offset="0.6318" stop-color="#9B691B"/>
<stop offset="0.6943" stop-color="#9E6D1F"/>
<stop offset="0.7625" stop-color="#A87B2B"/>
<stop offset="0.8334" stop-color="#B8903F"/>
<stop offset="0.9061" stop-color="#CFAF5C"/>
<stop offset="0.9796" stop-color="#ECD680"/>
<stop offset="1" stop-color="#F5E28B"/>
</linearGradient>
<linearGradient id="paint20_linear_22_1672" x1="276.598" y1="422.777" x2="310.436" y2="422.777" gradientUnits="userSpaceOnUse">
<stop stop-color="#845C2A"/>
<stop offset="0.118" stop-color="#AC813D"/>
<stop offset="0.2886" stop-color="#ECBC5C"/>
<stop offset="0.5125" stop-color="#B4832F"/>
<stop offset="0.6318" stop-color="#9B691B"/>
<stop offset="0.6943" stop-color="#9E6D1F"/>
<stop offset="0.7625" stop-color="#A87B2B"/>
<stop offset="0.8334" stop-color="#B8903F"/>
<stop offset="0.9061" stop-color="#CFAF5C"/>
<stop offset="0.9796" stop-color="#ECD680"/>
<stop offset="1" stop-color="#F5E28B"/>
</linearGradient>
<linearGradient id="paint21_linear_22_1672" x1="305.054" y1="423.077" x2="339.692" y2="423.077" gradientUnits="userSpaceOnUse">
<stop stop-color="#845C2A"/>
<stop offset="0.118" stop-color="#AC813D"/>
<stop offset="0.2886" stop-color="#ECBC5C"/>
<stop offset="0.5125" stop-color="#B4832F"/>
<stop offset="0.6318" stop-color="#9B691B"/>
<stop offset="0.6943" stop-color="#9E6D1F"/>
<stop offset="0.7625" stop-color="#A87B2B"/>
<stop offset="0.8334" stop-color="#B8903F"/>
<stop offset="0.9061" stop-color="#CFAF5C"/>
<stop offset="0.9796" stop-color="#ECD680"/>
<stop offset="1" stop-color="#F5E28B"/>
</linearGradient>
<linearGradient id="paint22_linear_22_1672" x1="344.811" y1="418.061" x2="390.306" y2="418.061" gradientUnits="userSpaceOnUse">
<stop stop-color="#845C2A"/>
<stop offset="0.118" stop-color="#AC813D"/>
<stop offset="0.2886" stop-color="#ECBC5C"/>
<stop offset="0.5125" stop-color="#B4832F"/>
<stop offset="0.6318" stop-color="#9B691B"/>
<stop offset="0.6943" stop-color="#9E6D1F"/>
<stop offset="0.7625" stop-color="#A87B2B"/>
<stop offset="0.8334" stop-color="#B8903F"/>
<stop offset="0.9061" stop-color="#CFAF5C"/>
<stop offset="0.9796" stop-color="#ECD680"/>
<stop offset="1" stop-color="#F5E28B"/>
</linearGradient>
<linearGradient id="paint23_linear_22_1672" x1="385.022" y1="423.077" x2="414.875" y2="423.077" gradientUnits="userSpaceOnUse">
<stop stop-color="#845C2A"/>
<stop offset="0.118" stop-color="#AC813D"/>
<stop offset="0.2886" stop-color="#ECBC5C"/>
<stop offset="0.5125" stop-color="#B4832F"/>
<stop offset="0.6318" stop-color="#9B691B"/>
<stop offset="0.6943" stop-color="#9E6D1F"/>
<stop offset="0.7625" stop-color="#A87B2B"/>
<stop offset="0.8334" stop-color="#B8903F"/>
<stop offset="0.9061" stop-color="#CFAF5C"/>
<stop offset="0.9796" stop-color="#ECD680"/>
<stop offset="1" stop-color="#F5E28B"/>
</linearGradient>
<linearGradient id="paint24_linear_22_1672" x1="412.535" y1="423.228" x2="448.587" y2="423.228" gradientUnits="userSpaceOnUse">
<stop stop-color="#845C2A"/>
<stop offset="0.118" stop-color="#AC813D"/>
<stop offset="0.2886" stop-color="#ECBC5C"/>
<stop offset="0.5125" stop-color="#B4832F"/>
<stop offset="0.6318" stop-color="#9B691B"/>
<stop offset="0.6943" stop-color="#9E6D1F"/>
<stop offset="0.7625" stop-color="#A87B2B"/>
<stop offset="0.8334" stop-color="#B8903F"/>
<stop offset="0.9061" stop-color="#CFAF5C"/>
<stop offset="0.9796" stop-color="#ECD680"/>
<stop offset="1" stop-color="#F5E28B"/>
</linearGradient>
<linearGradient id="paint25_linear_22_1672" x1="447.478" y1="423.077" x2="471.519" y2="423.077" gradientUnits="userSpaceOnUse">
<stop stop-color="#845C2A"/>
<stop offset="0.118" stop-color="#AC813D"/>
<stop offset="0.2886" stop-color="#ECBC5C"/>
<stop offset="0.5125" stop-color="#B4832F"/>
<stop offset="0.6318" stop-color="#9B691B"/>
<stop offset="0.6943" stop-color="#9E6D1F"/>
<stop offset="0.7625" stop-color="#A87B2B"/>
<stop offset="0.8334" stop-color="#B8903F"/>
<stop offset="0.9061" stop-color="#CFAF5C"/>
<stop offset="0.9796" stop-color="#ECD680"/>
<stop offset="1" stop-color="#F5E28B"/>
</linearGradient>
<linearGradient id="paint26_linear_22_1672" x1="468.002" y1="423.077" x2="498.797" y2="423.077" gradientUnits="userSpaceOnUse">
<stop stop-color="#845C2A"/>
<stop offset="0.118" stop-color="#AC813D"/>
<stop offset="0.2886" stop-color="#ECBC5C"/>
<stop offset="0.5125" stop-color="#B4832F"/>
<stop offset="0.6318" stop-color="#9B691B"/>
<stop offset="0.6943" stop-color="#9E6D1F"/>
<stop offset="0.7625" stop-color="#A87B2B"/>
<stop offset="0.8334" stop-color="#B8903F"/>
<stop offset="0.9061" stop-color="#CFAF5C"/>
<stop offset="0.9796" stop-color="#ECD680"/>
<stop offset="1" stop-color="#F5E28B"/>
</linearGradient>
<linearGradient id="paint27_linear_22_1672" x1="499.104" y1="423.077" x2="533.741" y2="423.077" gradientUnits="userSpaceOnUse">
<stop stop-color="#845C2A"/>
<stop offset="0.118" stop-color="#AC813D"/>
<stop offset="0.2886" stop-color="#ECBC5C"/>
<stop offset="0.5125" stop-color="#B4832F"/>
<stop offset="0.6318" stop-color="#9B691B"/>
<stop offset="0.6943" stop-color="#9E6D1F"/>
<stop offset="0.7625" stop-color="#A87B2B"/>
<stop offset="0.8334" stop-color="#B8903F"/>
<stop offset="0.9061" stop-color="#CFAF5C"/>
<stop offset="0.9796" stop-color="#ECD680"/>
<stop offset="1" stop-color="#F5E28B"/>
</linearGradient>
<linearGradient id="paint28_linear_22_1672" x1="88.6138" y1="499.441" x2="200.272" y2="499.441" gradientUnits="userSpaceOnUse">
<stop offset="0.013" stop-color="#ED8100"/>
<stop offset="0.1998" stop-color="#F4AD3A"/>
<stop offset="0.4157" stop-color="#FCDB77"/>
<stop offset="0.5186" stop-color="#FFED8F"/>
<stop offset="0.75" stop-color="#C99048"/>
<stop offset="0.9198" stop-color="#A55218"/>
<stop offset="1" stop-color="#973A06"/>
</linearGradient>
<linearGradient id="paint29_linear_22_1672" x1="203.651" y1="499.441" x2="296.076" y2="499.441" gradientUnits="userSpaceOnUse">
<stop offset="0.013" stop-color="#ED8100"/>
<stop offset="0.1998" stop-color="#F4AD3A"/>
<stop offset="0.4157" stop-color="#FCDB77"/>
<stop offset="0.5186" stop-color="#FFED8F"/>
<stop offset="0.75" stop-color="#C99048"/>
<stop offset="0.9198" stop-color="#A55218"/>
<stop offset="1" stop-color="#973A06"/>
</linearGradient>
<linearGradient id="paint30_linear_22_1672" x1="297.781" y1="499.441" x2="344.543" y2="499.441" gradientUnits="userSpaceOnUse">
<stop offset="0.013" stop-color="#ED8100"/>
<stop offset="0.1998" stop-color="#F4AD3A"/>
<stop offset="0.4157" stop-color="#FCDB77"/>
<stop offset="0.5186" stop-color="#FFED8F"/>
<stop offset="0.75" stop-color="#C99048"/>
<stop offset="0.9198" stop-color="#A55218"/>
<stop offset="1" stop-color="#973A06"/>
</linearGradient>
<linearGradient id="paint31_linear_22_1672" x1="347.759" y1="499.441" x2="443.823" y2="499.441" gradientUnits="userSpaceOnUse">
<stop offset="0.013" stop-color="#ED8100"/>
<stop offset="0.1998" stop-color="#F4AD3A"/>
<stop offset="0.4157" stop-color="#FCDB77"/>
<stop offset="0.5186" stop-color="#FFED8F"/>
<stop offset="0.75" stop-color="#C99048"/>
<stop offset="0.9198" stop-color="#A55218"/>
<stop offset="1" stop-color="#973A06"/>
</linearGradient>
<linearGradient id="paint32_linear_22_1672" x1="446.923" y1="499.441" x2="548.536" y2="499.441" gradientUnits="userSpaceOnUse">
<stop offset="0.013" stop-color="#ED8100"/>
<stop offset="0.1998" stop-color="#F4AD3A"/>
<stop offset="0.4157" stop-color="#FCDB77"/>
<stop offset="0.5186" stop-color="#FFED8F"/>
<stop offset="0.75" stop-color="#C99048"/>
<stop offset="0.9198" stop-color="#A55218"/>
<stop offset="1" stop-color="#973A06"/>
</linearGradient>
<linearGradient id="paint33_linear_22_1672" x1="190.794" y1="444.203" x2="98.0934" y2="554.679" gradientUnits="userSpaceOnUse">
<stop offset="0.0028" stop-color="#D87300"/>
<stop offset="0.2508" stop-color="#F7A21B"/>
<stop offset="0.4984" stop-color="#FFCA4F"/>
<stop offset="0.7118" stop-color="#FFEF99"/>
<stop offset="0.895" stop-color="#FFCA4F"/>
<stop offset="1" stop-color="#FEAC21"/>
</linearGradient>
<linearGradient id="paint34_linear_22_1672" x1="289.486" y1="450.429" x2="206.605" y2="549.203" gradientUnits="userSpaceOnUse">
<stop offset="0.0028" stop-color="#D87300"/>
<stop offset="0.2508" stop-color="#F7A21B"/>
<stop offset="0.4984" stop-color="#FFCA4F"/>
<stop offset="0.7118" stop-color="#FFEF99"/>
<stop offset="0.895" stop-color="#FFCA4F"/>
<stop offset="1" stop-color="#FEAC21"/>
</linearGradient>
<linearGradient id="paint35_linear_22_1672" x1="354.106" y1="460.181" x2="288.219" y2="538.701" gradientUnits="userSpaceOnUse">
<stop offset="0.0028" stop-color="#D87300"/>
<stop offset="0.2508" stop-color="#F7A21B"/>
<stop offset="0.4984" stop-color="#FFCA4F"/>
<stop offset="0.7118" stop-color="#FFEF99"/>
<stop offset="0.895" stop-color="#FFCA4F"/>
<stop offset="1" stop-color="#FEAC21"/>
</linearGradient>
<linearGradient id="paint36_linear_22_1672" x1="437.465" y1="449.859" x2="353.892" y2="549.458" gradientUnits="userSpaceOnUse">
<stop offset="0.0028" stop-color="#D87300"/>
<stop offset="0.2508" stop-color="#F7A21B"/>
<stop offset="0.4984" stop-color="#FFCA4F"/>
<stop offset="0.7118" stop-color="#FFEF99"/>
<stop offset="0.895" stop-color="#FFCA4F"/>
<stop offset="1" stop-color="#FEAC21"/>
</linearGradient>
<linearGradient id="paint37_linear_22_1672" x1="533.628" y1="441.953" x2="457.546" y2="532.624" gradientUnits="userSpaceOnUse">
<stop offset="0.0028" stop-color="#D87300"/>
<stop offset="0.2508" stop-color="#F7A21B"/>
<stop offset="0.4984" stop-color="#FFCA4F"/>
<stop offset="0.7118" stop-color="#FFEF99"/>
<stop offset="0.895" stop-color="#FFCA4F"/>
<stop offset="1" stop-color="#FEAC21"/>
</linearGradient>
<linearGradient id="paint38_linear_22_1672" x1="98.0931" y1="554.679" x2="190.793" y2="444.203" gradientUnits="userSpaceOnUse">
<stop offset="0.0826" stop-color="#FFD260"/>
<stop offset="0.235" stop-color="#FFEFA0"/>
<stop offset="0.3361" stop-color="#FFDE7A"/>
<stop offset="0.4154" stop-color="#FFD260"/>
<stop offset="0.4897" stop-color="#FFC44B"/>
<stop offset="0.6508" stop-color="#FFAA23"/>
<stop offset="0.7344" stop-color="#FFA014"/>
<stop offset="0.7774" stop-color="#FF970F"/>
<stop offset="0.9085" stop-color="#FF8204"/>
<stop offset="0.9938" stop-color="#FF7A00"/>
</linearGradient>
<linearGradient id="paint39_linear_22_1672" x1="206.604" y1="549.203" x2="289.486" y2="450.429" gradientUnits="userSpaceOnUse">
<stop offset="0.0826" stop-color="#FFD260"/>
<stop offset="0.235" stop-color="#FFEFA0"/>
<stop offset="0.3361" stop-color="#FFDE7A"/>
<stop offset="0.4154" stop-color="#FFD260"/>
<stop offset="0.4897" stop-color="#FFC44B"/>
<stop offset="0.6508" stop-color="#FFAA23"/>
<stop offset="0.7344" stop-color="#FFA014"/>
<stop offset="0.7774" stop-color="#FF970F"/>
<stop offset="0.9085" stop-color="#FF8204"/>
<stop offset="0.9938" stop-color="#FF7A00"/>
</linearGradient>
<linearGradient id="paint40_linear_22_1672" x1="288.219" y1="538.701" x2="354.105" y2="460.181" gradientUnits="userSpaceOnUse">
<stop offset="0.0826" stop-color="#FFD260"/>
<stop offset="0.235" stop-color="#FFEFA0"/>
<stop offset="0.3361" stop-color="#FFDE7A"/>
<stop offset="0.4154" stop-color="#FFD260"/>
<stop offset="0.4897" stop-color="#FFC44B"/>
<stop offset="0.6508" stop-color="#FFAA23"/>
<stop offset="0.7344" stop-color="#FFA014"/>
<stop offset="0.7774" stop-color="#FF970F"/>
<stop offset="0.9085" stop-color="#FF8204"/>
<stop offset="0.9938" stop-color="#FF7A00"/>
</linearGradient>
<linearGradient id="paint41_linear_22_1672" x1="353.892" y1="549.458" x2="437.465" y2="449.859" gradientUnits="userSpaceOnUse">
<stop offset="0.0826" stop-color="#FFD260"/>
<stop offset="0.235" stop-color="#FFEFA0"/>
<stop offset="0.3361" stop-color="#FFDE7A"/>
<stop offset="0.4154" stop-color="#FFD260"/>
<stop offset="0.4897" stop-color="#FFC44B"/>
<stop offset="0.6508" stop-color="#FFAA23"/>
<stop offset="0.7344" stop-color="#FFA014"/>
<stop offset="0.7774" stop-color="#FF970F"/>
<stop offset="0.9085" stop-color="#FF8204"/>
<stop offset="0.9938" stop-color="#FF7A00"/>
</linearGradient>
<linearGradient id="paint42_linear_22_1672" x1="457.546" y1="532.624" x2="533.628" y2="441.953" gradientUnits="userSpaceOnUse">
<stop offset="0.0826" stop-color="#FFD260"/>
<stop offset="0.235" stop-color="#FFEFA0"/>
<stop offset="0.3361" stop-color="#FFDE7A"/>
<stop offset="0.4154" stop-color="#FFD260"/>
<stop offset="0.4897" stop-color="#FFC44B"/>
<stop offset="0.6508" stop-color="#FFAA23"/>
<stop offset="0.7344" stop-color="#FFA014"/>
<stop offset="0.7774" stop-color="#FF970F"/>
<stop offset="0.9085" stop-color="#FF8204"/>
<stop offset="0.9938" stop-color="#FF7A00"/>
</linearGradient>
<linearGradient id="paint43_linear_22_1672" x1="283.803" y1="385.78" x2="322.021" y2="340.233" gradientUnits="userSpaceOnUse">
<stop offset="0.0826" stop-color="#FFD260"/>
<stop offset="0.235" stop-color="#FFEFA0"/>
<stop offset="0.3361" stop-color="#FFDE7A"/>
<stop offset="0.4154" stop-color="#FFD260"/>
<stop offset="0.4897" stop-color="#FFC44B"/>
<stop offset="0.6508" stop-color="#FFAA23"/>
<stop offset="0.7344" stop-color="#FFA014"/>
<stop offset="0.8506" stop-color="#FF930D"/>
<stop offset="0.9901" stop-color="#FF8807"/>
</linearGradient>
<linearGradient id="paint44_linear_22_1672" x1="149.63" y1="386.537" x2="202.699" y2="323.292" gradientUnits="userSpaceOnUse">
<stop offset="0.0826" stop-color="#FFD260"/>
<stop offset="0.235" stop-color="#FFEFA0"/>
<stop offset="0.3361" stop-color="#FFDE7A"/>
<stop offset="0.4154" stop-color="#FFD260"/>
<stop offset="0.4897" stop-color="#FFC44B"/>
<stop offset="0.6508" stop-color="#FFAA23"/>
<stop offset="0.7344" stop-color="#FFA014"/>
<stop offset="0.8506" stop-color="#FF930D"/>
<stop offset="0.9901" stop-color="#FF8807"/>
</linearGradient>
<linearGradient id="paint45_linear_22_1672" x1="217.981" y1="387.87" x2="273.288" y2="321.958" gradientUnits="userSpaceOnUse">
<stop offset="0.0826" stop-color="#FFD260"/>
<stop offset="0.235" stop-color="#FFEFA0"/>
<stop offset="0.3361" stop-color="#FFDE7A"/>
<stop offset="0.4154" stop-color="#FFD260"/>
<stop offset="0.4897" stop-color="#FFC44B"/>
<stop offset="0.6508" stop-color="#FFAA23"/>
<stop offset="0.7344" stop-color="#FFA014"/>
<stop offset="0.8506" stop-color="#FF930D"/>
<stop offset="0.9901" stop-color="#FF8807"/>
</linearGradient>
<linearGradient id="paint46_linear_22_1672" x1="439.304" y1="386.323" x2="492.014" y2="323.506" gradientUnits="userSpaceOnUse">
<stop offset="0.0826" stop-color="#FFD260"/>
<stop offset="0.235" stop-color="#FFEFA0"/>
<stop offset="0.3361" stop-color="#FFDE7A"/>
<stop offset="0.4154" stop-color="#FFD260"/>
<stop offset="0.4897" stop-color="#FFC44B"/>
<stop offset="0.6508" stop-color="#FFAA23"/>
<stop offset="0.7344" stop-color="#FFA014"/>
<stop offset="0.8506" stop-color="#FF930D"/>
<stop offset="0.9901" stop-color="#FF8807"/>
</linearGradient>
<linearGradient id="paint47_linear_22_1672" x1="372.908" y1="387.87" x2="428.215" y2="321.958" gradientUnits="userSpaceOnUse">
<stop offset="0.0826" stop-color="#FFD260"/>
<stop offset="0.235" stop-color="#FFEFA0"/>
<stop offset="0.3361" stop-color="#FFDE7A"/>
<stop offset="0.4154" stop-color="#FFD260"/>
<stop offset="0.4897" stop-color="#FFC44B"/>
<stop offset="0.6508" stop-color="#FFAA23"/>
<stop offset="0.7344" stop-color="#FFA014"/>
<stop offset="0.8506" stop-color="#FF930D"/>
<stop offset="0.9901" stop-color="#FF8807"/>
</linearGradient>
<linearGradient id="paint48_linear_22_1672" x1="333.836" y1="377.688" x2="372.056" y2="332.14" gradientUnits="userSpaceOnUse">
<stop offset="0.0826" stop-color="#FFD260"/>
<stop offset="0.235" stop-color="#FFEFA0"/>
<stop offset="0.3361" stop-color="#FFDE7A"/>
<stop offset="0.4154" stop-color="#FFD260"/>
<stop offset="0.4897" stop-color="#FFC44B"/>
<stop offset="0.6508" stop-color="#FFAA23"/>
<stop offset="0.7344" stop-color="#FFA014"/>
<stop offset="0.8506" stop-color="#FF930D"/>
<stop offset="0.9901" stop-color="#FF8807"/>
</linearGradient>
<linearGradient id="paint49_linear_22_1672" x1="282.744" y1="354.915" x2="336.661" y2="354.915" gradientUnits="userSpaceOnUse">
<stop offset="0.013" stop-color="#ED8100"/>
<stop offset="0.1998" stop-color="#F4AD3A"/>
<stop offset="0.4157" stop-color="#FCDB77"/>
<stop offset="0.5186" stop-color="#FFED8F"/>
<stop offset="0.75" stop-color="#C99048"/>
<stop offset="0.9198" stop-color="#A55218"/>
<stop offset="1" stop-color="#973A06"/>
</linearGradient>
<linearGradient id="paint50_linear_22_1672" x1="143.729" y1="354.915" x2="208.6" y2="354.915" gradientUnits="userSpaceOnUse">
<stop offset="0.013" stop-color="#ED8100"/>
<stop offset="0.1998" stop-color="#F4AD3A"/>
<stop offset="0.4157" stop-color="#FCDB77"/>
<stop offset="0.5186" stop-color="#FFED8F"/>
<stop offset="0.75" stop-color="#C99048"/>
<stop offset="0.9198" stop-color="#A55218"/>
<stop offset="1" stop-color="#973A06"/>
</linearGradient>
<linearGradient id="paint51_linear_22_1672" x1="214.43" y1="354.915" x2="276.84" y2="354.915" gradientUnits="userSpaceOnUse">
<stop offset="0.013" stop-color="#ED8100"/>
<stop offset="0.1998" stop-color="#F4AD3A"/>
<stop offset="0.4157" stop-color="#FCDB77"/>
<stop offset="0.5186" stop-color="#FFED8F"/>
<stop offset="0.75" stop-color="#C99048"/>
<stop offset="0.9198" stop-color="#A55218"/>
<stop offset="1" stop-color="#973A06"/>
</linearGradient>
<linearGradient id="paint52_linear_22_1672" x1="437.596" y1="354.915" x2="493.722" y2="354.915" gradientUnits="userSpaceOnUse">
<stop offset="0.013" stop-color="#ED8100"/>
<stop offset="0.1998" stop-color="#F4AD3A"/>
<stop offset="0.4157" stop-color="#FCDB77"/>
<stop offset="0.5186" stop-color="#FFED8F"/>
<stop offset="0.75" stop-color="#C99048"/>
<stop offset="0.9198" stop-color="#A55218"/>
<stop offset="1" stop-color="#973A06"/>
</linearGradient>
<linearGradient id="paint53_linear_22_1672" x1="369.356" y1="354.915" x2="431.766" y2="354.915" gradientUnits="userSpaceOnUse">
<stop offset="0.013" stop-color="#ED8100"/>
<stop offset="0.1998" stop-color="#F4AD3A"/>
<stop offset="0.4157" stop-color="#FCDB77"/>
<stop offset="0.5186" stop-color="#FFED8F"/>
<stop offset="0.75" stop-color="#C99048"/>
<stop offset="0.9198" stop-color="#A55218"/>
<stop offset="1" stop-color="#973A06"/>
</linearGradient>
<linearGradient id="paint54_linear_22_1672" x1="342.418" y1="354.914" x2="363.473" y2="354.914" gradientUnits="userSpaceOnUse">
<stop offset="0.013" stop-color="#ED8100"/>
<stop offset="0.1998" stop-color="#F4AD3A"/>
<stop offset="0.4157" stop-color="#FCDB77"/>
<stop offset="0.5186" stop-color="#FFED8F"/>
<stop offset="0.75" stop-color="#C99048"/>
<stop offset="0.9198" stop-color="#A55218"/>
<stop offset="1" stop-color="#973A06"/>
</linearGradient>
</defs>
</svg>
