<svg enable-background="new 0 0 891.84 802.29" viewBox="0 0 891.84 802.29" xmlns="http://www.w3.org/2000/svg"><path d="m878.4 558.27c-.76-.88-1.59-1.75-2.5-2.61-.07-.07-.14-.15-.21-.22-5.01-5.26-12.3-8.71-21.08-9.97-.54-.09-1.13-.17-1.78-.22-3.29-.36-6.02-.35-7.62-.29-.62-.01-1.29-.02-1.97-.02-.19 0-.4 0-.59-.01-.52 0-1.05-.01-1.6-.01-.2 0-.4 0-.61 0-.65 0-1.32-.01-2-.01-.1 0-.19 0-.29 0-.83 0-1.68 0-2.55 0-.04 0-.07 0-.11 0-.83 0-1.68 0-2.54 0-.1 0-.2 0-.31 0-2.77.01-5.66.02-8.61.05.01-.01.03-.02.04-.03 2.07-1.54 3.34-2.52 3.54-2.68l.03-.02.06-.05c.17-.13.5-.42.91-.84.58-.6 1.31-1.47 1.96-2.61.11-.19.21-.38.31-.58.08-.16.16-.33.24-.5.5-1.1.89-2.38 1.02-3.84.18-2-.09-4.86-2.07-7.93-.28-.44-.6-.88-.95-1.33l-13.22-22.55c-.16-.36-.37-.8-.65-1.28-.15-.26-.32-.53-.5-.82-.33-.5-.72-1.03-1.17-1.57-.25-.29-.51-.59-.8-.88-.21-.22-.44-.43-.68-.64-1.22-1.11-2.77-2.16-4.73-2.97l-1.13-.47c-.23-.09-.48-.2-.75-.31-1.6-.66-3.77-1.57-5.04-2.2-.21-.1-.4-.2-.55-.29-.27-.29-.62-.67-1.02-1.12-.2-.22-.42-.46-.66-.71-2.77-3-7.29-7.85-9.02-9.71-.15-.17-.29-.31-.4-.43l-.19-.2-8.45-9.03c.19-.27.41-.56.64-.87.07-.1.16-.22.23-.32.93-1.27 2.1-2.89 3.41-4.87 3.22-4.85 7.26-11.84 10.59-21.17.4-1.12.79-2.27 1.16-3.46 1.13-3.56 2.13-7.42 2.95-11.6.14-.69.26-1.38.37-2.07.05-.28.09-.57.13-.85.06-.41.13-.81.18-1.22.05-.38.09-.75.14-1.13.04-.31.08-.62.11-.93.05-.43.08-.87.12-1.3.02-.25.05-.5.07-.75.04-.48.07-.97.09-1.45.01-.2.03-.39.04-.59.03-.52.04-1.04.06-1.56 0-.16.01-.31.01-.47.01-.55.01-1.11.01-1.66 0-.12 0-.24 0-.36 0-.58-.02-1.17-.04-1.75 0-.09 0-.17-.01-.26-.02-.61-.06-1.22-.09-1.83 0-.05-.01-.11-.01-.16-.04-.63-.09-1.25-.15-1.88 0-.04-.01-.07-.01-.1-.06-.64-.13-1.28-.21-1.92 0-.02 0-.03-.01-.05-.08-.65-.17-1.3-.27-1.95 0 0 0 0 0-.01-.4-2.61-.96-5.17-1.66-7.68-6.28-24.88-28.94-41.09-30.35-42.07-.05-.03-.07-.05-.07-.05l-.01.01c-.77-.54-1.61-.99-2.49-1.35-.1-.04-.21-.09-.31-.13-.24-.09-.49-.18-.73-.26-.29-.09-.58-.17-.87-.24-.19-.05-.39-.09-.59-.12-.31-.06-.62-.11-.93-.14-.13-.02-.27-.03-.4-.04-.43-.04-.86-.06-1.29-.04-2.09.06-4.04.63-5.79 1.66-.44.26-.86.54-1.27.86-1.23.94-2.32 2.13-3.25 3.56-.09.13-.16.27-.24.4-1.59 2.59-2.38 5.29-3.14 7.91-.19.67-.39 1.34-.6 2.02-.24.79-.51 1.6-.82 2.43-.36.97-.79 1.97-1.31 3.01-.46.93-1.01 1.9-1.65 2.91-.21.33-.4.65-.63.98-.82 1.2-1.69 2.37-2.57 3.51-.72.92-1.45 1.82-2.18 2.7-.83.97-1.66 1.91-2.49 2.8s-1.65 1.75-2.45 2.55c-1.61 1.6-3.14 3-4.5 4.14-.49.41-.94.77-1.38 1.11-.78.6-1.48 1.11-2.06 1.46-.2.12-.39.24-.58.36-.82-.92-1.82-1.98-3.04-3.12-2.72-2.53-6.57-5.42-12.07-7.9-1.36-.61-2.68-1.14-3.96-1.61-4.47-1.63-8.43-2.43-11.77-2.83-1.43-.17-2.74-.26-3.93-.31-.4-.02-.78-.03-1.15-.04-1.11-.03-2.09-.02-2.93-.02-.1 0-.18 0-.28 0-.19 0-.38 0-.55 0-.1 0-.2 0-.3 0-2.75 0-4.76.6-6.25 1.47-.27.15-.52.31-.75.48-.85.62-1.49 1.34-1.97 2.04-.19.28-.36.57-.5.84-.18.36-.33.72-.46 1.08-.03.08-.06.16-.08.24-.1.32-.18.64-.23.96-.03.16-.05.31-.07.47-.02.2-.04.41-.05.61-.02.31-.01.62.01.93 0 .06.01.11.01.17.04.48.11.96.23 1.45-.04.01.04.26.04.26s10.34 33.3-16.85 29.15c-.5-.1-.98-.21-1.45-.33-.07-.02-.15-.03-.22-.05-.14-.04-.29-.09-.45-.14-.01 0-.03-.01-.04-.01-.15-.05-.3-.1-.46-.15-.02-.01-.04-.01-.07-.02-.16-.05-.33-.11-.5-.18-.02-.01-.04-.02-.07-.02-.19-.07-.39-.15-.59-.23 0 0 0 0-.01 0-.62-.25-1.28-.55-1.96-.92-.02-.01-.04-.02-.07-.04-.2-.11-.4-.22-.6-.34-.04-.02-.09-.05-.13-.08-.18-.11-.37-.22-.55-.34-.05-.03-.1-.07-.16-.1-.18-.11-.35-.23-.53-.35-.06-.04-.11-.08-.17-.12-.17-.12-.34-.25-.51-.38-.05-.04-.11-.09-.16-.13-.17-.14-.34-.28-.51-.42-.05-.05-.1-.09-.16-.14-.17-.15-.34-.31-.5-.47-.05-.05-.09-.09-.14-.14-.17-.17-.34-.35-.51-.53-.04-.04-.08-.08-.11-.12-.18-.2-.35-.4-.52-.61-.02-.03-.05-.06-.07-.09-.19-.24-.38-.49-.56-.75v-52.9c0-3.52-.56-6.73-1.56-9.63-.25-.72-.52-1.41-.82-2.09-.67-1.52-1.47-2.95-2.38-4.28-.5-.72-1.02-1.41-1.58-2.07-.84-.99-1.74-1.93-2.71-2.79-.64-.58-1.31-1.13-2.01-1.64-1.04-.78-2.13-1.49-3.27-2.14-3.79-2.16-8.06-3.59-12.47-4.27v-39.74l33.54-.01h.01v23.83c0 3.35.52 6.53 1.54 9.48.15.42.3.84.47 1.25 1.33 3.29 3.29 6.27 5.87 8.85 4.27 4.26 9.43 6.63 13.99 7.94.3.09.6.17.9.25.89.24 1.76.43 2.58.59.55.11 1.08.2 1.59.28 1 .16 1.91.27 2.71.34.22.02.44.04.65.06.19.01.37.03.55.04.52.03.97.05 1.33.06.24.01.45.01.61.01h46.88c1.53 0 3.06-.09 4.58-.26 2.02-.23 4.03-.62 5.98-1.16.49-.14.97-.28 1.45-.44 11.52-3.71 20.8-12.93 20.8-27.28v-112.47h-46.61l.01-6.66.01-6.64h-65.88v5.5h-66.71c-5.89 0-11.8 1.31-16.96 3.89-.47.23-.93.48-1.39.73-.91.51-1.8 1.06-2.65 1.66s-1.67 1.23-2.46 1.91c-1.84-1.58-3.92-2.96-6.24-4.12-.77-.39-1.57-.75-2.39-1.09-1.29-.53-2.58-.97-3.82-1.33-5.37-1.55-9.93-1.65-10.95-1.65h-46.95c-6.65 0-13.33 1.69-18.91 4.98-.6.36-1.2.73-1.78 1.12-.42.29-.84.59-1.24.9-.41.31-.8.63-1.19.96-5.85-5.06-13.63-7.68-21.16-7.68l-15.79-.02h-.01v-10.37h233.36v-179.61h-66.12v30.32h-4.7-9.4c-3.25.02-6.5.43-9.63 1.23-1.04.27-2.07.58-3.09.93-4.05 1.42-7.79 3.52-10.94 6.29-6.7-5.65-15.68-8.32-23.04-8.32-.92 0-6.44 0-14.78-.01-.7 0-1.41 0-2.14 0-8.81 0-20.3-.01-32.73-.02-1.04 0-2.08 0-3.13 0-10.48-.01-21.5-.01-32.06-.02-2.11 0-4.2 0-6.27 0-3.1 0-6.14 0-9.09-.01-2.95 0-5.81 0-8.56-.01-2.75 0-5.39 0-7.88 0-3.32 0-6.39 0-9.14-.01-.69 0-1.36 0-2.01 0-7.77 0-12.53-.01-12.53-.01-8.52.03-17.09 2.81-23.33 8.21-2.24-1.92-4.67-3.4-7.07-4.54-1.2-.57-2.4-1.05-3.58-1.46-1.85-.65-3.63-1.11-5.26-1.45-.94-.19-1.84-.35-2.66-.47-2.22-.31-3.9-.37-4.66-.37h-141.17c-4.3 0-8.29.73-11.9 2.01-1.03.37-2.03.78-3 1.23-.48.23-.96.46-1.43.71-1.4.74-2.73 1.57-3.98 2.48-.42.3-.82.61-1.22.93-2.78 2.23-5.11 4.84-6.93 7.68-.78 1.21-1.46 2.47-2.04 3.75-1.55 3.42-2.37 7.02-2.37 10.57v157.6h85.52v38.66h9.33v54.1c0 3 .41 5.77 1.16 8.32.19.64.4 1.26.63 1.87.69 1.83 1.56 3.53 2.59 5.09h-1.16c-10.19 0-20.46 3.95-26.73 11.63-.31.38-.62.78-.91 1.18-3.22 4.43-5.17 9.98-5.17 16.62v90.56c0 1.56.11 3.05.32 4.49.11.72.24 1.42.39 2.11.31 1.37.71 2.69 1.21 3.94.25.63.51 1.24.8 1.83.58 1.19 1.24 2.32 1.97 3.38h-44.66c-3.72 0-7.28.74-10.53 2.06-.31.13-.62.26-.92.4-9.75 4.39-16.55 14.18-16.55 25.54v45.7c-5.94 0-13.81 0-13.84 0h-57.23c-47.45 0-88.97 36.21-96.58 84.24-3.88 24.48 1.63 46.9 15.5 63.14 6.09 7.14 13.63 12.84 22.4 16.96.33.16.67.3 1.02.43 4.7 1.78 12.59 4.01 23.52 4.52.22.01.45.02.67.02h59.81l.01 26.34v9.15c0 .22-.01.45-.02.67v.16.18c0 .26.01.5.02.76l.02 38.02c.04 3.32 1.24 6.55 3.45 9.09 2.69 3.09 6.58 4.87 10.68 4.87h28.63 17.06 20.31 30.22 29.12 6.17 28.01 14.68 31.2 5.18 19.82 41.72 26.79 39.1 28.01 14.68 31.2 3.49 20.31 30.22 29.12 5.54 28.63 5.97 17.05 7.79.04c1.27 0 2.5-.02 3.71-.05.09 0 .18-.01.27-.01 1.18-.03 2.34-.08 3.48-.14h.01 9.23 28.63c4.1 0 7.99-1.78 10.68-4.87 2.21-2.54 3.4-5.77 3.45-9.09s.03.02 0 0c0 0 0-.02 0-.05 0-.1 0-.34 0-.68 0-.03 0-.07 0-.1 0-.05 0-.1 0-.16 0-.1 0-.19 0-.3s0-.24 0-.37c0-.04 0-.08 0-.12 0-.16 0-.34 0-.52 0-.02 0-.04 0-.07 0-.6 0-1.31 0-2.11 0-.18 0-.38 0-.57 0-.45 0-.94 0-1.44 0-.08 0-.17 0-.25 0-.22 0-.44 0-.66 0-.31 0-.63 0-.95 0-.52 0-1.07 0-1.62 0-1.35 0-2.8 0-4.34 0-.67 0-1.35 0-2.05 0-.34 0-.69 0-1.04 0-.37 0-.73 0-1.11 0-2.57 0-5.31 0-8.14 0-.45 0-.9 0-1.35 0-2.39 0-4.84 0-7.32 0-.3 0-.6 0-.89 0-.05 0-.1 0-.14.02-.73.05-1.46.05-2.21 0-.72-.03-1.42-.05-2.12 0-.31 0-.62 0-.93 0-2.19 0-4.38 0-6.52 0-.2 0-.41 0-.61 0-4.11 0-8.08 0-11.71 0-.05 0-.1 0-.15 0-1.49 0-2.93 0-4.29 0-.14 0-.28 0-.41 0-2 0-3.83 0-5.47s0-3.08 0-4.27h87.32c1.18 0 2.36-.15 3.5-.43 9.79-2.45 17.35-10.39 19.35-20.26.03-.14.06-.29.09-.44.11-.59.2-1.18.26-1.76l14.12-97.86c1.58-10.64-1.52-21.4-8.54-29.55z" fill="#f7b500"/><path d="m702.8 802.29h-560c-5.4 0-10.53-2.34-14.08-6.42-2.87-3.31-4.49-7.57-4.55-11.98l-.03-38.29c-.01-.18-.01-.35-.01-.53v-.28l.02-.79-.02-30.95h-55.31c-.29 0-.58-.01-.87-.02-11.53-.54-19.92-2.91-24.92-4.81-.45-.17-.9-.36-1.33-.56-9.36-4.4-17.4-10.49-23.91-18.12-14.74-17.25-20.61-40.96-16.52-66.76 7.95-50.19 51.38-88.03 101.02-88.03h66.58v-41.2c0-12.76 7.54-24.4 19.21-29.65.35-.16.71-.32 1.08-.46 3.89-1.59 8.01-2.39 12.22-2.39h37.35c-.42-1.19-.78-2.42-1.06-3.67-.18-.78-.33-1.61-.45-2.44-.25-1.67-.37-3.4-.37-5.14v-90.56c0-7.28 2.03-13.77 6.04-19.27.34-.47.7-.93 1.06-1.38 5.68-6.96 14.51-11.57 24.35-12.89-.19-.52-.36-1.05-.51-1.58-.89-3.03-1.35-6.26-1.35-9.6v-49.6h-9.33v-38.66h-85.52v-162.09c0-4.12.96-8.41 2.77-12.42.67-1.47 1.46-2.93 2.34-4.32 2.12-3.32 4.78-6.26 7.91-8.77.45-.36.92-.72 1.39-1.06 1.42-1.03 2.94-1.98 4.52-2.81.53-.28 1.07-.55 1.62-.81 1.1-.51 2.24-.98 3.4-1.4 4.24-1.51 8.75-2.27 13.41-2.27h141.18c.71 0 2.63.04 5.29.42.95.13 1.94.31 2.94.52 2.01.41 3.97.95 5.83 1.6 1.38.48 2.73 1.03 4.01 1.64 1.82.86 3.54 1.84 5.14 2.94 6.49-4.48 14.79-7.02 23.33-7.04l140.33.08c8.03 0 16.37 2.62 22.98 7.14 2.84-2.01 6.02-3.64 9.51-4.86 1.12-.39 2.28-.74 3.45-1.04 3.49-.89 7.09-1.36 10.73-1.37h9.62v-30.34h75.12v184.23h53.15l-.01 13.29h46.6v116.95c0 14.94-8.94 26.73-23.92 31.56-.54.17-1.08.33-1.62.49-2.16.6-4.4 1.04-6.67 1.3-1.69.19-3.4.29-5.09.29h-46.88c-.19 0-.42 0-.7-.01-.43-.01-.93-.03-1.52-.07l-.61-.04c-.23-.02-.48-.04-.73-.06-.99-.09-2-.22-2.99-.38-.56-.09-1.14-.19-1.75-.31-.97-.19-1.93-.41-2.86-.66-.34-.09-.67-.18-1.01-.28-6.36-1.83-11.72-4.89-15.92-9.08-3-2.99-5.31-6.48-6.87-10.35-.2-.49-.38-.98-.55-1.47-1.18-3.42-1.78-7.11-1.78-10.94v-19.33h-24.54v31.56c3.64.9 7.06 2.26 10.2 4.05 1.29.74 2.55 1.56 3.73 2.44.8.6 1.58 1.24 2.31 1.9 1.13 1.01 2.19 2.1 3.15 3.24.65.77 1.27 1.59 1.85 2.42 1.07 1.55 2 3.24 2.79 5.01.35.8.68 1.62.96 2.45 1.19 3.47 1.8 7.2 1.8 11.09l.01 51.37.07.07c.12.13.24.25.36.37l.09.09c.14.14.26.25.37.35l.12.11c.12.1.24.2.36.3l.08.07c.18.14.3.23.43.32l.12.09c.13.09.27.18.4.27l.09.06c.16.1.3.18.43.26l.14.08c.12.07.28.16.44.24l.13.08c.41.22.93.46 1.44.67l.01.01h.01l.04.02c.15.06.29.12.44.17l1.27.41c.42.11.8.2 1.18.28 5.24.78 8.93-.01 10.95-2.37 4.4-5.12 2.01-17.19.82-21.02-.09-.31-.15-.61-.19-.9-.13-.6-.21-1.2-.26-1.79l-.02-.21c-.03-.54-.04-1.02-.01-1.48.01-.28.03-.59.07-.9.04-.3.07-.53.12-.76.09-.52.22-1.03.37-1.51.04-.11.07-.22.11-.33.23-.66.46-1.2.72-1.7.23-.45.49-.88.76-1.29.83-1.23 1.85-2.3 3.05-3.17.33-.24.7-.48 1.14-.74 2.37-1.38 5.23-2.08 8.52-2.08h1.2c.86 0 1.84-.01 2.95.02.41.01.81.02 1.23.04 1.47.06 2.87.17 4.27.34 4.29.51 8.59 1.54 12.79 3.07 1.42.52 2.85 1.1 4.26 1.73 5.04 2.26 9.52 5.19 13.29 8.71.18.17.35.33.53.5.18-.15.37-.3.57-.47 1.33-1.11 2.79-2.45 4.22-3.88.79-.79 1.57-1.6 2.32-2.41.81-.87 1.6-1.76 2.36-2.66.68-.8 1.37-1.65 2.06-2.55.88-1.13 1.69-2.24 2.41-3.29.14-.2.26-.4.38-.6l.17-.26c.53-.84 1.01-1.68 1.42-2.49.43-.86.79-1.7 1.12-2.58.26-.7.5-1.41.74-2.18.2-.66.39-1.31.58-1.95.75-2.61 1.69-5.88 3.63-9.02.13-.22.22-.36.31-.5 1.2-1.83 2.64-3.4 4.28-4.66.54-.42 1.12-.81 1.72-1.16 2.43-1.43 5.1-2.2 7.94-2.28.56-.01 1.15 0 1.8.06.16.01.33.03.5.05.48.06.89.12 1.31.2.24.05.5.1.76.16.42.1.81.21 1.19.33.31.1.64.22.96.34l.38.15.21-.21 3.34 2.13c2.54 1.78 25.43 18.44 32.06 44.57.72 2.6 1.3 5.27 1.73 7.94l.08.34v.21c.09.58.17 1.15.24 1.73l.01.11c.08.67.16 1.33.22 1.99l.01.1c.06.68.12 1.34.16 2.01l.01.14c.04.69.08 1.33.1 1.98l.01.26c.02.64.04 1.26.04 1.89v.4c0 .57 0 1.16-.01 1.75l-.01.49c-.02.56-.03 1.11-.06 1.67l-.04.64c-.03.5-.06 1.02-.1 1.54-.01.17-.03.37-.05.56l-.04.45c-.03.39-.07.77-.11 1.16-.02.23-.05.46-.08.69l-.08.67c-.03.28-.07.55-.1.83-.05.33-.09.65-.14.97l-.1.64c-.03.2-.06.39-.09.59-.12.74-.25 1.47-.4 2.21-.8 4.11-1.84 8.18-3.08 12.1-.38 1.2-.79 2.41-1.21 3.61-2.82 7.92-6.44 15.16-11.08 22.15-.79 1.18-1.53 2.25-2.21 3.21l6.52 6.96c1.73 1.85 6.26 6.72 9.03 9.72l1.15 1.25c1.19.57 3.14 1.39 4.54 1.97l1.87.77c2.25.93 4.27 2.21 6.03 3.79.3.27.59.55.87.83.37.38.71.75 1.03 1.13.55.65 1.05 1.33 1.5 2.02.24.37.46.72.65 1.06.26.46.51.94.73 1.42l12.94 22.09c.36.47.7.95 1.01 1.44 2.7 4.2 2.99 8.17 2.76 10.76-.16 1.82-.63 3.61-1.4 5.3-.11.23-.21.45-.32.67-.04.08-.08.15-.12.22h.82l9.56.05c1.53-.05 4.52-.08 8.16.32.67.06 1.34.15 1.98.25 9.77 1.42 17.95 5.33 23.65 11.31l.14.15c.99.94 1.88 1.87 2.72 2.84 7.86 9.14 11.35 21.22 9.57 33.13l-14.1 97.78c-.08.66-.18 1.33-.3 2-.03.18-.07.38-.11.57-2.32 11.49-11.22 20.81-22.65 23.67-1.5.38-3.05.57-4.6.57h-82.82l.01 30.23c.02.58.04 1.16.04 1.75 0 .65-.02 1.3-.04 1.94l-.01 1.31-.03 35.33-4.49.01 4.49.06c-.06 4.42-1.67 8.67-4.55 11.98-3.55 4.08-8.68 6.42-14.08 6.42h-37.74c-1.14.06-2.29.11-3.48.14l-.25.01c-1.29.04-2.57.06-3.87.06zm-569.67-57.4.02.87.02 38.07c.03 2.24.86 4.44 2.34 6.14 1.83 2.11 4.49 3.32 7.28 3.32h559.96c1.26 0 2.46-.02 3.64-.05l.28-.01c1.12-.03 2.23-.08 3.33-.14l.25-.01h37.87c2.79 0 5.45-1.21 7.28-3.32 1.47-1.7 2.31-3.89 2.34-6.17l.05-36.9c.02-.54.04-1.09.04-1.65 0-.49-.02-.96-.03-1.44l-.02-1.61.01-37.93h91.82c.81 0 1.62-.1 2.41-.3 8.09-2.03 14.38-8.62 16.03-16.79.03-.15.05-.25.07-.34.09-.51.17-1 .22-1.48l.02-.13 14.12-97.86c1.4-9.35-1.33-18.8-7.49-25.96-.66-.77-1.37-1.51-2.18-2.27l-.39-.4c-4.3-4.51-10.68-7.49-18.46-8.61l-.11-.02c-.43-.07-.9-.13-1.44-.18-3.24-.35-5.79-.32-7.03-.27h-.12l-9.78-.06-2.8.01c-2.79.01-5.68.02-8.62.05l-13.17.1 10.53-8.27c1.83-1.36 3.01-2.27 3.34-2.53l.11-.09c.03-.03.23-.19.49-.46.34-.35.83-.93 1.29-1.72.07-.12.14-.25.21-.38.05-.09.1-.2.15-.31.35-.78.56-1.56.63-2.38.15-1.73-.31-3.45-1.37-5.1-.21-.32-.44-.64-.69-.96l-.36-.53-13.45-23.01c-.13-.29-.28-.58-.44-.87-.11-.19-.23-.39-.36-.59-.24-.38-.53-.75-.84-1.12-.18-.21-.36-.42-.57-.63-.15-.15-.31-.31-.48-.46-1-.9-2.15-1.63-3.44-2.16l-1.89-.78c-1.74-.72-3.93-1.64-5.31-2.32-.29-.14-.55-.28-.76-.4l-.63-.36-2.16-2.35c-2.75-2.98-7.27-7.83-9-9.68l-11.57-12.36 3.05-4.21c.98-1.35 2.07-2.85 3.29-4.7 4.22-6.37 7.52-12.97 10.1-20.19.38-1.07.75-2.17 1.11-3.31 1.14-3.59 2.09-7.33 2.82-11.11.13-.65.24-1.3.35-1.95l.17-1.14c.04-.27.08-.54.12-.81.03-.21.05-.44.08-.67l.15-1.26c.03-.33.06-.66.09-.99l.08-.92c.04-.47.06-.92.09-1.37l.04-.56c.02-.48.04-.97.05-1.46l.01-.44c.01-.53.01-1.04.01-1.56v-.34c0-.55-.02-1.09-.04-1.64l-.01-.25c-.02-.56-.05-1.13-.09-1.7l-.01-.12c-.04-.61-.09-1.2-.14-1.78-.07-.7-.13-1.29-.21-1.89l-.01-.1c-.07-.52-.14-1.04-.22-1.57l-.08-.54c-.37-2.3-.87-4.6-1.5-6.83l-.03-.11c-5.42-21.45-24.14-36.22-27.93-39.03l-.72-.5c-.5-.35-1.04-.64-1.61-.88l-.26-.1c-.1-.04-.26-.1-.43-.15-.21-.07-.4-.12-.6-.17-.1-.02-.23-.05-.36-.07-.22-.04-.42-.07-.62-.1l-.23-.02c-.33-.03-.59-.04-.81-.03-1.3.04-2.52.39-3.63 1.04-.28.16-.55.35-.8.54-.84.64-1.59 1.47-2.23 2.45l-.18.29c-1.3 2.1-1.98 4.49-2.65 6.8-.2.69-.41 1.39-.62 2.1-.29.94-.59 1.82-.91 2.68-.44 1.18-.93 2.31-1.5 3.45-.54 1.09-1.18 2.21-1.88 3.32l-.14.23c-.18.29-.36.58-.57.88-.83 1.21-1.75 2.47-2.74 3.74-.77.99-1.54 1.95-2.3 2.84-.85 1-1.73 1.99-2.62 2.95-.83.9-1.7 1.8-2.58 2.68-1.62 1.61-3.27 3.13-4.79 4.4-.53.45-1.03.84-1.51 1.22-.93.72-1.75 1.3-2.45 1.73l-3.77 2.38-2.54-2.85c-.95-1.06-1.82-1.96-2.74-2.81-3.1-2.88-6.65-5.2-10.85-7.09-1.21-.54-2.44-1.04-3.66-1.49-3.59-1.31-7.11-2.15-10.76-2.58-1.18-.14-2.36-.23-3.6-.28-.37-.02-.73-.03-1.08-.04-1-.02-1.9-.02-2.69-.01h-1.29c-1.62 0-2.96.29-3.94.86-.12.07-.25.15-.36.22-.36.26-.65.57-.89.93-.09.13-.17.26-.23.4-.06.13-.13.29-.21.51l-.05.15c-.03.09-.06.23-.09.37-.01.08-.03.16-.04.25 0 .03-.01.13-.01.23-.01.18-.01.33 0 .47.03.32.07.58.13.84l.13.54c1.01 3.48 5.15 19.79-2.76 28.98-4.2 4.88-10.68 6.69-19.24 5.38l-.2-.03c-.58-.11-1.14-.25-1.69-.39-.03 0-.13-.03-.22-.05l-.15-.04c-.15-.04-.32-.09-.49-.15l-.11-.03c-.18-.06-.37-.12-.56-.18-.24-.08-.42-.14-.59-.21h-.37l-.79-.46c-.71-.3-1.4-.63-2.08-.99l-.15-.08c-.18-.09-.42-.23-.67-.37l-.16-.1c-.22-.13-.45-.27-.68-.42l-.15-.1c-.27-.17-.49-.32-.7-.47l-.16-.12c-.26-.19-.48-.35-.7-.52-.03-.02-.12-.1-.21-.17-.2-.16-.42-.34-.64-.53l-.12-.11c-.29-.26-.51-.46-.73-.68l-.18-.18c-.21-.2-.42-.43-.64-.66l-.17-.18c-.21-.24-.44-.5-.66-.78l-.11-.14c-.24-.3-.48-.63-.72-.98l-.79-1.15v-54.3c0-2.89-.44-5.64-1.31-8.17-.2-.59-.43-1.18-.68-1.74-.56-1.26-1.22-2.45-1.97-3.54-.41-.6-.85-1.18-1.31-1.72-.69-.82-1.46-1.61-2.27-2.34-.54-.48-1.11-.95-1.7-1.4-.88-.66-1.82-1.27-2.8-1.83-3.22-1.84-7-3.13-10.93-3.74l-3.81-.59v-48.1l42.54-.01.01 28.33c0 2.83.44 5.53 1.29 8.01.12.36.25.7.39 1.05 1.1 2.73 2.74 5.2 4.87 7.33 3.11 3.1 7.16 5.39 12.05 6.8.28.08.54.15.81.22.74.2 1.52.37 2.29.53.49.09.96.18 1.42.25.8.13 1.62.23 2.43.3.21.02.4.04.57.05l.48.03c.46.03.85.04 1.16.05.19 0 .36.01.5.01h46.88c1.35 0 2.72-.08 4.06-.23 1.8-.21 3.58-.55 5.29-1.03.43-.12.86-.25 1.28-.38 5.31-1.71 17.68-7.38 17.68-23v-107.91h-46.61l.01-13.29h-56.88v5.5h-71.21c-5.31 0-10.48 1.18-14.95 3.42-.41.2-.81.42-1.21.64-.78.44-1.55.92-2.27 1.42-.73.51-1.43 1.05-2.09 1.62l-2.93 2.53-2.94-2.53c-1.56-1.34-3.35-2.52-5.32-3.51-.67-.33-1.37-.65-2.08-.95-1.07-.44-2.2-.83-3.36-1.17-4.84-1.4-8.93-1.47-9.7-1.47h-46.95c-5.96 0-11.86 1.55-16.62 4.36-.61.36-1.1.67-1.53.96-.36.25-.71.5-1.06.76-.34.26-.68.53-1.01.81l-2.94 2.48-2.91-2.51c-4.85-4.19-11.49-6.59-18.22-6.59l-20.29-.02-.01-19.36h233.47v-170.62h-57.12v30.32l-18.59.01c-2.87.01-5.75.38-8.52 1.09-.92.24-1.83.51-2.71.82-3.64 1.27-6.81 3.09-9.45 5.42l-2.91 2.57-2.97-2.5c-6.34-5.35-14.56-7.26-20.14-7.26l-140.32-.08c-7.76.02-15.19 2.62-20.39 7.11l-2.93 2.54-2.94-2.52c-1.76-1.51-3.81-2.82-6.07-3.89-1-.47-2.06-.9-3.14-1.28-1.48-.52-3.06-.95-4.68-1.29-.82-.17-1.62-.31-2.38-.42-2.15-.3-3.63-.33-4.03-.33h-141.18c-3.63 0-7.12.59-10.39 1.75-.88.31-1.76.67-2.6 1.07-.42.2-.83.4-1.23.62-1.19.63-2.35 1.35-3.43 2.14-.36.26-.71.53-1.05.8-2.36 1.89-4.36 4.11-5.95 6.59-.66 1.03-1.24 2.1-1.73 3.18-1.29 2.85-1.97 5.86-1.97 8.71v153.1h85.52v38.66h9.33v58.6c0 2.48.33 4.85.98 7.05.15.52.33 1.04.52 1.56.56 1.48 1.28 2.89 2.14 4.21l4.58 6.97h-9.5c-9.46 0-18.15 3.73-23.25 9.97-.26.32-.51.65-.76.98-2.86 3.93-4.31 8.63-4.31 13.97v90.56c0 1.31.09 2.6.27 3.83.09.61.2 1.2.33 1.77.25 1.13.59 2.23 1 3.28.2.51.42 1.02.67 1.52.47.96 1.01 1.91 1.63 2.8l4.83 7.04h-53.2c-3.04 0-6.02.58-8.83 1.73-.26.11-.52.22-.77.33-8.44 3.8-13.9 12.21-13.9 21.44v50.2h-75.58c-45.26 0-84.87 34.58-92.13 80.44-3.67 23.15 1.48 44.29 14.48 59.52 5.68 6.65 12.71 11.97 20.89 15.81.23.11.46.21.7.3 4.39 1.67 11.79 3.75 22.13 4.23.15.01.3.01.46.01h64.31l.02 39.98c0 .21-.01.38-.01.55zm357.52-555.15h46.95c1.38 0 6.34.13 12.2 1.83 1.47.43 2.91.93 4.28 1.49.92.38 1.83.79 2.7 1.23 1.48.74 2.89 1.57 4.21 2.47.94-.65 1.92-1.26 2.92-1.82.52-.29 1.04-.57 1.57-.83 5.71-2.86 12.27-4.37 18.97-4.37h62.21v-1.1h-211.6v1.36l11.3.01c7.59 0 15.12 2.35 21.18 6.53.56-.38 1.17-.76 1.9-1.19 6.14-3.62 13.67-5.61 21.21-5.61z" fill="#f7b500"/><path d="m128.68 783.83c-.03.03 0 0 0 0z" fill="#f7b500"/><path d="m131.78 787.09-6.23-6.49 6.24 6.48z" fill="#f7b500"/><path d="m639.75 596.82v1" fill="none"/><path d="m878.4 558.27c-.76-.88-1.59-1.75-2.5-2.61-.07-.07-.14-.15-.21-.22-5.01-5.26-12.3-8.71-21.08-9.97-.54-.09-1.13-.17-1.78-.22-3.29-.36-6.02-.35-7.62-.29-5.47-.08-13.17-.06-21.18 0 2.09-1.55 3.37-2.55 3.57-2.7l.09-.07c.66-.54 4-3.46 4.44-8.37.2-2.28-.18-5.69-3.02-9.26l-13.21-22.56c-.85-1.92-3.19-5.95-8.52-8.16l-1.13-.47c-1.83-.75-5.11-2.1-6.34-2.8-2.14-2.35-9.5-10.25-11.09-11.97l-8.64-9.24c.19-.27.41-.56.64-.87 4.19-5.73 13.99-19.15 18.34-41.42 2.14-10.96 1.68-21.89-1.13-31.93-6.49-25.68-30.42-42.12-30.42-42.12l-.01.01c-2.19-1.53-4.92-2.41-7.61-2.33-4.17.12-7.83 2.28-10.31 6.07-1.77 2.71-2.59 5.56-3.38 8.31-.98 3.41-2 6.95-5.01 11.35-5.94 8.69-14.04 16.04-17.64 18.27-.2.12-.39.24-.58.36-2.65-2.97-7.14-7.44-15.11-11.01-10.87-4.88-19.24-4.82-23.74-4.8-.29 0-.57 0-.83 0-.1 0-.2 0-.3 0-5.76 0-8.32 2.63-9.46 4.84-.95 1.83-1.14 3.82-.64 5.92-.04.01.04.26.04.26s10.34 33.3-16.85 29.15c-.57-.11-1.13-.24-1.67-.38-2.39-.69-7.14-2.54-10.09-6.82v-52.9c0-16.9-12.67-26.74-26.8-28.93v-39.74l33.54-.01v23.83c0 7.66 2.72 14.43 7.88 19.58 9.1 9.09 22.3 9.57 24.91 9.57h46.88c16.3 0 32.81-10.01 32.81-29.14v-112.46h-46.61l.01-13.29h-65.88v5.5h-66.71c-8.56 0-17.18 2.78-23.46 8.19-2.45-2.1-5.34-3.86-8.63-5.21-6.9-2.83-13.51-2.97-14.76-2.97h-46.95c-8.42 0-16.9 2.69-23.13 7.96-5.85-5.06-13.63-7.68-21.16-7.68l-15.8-.02v-10.37h233.34v-179.63h-66.12v30.32h-14.09c-8.66.04-17.37 2.91-23.65 8.46-6.7-5.65-15.68-8.32-23.04-8.32-4.93 0-140.32-.08-140.32-.08-8.52.03-17.09 2.81-23.33 8.21-8.98-7.69-20.78-8.28-23.23-8.28h-141.19c-19.65 0-32.85 15.18-32.85 29.35v157.6h85.52v38.66h9.33v54.1c0 6 1.63 11.1 4.38 15.29h-1.16c-16.31 0-32.82 10.11-32.82 29.43v90.56c0 6.23 1.76 11.48 4.69 15.75h-44.66c-15.44 0-28 12.56-28 28v45.7c-5.94 0-13.81 0-13.84 0h-57.23c-47.45 0-88.97 36.21-96.58 84.24-3.88 24.48 1.63 46.9 15.5 63.14 6.09 7.14 13.63 12.84 22.4 16.96.33.16.67.3 1.02.43 4.7 1.78 12.59 4.01 23.52 4.52.22.01.45.02.67.02h59.81l.02 35.48c0 .28-.02.55-.02.83 0 .31.02.62.02.93l.02 38.02c.04 3.32 1.24 6.55 3.45 9.09 2.69 3.09 6.58 4.87 10.68 4.87h28.63 17.06 20.31 30.22 29.12 6.17 28.01 14.68 31.2 5.18 19.82 41.72 26.79 39.1 28.01 14.68 31.2 3.49 20.31 30.22 29.12 5.54 28.63 5.97 17.05 7.79c2.61 0 5.11-.07 7.51-.21h9.23 28.63c4.1 0 7.99-1.78 10.68-4.87 2.21-2.54 3.4-5.77 3.45-9.09 0 0 .03.02 0 0 .01.01.02-17.64.03-36.23.02-.78.06-1.56.06-2.35 0-.72-.03-1.42-.05-2.12.01-14.07.01-27.91.01-34.36h87.32c1.18 0 2.36-.15 3.5-.43 9.79-2.45 17.35-10.39 19.35-20.26.03-.14.06-.29.09-.44.11-.59.2-1.18.26-1.76l14.12-97.86c1.51-10.62-1.59-21.38-8.61-29.53z"/><path d="m128.68 783.83c-.03.03 0 0 0 0z"/><path d="m317.8 577.49-7.88 7.08-.97 5.01h5.94z"/><path d="m314.89 603.98h-5.93c-4.3 0-8.37-1.92-11.11-5.24s-3.85-7.68-3.03-11.9l.97-5.01c.6-3.08 2.18-5.88 4.52-7.98l7.88-7.08c4.69-4.21 11.58-4.88 17-1.65s8.1 9.61 6.62 15.74l-2.92 12.09c-1.57 6.47-7.35 11.03-14 11.03z"/><path d="m775.54 575.97h-61.7v13.61h60.47c.78-5.59 1.23-10.02 1.23-13.61z"/><path d="m774.31 603.98h-60.47c-7.95 0-14.4-6.45-14.4-14.4v-13.61c0-7.95 6.45-14.4 14.4-14.4h61.7c7.95 0 14.4 6.45 14.4 14.4 0 4-.42 8.81-1.37 15.6-.99 7.11-7.07 12.41-14.26 12.41z"/><path d="m872.69 585.71c.98-6.49-.91-13.07-5.2-18.04-.73-.85-1.53-1.61-2.36-2.33l.14.04c-3.45-3.62-8.68-5.1-12.95-5.69-.2-.04-.51-.08-.91-.11-2.87-.32-5.18-.26-5.99-.22-16.97-.27-58.19.48-58.19.48-3.35 0-6.54 1.41-8.79 3.89s-3.35 5.79-3.03 9.12c.09.96.13 2 .13 3.11 0 3.59-.45 8.02-1.23 13.61h-60.47-8.07c-1.25-8.26-5.36-15.65-11.86-20.93-.26-.21-.51-.42-.77-.62-.04-.03-.08-.06-.11-.09-.79-.59-1.61-1.13-2.45-1.64-3.09-1.89-6.49-3.25-10.2-4.22-6.73-1.76-14.49-2.25-23.37-2.25h-1.14-44.39-19.13c-4.45-3.6-10.3-5.55-16.86-5.55-14.89 0-27.34 10.35-29.6 24.61-.6 3.76-.4 7.37.52 10.68h-66.23c.82-1.97 1.43-4.03 1.77-6.16 1.14-7.21-.88-14.48-5.54-19.94-5.07-5.94-12.92-9.35-21.53-9.35-15.67 0-29.72 11.23-32 25.57-.53 3.34-.37 6.69.41 9.87h-37.68l1.89-11.94c.86-5.44-.7-10.96-4.28-15.15s-8.79-6.59-14.3-6.59h-25.4c-3.35 0-6.54 1.41-8.79 3.89s-3.35 5.79-3.03 9.12c.09.9.13 1.88.14 2.92l-.13.02-1.6 17.73h-15.23-5.93-68.47-19.89-24.63-14.56l.54-3.43c.19-1.2.41-2.6.64-4.1v-.01c.27-1.77.31-3.54.17-5.28-.81-23.23-23.23-23.1-23.23-23.1h-57.23c-40.44 0-75.84 30.99-82.35 72.09-3.21 20.25 1.14 38.55 12.23 51.54 4.8 5.62 10.76 10.08 17.58 13.28 3.42 1.3 9.85 3.17 19.08 3.6h26 26.82 34.49 693.48c4.44-1.11 7.89-4.72 8.76-9.25v.01l.01-.05c.06-.33.11-.67.15-1.01z"/><path d="m849.62 708.56h-780.8c-.22 0-.45-.01-.67-.02-10.93-.51-18.82-2.74-23.52-4.52-.34-.13-.68-.27-1.02-.43-8.77-4.12-16.31-9.83-22.4-16.96-13.87-16.24-19.38-38.67-15.5-63.14 7.61-48.02 49.12-84.24 96.58-84.24h57.23 20.36c14.36 0 15.73 9.56 17.21 35.93h119.88l.42-4.63c0-.04.01-.09.01-.13s-.01-.08-.01-.11c-.72-7.36 1.72-14.72 6.7-20.2 4.97-5.47 12.06-8.61 19.45-8.61h25.4c9.73 0 18.93 4.24 25.25 11.63 5.29 6.19 8.08 14.03 7.96 22.05h6.96c4.4-20.36 23.67-35.45 45.79-35.45 12.83 0 24.67 5.25 32.48 14.4 5.12 5.99 8.23 13.33 9.07 21.05h35.5c3.97-20.54 22.06-35.29 43.56-35.29 7.83 0 15.09 1.91 21.29 5.55h60.22c11.5 0 19.83.84 27.01 2.71 5.24 1.37 9.84 3.29 14.06 5.86 1.34.82 2.45 1.56 3.5 2.35.11.08.23.17.34.26.29.22.61.48.93.74l.15.12c5.87 4.77 10.46 10.84 13.47 17.7h44.66c-.01-.35-.03-.66-.06-.93-.71-7.36 1.73-14.72 6.7-20.19 4.94-5.44 11.96-8.57 19.3-8.61 2.81-.05 41.17-.74 58.15-.48 1.6-.06 4.33-.07 7.62.29.65.06 1.24.13 1.78.22 8.79 1.27 16.07 4.71 21.08 9.97.07.07.14.15.21.22.91.86 1.74 1.72 2.5 2.61 7.01 8.15 10.12 18.91 8.53 29.53l-14.12 97.86c-.07.58-.16 1.18-.26 1.76-.03.15-.05.29-.09.44-1.99 9.87-9.56 17.81-19.35 20.26-1.16.29-2.33.43-3.51.43zm-780.44-28.8h775.39l13.86-96.1c0-.03.01-.06.01-.09.35-2.34-.33-4.71-1.87-6.5-.18-.21-.47-.49-.86-.82-.41-.35-.79-.72-1.15-1.11-.56-.31-1.9-.86-4.21-1.17-.09-.01-.19-.03-.28-.04-.1-.01-.2-.02-.28-.03-1.94-.22-3.49-.15-3.66-.14-.32.02-.63.02-.95.02-14.18-.23-46.21.28-55.27.44.02.57.03 1.15.03 1.76 0 4.01-.42 8.82-1.37 15.61-.99 7.12-7.08 12.41-14.26 12.41h-68.54c-7.12 0-13.17-5.2-14.24-12.24-.73-4.82-3.05-8.94-6.7-11.91l-.43-.35c-.34-.25-.77-.54-1.33-.88-1.77-1.08-3.85-1.93-6.33-2.58-4.7-1.23-10.79-1.78-19.73-1.78h-64.66c-3.3 0-6.49-1.13-9.06-3.21-1.9-1.54-4.59-2.35-7.8-2.35-7.76 0-14.23 5.24-15.37 12.47-.26 1.67-.21 3.2.17 4.54 1.21 4.34.33 8.99-2.39 12.58s-6.97 5.7-11.47 5.7h-66.23c-4.82 0-9.32-2.41-11.99-6.43-2.67-4.01-3.15-9.1-1.29-13.54.4-.95.67-1.9.82-2.84.48-3.05-.34-6.09-2.27-8.34-2.33-2.73-6.19-4.3-10.58-4.3-8.48 0-16.62 6.15-17.77 13.43-.22 1.41-.17 2.82.17 4.2 1.05 4.29.07 8.83-2.66 12.31s-6.91 5.51-11.33 5.51h-37.68c-4.21 0-8.21-1.84-10.95-5.05-2.74-3.2-3.93-7.44-3.27-11.6l1.89-11.94c.2-1.27-.17-2.56-1-3.54-.84-.98-2.06-1.55-3.35-1.55h-22.71c.01.46.02.92.03 1.41.01 1.14-.12 2.26-.36 3.33l-1.43 15.83c-.67 7.42-6.89 13.11-14.34 13.11h-148.74c-4.21 0-8.21-1.84-10.95-5.05-2.74-3.2-3.93-7.44-3.27-11.61l.54-3.43c.18-1.15.39-2.49.61-3.92 0-.03.01-.05.01-.08.09-.62.11-1.27.06-1.93-.02-.23-.03-.47-.04-.7-.08-2.2-.31-8.9-8.96-9.21h-57.11c-33.43 0-62.72 25.77-68.13 59.94-2.54 16.02.64 30.2 8.96 39.93 3.3 3.87 7.42 7.01 12.23 9.36 2.4.84 7.01 2.12 13.84 2.47zm615.32-100.22c.04.03.09.07.13.1-.04-.03-.09-.06-.13-.1zm164.82-5.76c.15.03.35.08.58.11-.19-.04-.38-.07-.58-.11z"/><path d="m823.33 527.66-13.75-23.47s-1.08-3.21-4.89-4.79-8.64-3.49-9.61-4.61c-.97-1.11-11.41-12.32-11.41-12.32l-9.96-10.65s-2.69-2.54.22-6.78c2.92-4.24 13.77-17.06 18.3-40.26 4.53-23.21-4.06-42.12-15.3-53.12s-10.98-10.98-12.41-12.91-6.02-3.57-8.96.93c-2.93 4.5-2.34 10.81-8.47 19.79-6.13 8.97-14.82 17.24-19.75 20.29-4.92 3.05-4.7 3.59-6.69 2.14s-5.2-7.69-15.59-12.35-18-4.16-21.93-4.18c-3.92-.02-4.29 1.52-1.91 4.83s2.08 14.79 1.02 18.64-6.45 17.06-16.92 17.35c-10.48.3-16.31-2.21-19.32-3.99s-2.64.33-1.86 4.05 4.68 11.32 3.36 18.8c-1.32 7.49-5.68 13.71-10.03 16.02-4.35 2.3-5.85 1.41-3.49 4.98s2.47 5.67 3.88 7.86c1.27 1.96 1.71.73 2.83 1.65.13.11.27.24.42.41.93 1.07 1.11 2.08 1.32 2.69.12.35.25.56.53.58.78.06.78.06.78.06l-4.43 58.51s.45 12.06-3.62 17.78-4.81 8.81-4.11 13.56c.71 4.76 1.43 9.25 2.81 11.97 1.37 2.71 1.8 7.71 2.1 10.87s-.33 8.34 5.15 8.47 10.66.76 17.5.2 16.61-1.95 50.69-10.5c34.07-8.55 52.6-18.99 72.9-28.79 20.31-9.79 40.52-25.61 40.52-25.61s4.19-3.36.08-8.1zm-63.61-52.04c0-.01 0 0 0 0zm.06-.09c.01-.02.03-.04.04-.07-.01.02-.02.05-.04.07zm.1-.16c.02-.04.05-.08.07-.12-.02.04-.04.09-.07.12zm.12-.2c.08-.16.17-.34.25-.56-.08.22-.17.4-.25.56zm.27-.62c.03-.09.06-.19.09-.29-.03.1-.06.19-.09.29zm.12-.4c.03-.1.05-.2.08-.31-.03.11-.05.21-.08.31zm.1-.42c.02-.12.04-.25.06-.38-.02.13-.04.26-.06.38zm.07-.47c.04-.33.06-.71.05-1.11.01.4-.01.77-.05 1.11zm1.37 5.22c.01.01.03.02.05.03-.02-.01-.04-.02-.05-.03zm.14.06c.05.01.11.02.18.02-.07 0-.13-.01-.18-.02zm.28.01c.06-.01.12-.01.2-.03-.08.02-.14.02-.2.03zm.32-.05c.12-.03.24-.06.39-.11-.15.05-.28.08-.39.11zm.37-3.07c.04-.09.09-.18.13-.27-.04.1-.08.18-.13.27zm.27-.55c.07-.14.14-.29.2-.44-.06.15-.13.29-.2.44zm.32-.68c.1-.23.2-.47.3-.72-.1.25-.2.49-.3.72zm-3.57-5.17c.09.28.16.55.22.81-.06-.27-.13-.53-.22-.81zm.28 1.04c.04.18.08.36.11.53-.04-.17-.07-.35-.11-.53zm.14.77c.03.16.05.32.07.48-.02-.16-.04-.32-.07-.48zm.09.68c.02.17.03.33.03.49 0-.16-.01-.32-.03-.49z"/><path d="m653.45 608.87c-2.69 0-5.14-.12-7.41-.24-1.57-.08-3.05-.15-4.54-.19-4.72-.11-8.52-2.45-10.43-6.4-1.27-2.65-1.41-5.37-1.5-7.35-.02-.39-.03-.76-.07-1.1l-.03-.34c-.17-1.8-.62-6.58-1.34-8.01-1.82-3.6-2.63-8.32-3.49-14.11-1.02-6.83.38-11.72 5.33-18.68 1.81-2.54 2.46-9.53 2.32-13.45l-.01-.39.03-.4 4.16-54.83c-.19-.33-.36-.68-.51-1.05-1.57-.72-2.89-1.94-4-3.66-.99-1.53-1.53-2.91-2.02-4.13-.48-1.2-.89-2.24-1.82-3.66-1.08-1.64-3.1-4.69-1.94-8.48 1.12-3.66 4.23-4.95 5.9-5.64.65-.27 1.32-.54 2.11-.96 2.04-1.08 5.37-5.21 6.39-11.01.67-3.78-.82-8.19-2.01-11.73-.55-1.63-1.02-3.03-1.31-4.4-.72-3.43-1.81-8.6 2.59-11.75 1.59-1.14 4.98-2.64 9.75.19 3.64 2.16 9.01 3.19 15.53 3.01 5.37-.15 9.45-8.98 10.33-12.18.72-2.63.76-10.61-.12-12.9-2.8-4.01-3.38-7.67-1.71-10.9 1.14-2.21 3.71-4.84 9.46-4.84h.3.83c4.5-.02 12.87-.08 23.74 4.8 7.97 3.58 12.46 8.04 15.11 11.01.18-.12.38-.24.58-.36 3.6-2.23 11.7-9.58 17.64-18.27 3.01-4.41 4.03-7.94 5.01-11.35.79-2.76 1.61-5.61 3.38-8.31 2.48-3.79 6.14-5.95 10.31-6.07 3.91-.11 7.96 1.77 10.21 4.8l.31.42c.87 1.19 1.34 1.84 11.37 11.64 15.19 14.87 21.66 37.11 17.28 59.5-4.35 22.27-14.15 35.69-18.34 41.42-.23.32-.45.61-.64.87l8.64 9.24c1.6 1.71 8.96 9.61 11.09 11.97 1.24.69 4.52 2.04 6.34 2.8l1.13.47c5.33 2.21 7.67 6.24 8.52 8.16l13.22 22.55c2.84 3.57 3.22 6.98 3.02 9.26-.44 4.91-3.77 7.83-4.44 8.37l-.09.07c-.85.66-21.05 16.4-41.8 26.4-2.78 1.34-5.53 2.69-8.29 4.05-17.63 8.68-35.86 17.67-65.96 25.22-35.2 8.83-44.91 10.13-51.83 10.69-2.23.16-4.32.23-6.28.23zm-9.79-14.46c1.06.04 2.09.09 3.09.15 3.83.2 7.44.38 11.84.02 6.06-.5 15.38-1.74 49.54-10.31 28.65-7.19 46.2-15.83 63.16-24.19 2.79-1.38 5.58-2.75 8.39-4.11 16.23-7.83 32.63-19.81 37.67-23.61l-14.46-24.67v-.16c-.15-.19-.43-.47-.91-.67l-1.1-.45c-6.51-2.68-9.34-3.98-11.13-6.05-.61-.7-6.24-6.77-11.24-12.13l-8.82-9.43-.03.06-2.67-1.28c-.03.08-.05.15-.08.23v.01l-1.09-.38 3.64 1.82-.13.27-.83-.42h-2.13c-.05.1-.1.19-.15.28l-.54-.28h-.49l.91.51c-.09.16-.19.33-.28.47l-.11.17-.16.23-.21.3-2.24-1.68h-.1l.34 1.07 1.36 1.36-1.36-1.36 1.87 5.86c-.37.12-.69.2-.99.27l-1.55-6.8-.14-.14 1.36 7.01c-.32.06-.62.1-.9.13l-.76-7.4.1 7.44c-.64 0-1.26-.06-1.87-.2l1.57-7.03-3.08 6.5-.74-.35-.69-.54 4.31-5.81h-7.07 7.08l.18-.25-1.72-1.72-2.15-1.36-4.74-2.37.18-.37-.05.01-.02-.14.15-.02.06-.12-.22.04c-.02-.08-.03-.17-.06-.26l.43-.1.12-.16-.58.14c-.03-.13-.07-.26-.11-.39l1.41-.48.03.03 10.86-3.36c.27-2.01 1.05-4.13 2.5-6.25.34-.5.78-1.1 1.3-1.81 3.63-4.97 12.14-16.62 15.89-35.81 3.46-17.72-1.51-35.19-13.31-46.73-7.21-7.06-9.86-9.73-11.33-11.43-.28.79-.55 1.72-.85 2.78-1.11 3.85-2.63 9.12-6.91 15.4-6.82 9.99-16.16 18.78-21.86 22.31-.92.57-1.65 1.05-2.24 1.43-2.86 1.87-6.78 4.43-12.3.41-1.16-.85-2.03-1.85-3.04-3.02-1.98-2.3-4.97-5.76-11.29-8.6-5.11-2.29-9.35-3.12-12.76-3.41 1.31 6.83.38 15.38-.38 18.15-.3 1.08-1.99 6.75-6.03 12.29-4.75 6.51-10.79 10.04-17.48 10.23-4.39.13-8.45-.18-12.13-.91 1.11 4.01 1.95 8.86 1.05 13.96-1.5 8.55-6.23 16.27-12.23 20.17.33.74.59 1.39.82 1.97.07.18.13.34.19.49.62.28 1.28.67 1.93 1.21.45.36.86.77 1.26 1.23.34.39.63.78.89 1.15l4 .29-4.94 65.18c.08 3.18.01 14.76-4.93 21.7-3.42 4.81-3.23 6.1-2.88 8.45.44 2.98 1.19 7.97 2.12 9.81 1.78 3.52 2.34 8.19 2.8 13.06l.03.33c.05.54.08 1.12.11 1.73.04.12.04.26.05.41zm156.73-103.31.02.02c-.01-.01-.02-.02-.02-.02zm-.75-.69s0 0 0 0zm-37.1-11.04.14.14-.09-.4h-.1zm3.84-.26h2.13l-1.75-.87c-.12.29-.25.59-.38.87zm-1.19 0h.49l-2.47-1.3-.11.14zm-2.19 0h.11l-.14-.11zm-.51 0h.1l-.09-.39-.07.08zm-.25 0h.02l-.02-.04zm0-.04.02.02-.01-.08-.01.02zm0-.1v.06l.01-.02-.01-.06zm-1.93-1.83 1.72 1.72.18-.3-.01-.14-.74-.56zm2.1 1.58.01.08.07-.08-.02-.09zm-.18-.26v.12l.03-.04-.03-.08v-.02h-.01v.01zm.1-.42.01.01-.01-.04v-.02l-.04-.13-.08-.05zm.66-.15.12.07.11-.14-.13-.07zm-.76-.08.06.03-.08-.33zm4.36-1.01 2.21 1.02-.12-.13c-.17-.17-.34-.36-.51-.55l-.93-.41c-.02.08-.04.15-.06.23zm-3.81.97.05.03.1-.14-.08-.04zm-1.25-.31.6.3v-.01l-1-.64zm1 .17.21.12.07-.15-.27-.14v-.01l-.07-.04.21-.95.58.22.06-.11-.61-.21.03-.12-.53-.27v.21l-.16-.06.04.12.12.05v.35l.25.77-.03-.02v.02l-.21-.11v.17l.21.12.02-.1.05.14.01-.05zm-.37-.2.05.03-.09-.23v.01l-.01-.01.05.2v-.01zm-1.86-1.03 1.79.99-.02-.18-2.11-1.11zm3.63.52.77.29-.72-.36zm-.22-.08.22.08.06-.07-.22-.11zm-.42-.16.28.1.08-.11-.3-.11zm-1.36-.45.1.53-.01-.14zm2.19.01.22.06-.2-.1zm-2.07-.02-.04-.12zm1.52-.13.43.12.04-.05-.41-.18zm-1.64.08.05.02-.01-.11-3.39-1.19.07.06zm.97-.28.65.19.05-.1-.76-.21.04-.16-.68-.32v.31l-.1-.03.1.05v.07l.6.23v-.01l.09.03zm2-.18h.02zm-.37-.07.36.08-.32-.14zm-.68-.14.58.12.06-.08-.28-.12-.3-.06zm-1.97.1.04.01-.01-.1-.06-.02zm1.8-.14.15.03.07-.14-.81-.16zm-1.85-.03.08.04-.03-.34-.16-.08zm-3.68-.9 2.83.81-.36-.18-2.54-.7zm4.04.62.75.16.03-.14-.78-.16zm-4.92-.43.88.49-.57-.37-.49-.26.06.05-.05-.03.08.06-.19-.13.48.33-.24-.17zm4.91.05.79.36.06-.25-.85-.37zm3.34.17 1.28.17c-.03-.05-.05-.11-.08-.16l-1.1-.13zm-3.82.1.16.03-.01-.14-.18-.04zm-1.13-.23 1.09.23v-.01l-.45-.21-1.03-.2zm4.53.08.42.05.1-.13-.48-.06-.08.12zm-.5-.2.41.16.08-.1zm-2.42-.19.91.12.02-.11-.94-.11zm-.59 0 .22.1-.01-.15.35.05-.61-.27.02.09-.07-.01-.07-.13.04.13-.39-.05.45.2-.01-.05.06.01zm-3.8-.28 1.62.34-.35-.17-1.41-.28zm1.39-.11.76.1-.24-.11-.73-.09zm2.99-.37 1.03.4.25-1.13 2.5-.06c-.02-.07-.04-.14-.06-.22l-2.4.1.05-.24c-.46-.1-.92-.13-1.39-.14l.01.43-.51.02-.04-.42c-.12.01-.25.03-.39.06l.07.38h-.11l-.08-.36c-.05.01-.11.03-.17.05l.1.32-.84.03.31.12.58-.01.09.27.12.05-.07-.32h.11l.07.37.33.13-.05-.5.5-.01zm-5.88.3-.17-.12zm1.11-.16.88.12-.18-.09-.78-.09zm-1.39-.03-.13-.09zm-.77-.16.29.08-.22-.07.13.03-.18-.09-.38-.08.25.09-.47-.13.1.01-.41-.1-.64-.18h.18l-.07-.02-.18.01-.04-.01-.01.03v.01l.3.08-.3-.06-.01.04.21.04-.21-.03v.02l1.14.21-.05-.03.27.06-.29-.1zm.01-.09h.01l-.11-.05zm-.41-.06.33.04-.1-.05-.38-.05zm-.86-.32.07.03.46-.01-.06-.03zm.56-.02.06.04h.12l-.06-.04zm1.98-.08.08.07h.16l.04-.07zm.63-.02.15.07.44-.01-.17-.08zm1.28-.06.21.09.4-.01-.23-.1zm-4.79.06.02.01.5-.05-.13-.07-.37.04c0 .01-.01.02-.01.03 0 .02 0 .03-.01.04zm.5-.12.12.07.15-.01-.11-.07zm-.38-.13c-.01.01-.01.02-.02.03l.06-.01zm2.35-.09.13.11.75-.07-.03-.01.06-.13zm-2.32.03.12.07.19-.03-.13-.09-.16.03c-.01-0-.02.01-.02.02zm3.69-.18.27.12.31-.03-.29-.13zm1.37-.16.36.14 6.51-.61c-.02-.1-.04-.2-.05-.31zm-3.14-.04.14.12 1.34-.22h-.01c.03-.06.05-.12.08-.19zm2.07-.38.35.14 7.46-1.21c-.01-.12-.02-.23-.03-.35zm-2.54-.03.14.12 10.15-2.28c0-.11 0-.23 0-.34z"/><path d="m819.63 528.18s-13.38-21.35-16.59-23.93c-3.22-2.58-10.26-2.82-13.14-2.77-2.88.06-7.56-.28-10.93-.78-3.36-.5 1.64-.93 3.55-2.1s3.99-1.02 3.4-3.68-4.79-6.09-4.79-6.09-9.23-9.81-11.95-12.09c-2.71-2.28-3.46.8-6.13 1.66-.94.3-1.26.19-1.24-.22-.51-.12-1.61-.61-2.09-2.55-.09.11-.14.17-.14.17s-3.49-9.66-5.83-13.49-10.72-14.62-20.12-18.43-25.34-11.22-49.25-2.21-29.85 22.59-29.85 22.59c-6.08 8.19-6.12 16.15-6.12 16.15l-2.1 22.07s-1.33 37.03-1.54 39.89c-.2 2.86.13 5.5 1.65 6.13s2.73-1.64 5.11-1.99-.2 2.86-.2 2.86-8.4 7.77-12.04 11.17-2.45 8.71-1.21 16.91c1.25 8.19 2.45 13.25 2.98 16.94.52 3.7 7.39 2.62 7.39 2.62s35.64-1.12 88.77-20.33c53.14-19.22 78.77-41.44 81.52-43.34 2.75-1.89.89-5.16.89-5.16z" fill="#b37f00"/><path d="m693.14 568.03c.26.2.52.41.77.62 1.8-.72 2.91-1.13 2.91-1.13s-.08 7.24 9.35 7.47c9.42.23 17.68-10.81 35.42-19.43 17.74-8.61 49.27-19.76 49.27-19.76s2.29-1.37 7.91-.09 5.81 1.73 9.47-.42c3.67-2.15 5.34-6.06 1.47-6.19 0 0-3.32-1.63-22.11 3.18s-56.39 17.93-82.13 27.95c-5.19 2.02-10.18 4.06-14.89 6.08.84.51 1.66 1.05 2.45 1.64.04.02.07.05.11.08z"/><path d="m823.33 527.66-13.75-23.47s-1.08-3.21-4.89-4.79-8.64-3.49-9.61-4.61c-.97-1.11-11.41-12.32-11.41-12.32l-9.96-10.65s-2.69-2.54.22-6.78c2.92-4.24 13.77-17.06 18.3-40.26 4.53-23.21-4.06-42.12-15.3-53.12s-10.98-10.98-12.41-12.91-6.02-3.57-8.96.93c-2.93 4.5-2.34 10.81-8.47 19.79-6.13 8.97-14.82 17.24-19.75 20.29-4.92 3.05-4.7 3.59-6.69 2.14s-5.2-7.69-15.59-12.35-18-4.16-21.93-4.18c-3.92-.02-4.29 1.52-1.91 4.83s2.08 14.79 1.02 18.64-6.45 17.06-16.92 17.35c-10.48.3-16.31-2.21-19.32-3.99s-2.64.33-1.86 4.05 4.68 11.32 3.36 18.8c-1.32 7.49-5.68 13.71-10.03 16.02-4.35 2.3-5.85 1.41-3.49 4.98s2.47 5.67 3.88 7.86c1.27 1.96 1.71.73 2.83 1.65 3.7-5.04-.55-7-1.77-9.15-1.39-2.45 2.36-3.75 5.37-5.63s5.18-3.03 8.6-10.63.3-11.48.54-14.86.82-4.12 2.38-4.01 6.19 1.23 11.22.28 12.61-4.59 18.97-13.03c6.35-8.44 6.04-15 6.5-17.84s-.5-3.96 2.88-3.72 5.98.43 12.36 2.71c6.37 2.29 10.24 6.74 13.27 8.27 3.03 1.52 1.64 2.73 10.61-2.12s27.46-25.75 27.46-25.75 1.09-4.37 4.55-1.51 13.97 13.02 18.66 24.34c4.68 11.31-2.37 44.28-12.8 62.09 0 0-4.29 5.18-5.57 8.49s-3.55 5.76-.87 4.91c2.67-.86 3.42-3.94 6.13-1.66 2.71 2.29 11.95 12.09 11.95 12.09s4.2 3.44 4.79 6.09c.6 2.66-1.49 2.51-3.4 3.68s-6.91 1.6-3.55 2.1 8.05.84 10.93.78 9.92.19 13.14 2.77c3.21 2.58 16.59 23.93 16.59 23.93s1.86 3.27-.89 5.16c-2.75 1.9-28.39 24.12-81.52 43.34-53.14 19.22-88.77 20.33-88.77 20.33s-6.88 1.08-7.39-2.62c-.52-3.7-1.73-8.75-2.98-16.94s-2.43-13.51 1.21-16.91 12.04-11.17 12.04-11.17 2.58-3.21.2-2.86-3.59 2.62-5.11 1.99-1.86-3.27-1.65-6.13c.2-2.86 1.54-39.89 1.54-39.89l2.1-22.07s.04-7.95 6.12-16.15c0 0 5.94-13.58 29.85-22.59s39.85-1.6 49.25 2.21 17.78 14.6 20.12 18.43 5.83 13.49 5.83 13.49 1.97-1.95.48-6.76-5.06-13.43-12.64-20.77-18.56-14.66-37.74-17.07c0 0-9.4-.15-12.8-.13s-1.1.71-7.78-.82c-6.69-1.52-13.23-1.47-17.89 5.26s1.82 3.79-5.41 9.81-17.69 17.04-21.35 28.02c-.7 2.09-1.37 3.85-2 5.33.12.35.25.56.53.58.78.06.78.06.78.06l-4.43 58.51s.45 12.06-3.62 17.78-4.81 8.81-4.11 13.56c.71 4.76 1.43 9.25 2.81 11.97 1.37 2.71 1.8 7.71 2.1 10.87s-.33 8.34 5.15 8.47 10.66.76 17.5.2 16.61-1.95 50.69-10.5c34.07-8.55 52.6-18.99 72.9-28.79 20.31-9.79 40.52-25.61 40.52-25.61s4.17-3.37.06-8.11z"/><path d="m761.81 478.17c.04-.76 1.28-2.54 2.11-4.68 1.28-3.31 5.57-8.49 5.57-8.49 10.42-17.82 17.48-50.78 12.8-62.09s-15.2-21.48-18.66-24.34-4.55 1.51-4.55 1.51-18.49 20.9-27.46 25.75-7.58 3.64-10.61 2.12-6.89-5.98-13.27-8.27c-6.37-2.28-8.97-2.47-12.36-2.71-3.38-.24-2.42.87-2.88 3.72-.46 2.84-.15 9.4-6.5 17.84-6.35 8.43-13.93 12.08-18.97 13.03s-9.66-.17-11.22-.28-2.14.63-2.38 4.01 2.88 7.26-.54 14.86-5.59 8.75-8.6 10.63-6.76 3.18-5.37 5.63c1.22 2.15 5.47 4.11 1.77 9.15.13.11.27.24.42.41.93 1.07 1.11 2.08 1.32 2.69.63-1.48 1.31-3.24 2-5.33 3.66-10.98 14.12-22 21.35-28.02s.74-3.08 5.41-9.81c4.66-6.73 11.2-6.78 17.89-5.26s4.38.84 7.78.82 12.8.13 12.8.13c19.18 2.41 30.16 9.73 37.74 17.07s11.15 15.96 12.64 20.77c1.24 4.01.08 6.03-.34 6.59.5 1.93 1.6 2.42 2.11 2.55z" fill="#e90000"/><path d="m673.16 440.61s-1.17-5.13 5.59-7.51c6.76-2.37 11.58.83 11.58.83s-5.99.89-10.03 2.14c-4.06 1.25-7.14 4.54-7.14 4.54z" fill="#f7b500"/><path d="m680.27 445.2c16.02-5.88 18.68-2.97 27.01.26s33.02 20.36 62.03 50.75 27.32 32.47 23 34.57c0 0-26.28 5.15-67.3 20.01s-61.93 27.86-61.93 27.86-5.23-.59-5.41-7.19c-.19-6.6 1.49-70.15 7.37-94.1 5.89-23.96 12.68-30.37 15.23-32.16z" fill="#f7b500"/><path d="m680.39 434.76c-.06.85-.8 1.5-1.65 1.43-.85-.06-1.5-.8-1.43-1.65.06-.85.8-1.5 1.65-1.43.85.06 1.5.8 1.43 1.65z" fill="#fff"/><path d="m678.41 449.99s-11.39 8.85-15.37 24.59-3.66 42.11-4.52 54.13c-.86 12.01-1.18 13.53-1.18 13.53l15.43-10.1s-.44-15.4.26-43.67 7-36.61 7-36.61 2.11-4.9-1.62-1.87z" fill="#fff"/><path d="m698.17 443.93s13.04-1.27 23.53 5.63 30.24 28.5 36.41 34.43 10.22 10.61 11.49 11.36c1.26.75 2.76 4.37 2.76 4.37l-14.43 2.26s.94-.81-4.39-9.31c-5.32-8.5-15.51-19.55-28.73-31.25s-12.08-12.28-19.86-13.93c-7.8-1.66-11.82-3.7-6.78-3.56z" fill="#fff"/><path d="m764.14 507.04s3.31-.2 7.96-.75 7.02.06 7.02.06 2.14.81 3.36 2.22c1.22 1.4 13.25 17.41 13.25 17.41s2.12 4.1-1.17 4.09c-3.29-.02-14.12.97-14.12.97s-2.65.25-3.85-1.37-12.84-20.02-12.84-20.02-1.14-2.72.39-2.61z" fill="#fff"/><path d="m772.85 501.95s-22.7 1.24-59.87 14.39c-37.17 13.16-52.67 27.42-52.67 27.42s-5.02 2.71-4.35-.53c.67-3.25 4.42-6.49 12.64-10.95s14.78-10.14 50.76-22.07c35.98-11.92 51.32-11.49 51.32-11.49s4.26-1.23 5.15 1.68c.88 2.93-1.28 2.33-2.98 1.55z"/><path d="m717.03 202.02.01-13.29h-65.88v5.5h-66.71c-8.56 0-17.18 2.78-23.46 8.19-2.45-2.1-5.34-3.86-8.63-5.21-6.9-2.83-13.51-2.97-14.76-2.97h-46.95c-8.42 0-16.9 2.69-23.13 7.96-5.85-5.06-13.63-7.68-21.16-7.68l-15.8-.02v-10.37h233.34v-179.63h-66.12v30.32h-14.09c-8.66.04-17.37 2.91-23.65 8.46-6.7-5.65-15.68-8.32-23.04-8.32-4.93 0-140.32-.08-140.32-.08-8.52.03-17.09 2.81-23.33 8.21-8.98-7.69-20.78-8.28-23.23-8.28h-141.19c-19.65 0-32.85 15.18-32.85 29.35v157.6h85.52v38.66h9.33v54.1c0 6 1.63 11.1 4.38 15.29h-1.16c-16.31 0-32.82 10.11-32.82 29.43v90.56c0 6.23 1.76 11.48 4.69 15.75h-44.66c-15.44 0-28 12.56-28 28v67.02c0 15.44 12.56 28 28 28h497.86c10.4 0 18.86-8.46 18.86-18.86v-85.31c0-10.4-8.46-18.85-18.86-18.85h-59.5c2.93-4.27 4.69-9.52 4.69-15.75v-90.47c0-16.9-12.67-26.74-26.8-28.93v-39.74l33.54-.01v23.83c0 7.66 2.72 14.43 7.88 19.58 9.1 9.09 22.3 9.57 24.91 9.57h46.88c16.3 0 32.81-10.01 32.81-29.14v-112.47z"/><path d="m583.76 169.96h65.98v-151.3h-37.8v30.32l-28.18.01s-18.79.1-18.79 15.27v90.68c-0 14.9 18.79 15.02 18.79 15.02zm18.98-90.62h9.17v61h-9.17zm-327.77 112.76v-143.12h-66.05c-11.32 0-18.68 8.1-18.68 15.19l-.01 90.99c0 14.91 18.77 15 18.77 15h28.17.01v7.64h-46.94v30.12l66.11-.02c18.59.01 18.62-15.8 18.62-15.8zm-37.8-52.06h-9.15v-60.71h9.15zm271.85-60.62h9.1v90.55h37.5.01v-105.57h-.01v-.01c0-11.58-12.8-15.26-18.63-15.26-12.58 0-21.84 2.62-27.97 7.62v-7.61h-37.51v120.82h37.51zm240.46 166.95v-30.19h-46.61-.01l.01-13.29h-37.55v13.29h-9.32v30.19h9.32v68.1c0 15 18.65 14.98 18.65 14.98h46.85s18.65.06 18.65-14.98v-60.69h-37.3v45.48h-9.31-.01v-52.9h46.63zm-99.18-7.64.14-30.34h-65.98s-18.77.01-18.77 15.29v105.89h.01 37.76v-53.07l46.98-.01v-30.34h-46.98v-7.4zm-94.02 75.78v-22.71h-37.58v7.64h-9.13v-15.29h46.7v-60.53c0-15.26-18.66-15.23-18.66-15.23h-46.95s-18.67 0-18.67 15.28v90.83c0 14.98 18.7 15.03 18.7 15.03l46.93.02c-.02.01 18.66-.06 18.66-15.04zm-46.71-75.78h9.13v.01 15.04h-9.13zm-224.48 75.8c0 14.93 18.67 15.03 18.67 15.03h46.87s18.66-.08 18.66-15.04h-.01v-60.63h-37.31v45.58h-9.33v-53.21h46.64v-30.08h-47.14l.03-13.81h-37.6l.02 13.81h-8.83v30.08h9.33zm37.03-189.77h9.07v67.97c0 15 18.89 15.02 18.89 15.02h28.77v121.82h.01 37.54v-90.63h9.07v90.63h37.53v-105.67c0-15.23-16.65-15.23-16.65-15.23l-29.94-.03v-30.95l-47.68.02v-60.58c.05-6.52-4.69-8.92-4.69-8.92s4.68-1.83 4.69-6.1v-37.71c0-15.27-18.64-15.43-18.64-15.43h-65.5v145.07h37.53zm-.01-45.37 9.08.04v15.03h-9.08zm74.6 90.49h65.53v-105.57c0-15.26-18.67-15.26-18.67-15.26h-46.85s-18.65.06-18.65 15.26v22.4h37.53v-7.39h9.11l-.01 15.02h-27.98s-18.65.02-18.65 15.01v45.51c-.01 14.98 18.64 15.02 18.64 15.02zm18.88-45.29h9.1v15.23h-9.1zm-94.59 219.38h-46.84s-18.66-.03-18.66 15.27v22.39h37.52v-7.39h9.11v15.03h-27.98s-18.65-.03-18.65 15.02v45.52c0 14.97 18.65 15 18.65 15h65.51v-105.57c0-15.3-18.66-15.27-18.66-15.27zm-18.87 90.79h-9.11v-15.24h9.11zm93.69-.12h-9.07v-90.8h-37.49v105.72c0 15.14 18.63 15.23 18.63 15.23h46.8s18.62-.1 18.62-15.08c0-.63 0-105.72 0-105.72h-37.48v90.65zm93.92-83.12.01-13.72h-37.55v13.72.01h-9.33v30.19h9.33v68.1c0 14.69 18.64 14.98 18.64 14.98h46.85s18.64-.08 18.64-14.98v-60.7h-37.28v45.48h-9.32v-52.89h46.6v-30.2h-46.59zm121.81-7.43h-46.94s-18.69.03-18.69 15.23v90.47c0 15 18.69 15 18.69 15h46.94s18.7-.03 18.7-15v-90.47c.01-15.34-18.7-15.23-18.7-15.23zm-18.89 90.7h-9.12v-60.47h9.12z" fill="#fff"/><path d="m225.32 142.81-1.2 1.19h17.15v-68.64l-1.19 1.19h.01v66.26zm41.46 58.8.02-.02.03-.02.06-.04c.11-.08.2-.17.3-.25l-.85-.84c-.06.05-.12.1-.18.14l-.05.04c-1.72 1.14-3.32 1.95-4.88 2.5-1.62.55-3.23.81-4.95.81h-61.97v-22.18h46.96v-15.58h-32.15c-14.84 0-14.8-11.08-14.8-11.08v-90.74s-.35-9.92 14.03-11.39l62.73-.03v.01l1.18-1.18v-.01h-1.18l-62.73.03h-.07l-.05.01c-15.3 1.58-15.09 12.51-15.09 12.62v90.71s-.02 12.27 15.98 12.27h30.97v13.19h-46.95v24.56h63.15c1.87 0 3.61-.28 5.33-.89 1.69-.59 3.37-1.45 5.16-2.64zm238.29-35.65h-29.46v-112.83h29.51v12.05c2.9-2.38 6.51-5.33 6.51-5.33 2.64-2.14 6.06-3.81 10.14-4.92 4.32-1.2 9.49-1.8 15.32-1.8 3.66 0 6.75 1 9.75 3.17l.86-.85c-3.22-2.38-6.6-3.51-10.61-3.51-5.94 0-11.21.61-15.63 1.83-4.25 1.17-7.81 2.9-10.57 5.15 0 0-2.21 1.81-4.57 3.74v-10.71h-31.9v115.2h31.87zm17.15-90.55-1.18 1.19v90.55h31.88v-.02l-1.2-1.19v.02h-29.5zm61.64 91.74h63.16l-1.19-1.19h-61.97s-14.77-.1-14.77-11.02v-90.69c0-11.14 14.77-11.27 14.77-11.27h32.19v-30.3h29.77v.04l1.19-1.2v-.03h-32.16v30.3h-31s-15.95.06-15.95 12.4v90.75c.01 12.09 15.96 12.21 15.96 12.21zm15.77-24.01-1.19 1.19h17.15v-68.98l-1.19 1.19v66.6zm99.34 77.02v.02h46.59l1.21-1.19h-1.19-45.42v-.01zm0 22.22 1.19 1.19h45.42 1.16l-1.2-1.19zm16.13 59.69h-14.94l-1.19 1.19h17.31v-45.48l29.3.01 1.19-1.19-31.67-.01zm15.84 23.39s-48.23-.1-48.5-.1h-.01s-12.98.18-12.98-11.46v-71.52h-9.33v-22.2h9.33v-13.33h29.51l1.19-1.19h-31.89v13.33h-9.31v24.58h9.31v70.33c0 12.81 15.26 12.77 15.26 12.77l47.42-.02c.08-.01 5.44-.23 10.05-3.23l-.86-.86c-5.24 2.83-9.19 2.9-9.19 2.9zm-83.25-89.54-1.21-1.2h-46.88l1.18 1.2zm-48.11 36.57 1.19 1.19h46.96l-1.19-1.19zm-30.98-48.82v103.08h32.16l-1.19-1.18h-29.79v-101.9c0-11.24 14.77-11.29 14.77-11.29h61.98l1.2-1.19h-63.17s-15.96.01-15.96 12.48zm30.98 26.46h46.96l1.19-1.16-46.96-.02zm-92.7 6.45-1.19 1.19h17.11v-23.04h-17.11l1.2 1.19h14.73v20.66zm0 45.67-1.2 1.2h17.11v-7.65h29.59l1.19-1.19h-31.97v7.64zm30.81 23.31h-46.92s-14.7 0-14.7-11.66v-90.23c0-11.27 14.7-11.29 14.7-11.29h46.94c6.13 0 10.02 3.34 10.04 3.36l.84-.85s-4.31-3.7-10.88-3.7h-46.94s-15.88.01-15.88 12.48v90.23c0 12.83 15.78 12.85 15.78 12.85h47.02c3.4 0 6.58-1 9.89-3.11l-.85-.86c-3.04 1.89-5.94 2.78-9.04 2.78zm14.69-45.41-46.69.01 1.19 1.18h46.69zm-234.16-181.69h17.08v-23.03l-1.19 1.19.01 20.65h-14.72zm-.05 91.57h-29.48v-136.9h61.49s4.9-.26 10.49 3.58l.68-.96c-5.46-3.99-11.18-3.8-11.18-3.8h-62.67v139.27h31.86zm95.53-9.49v-.03l-47.67.01v-.02l-1.19 1.19v.02c3.15 0 47.67.05 47.67.05zm-1.2 32.09 32.12.01c3.19.02 6.02.85 8.64 2.5l.87.59.87-.86-1.08-.72c-2.84-1.8-5.86-2.68-9.3-2.71h-30.92zm1.2 114.12-1.2-1.2v.01h-29.53s-.01-117.92-.01-121.82h-32.79s-14.88-.03-14.88-11.03v-71.96l-1.18 1.19v70.81c0 12.16 16.02 12.18 16.02 12.18h31.65v121.81h31.92zm46.57 0-1.19-1.18h-29.5v-90.64h-17.08l1.2 1.18h14.7v90.64zm-186.41 21.04h46.85c5.44 0 9.05 2.7 9.05 2.7l.85-.86s-4.07-3.03-9.9-3.03h-46.85s-15.84 0-15.84 12.45v19.53h31.8l-1.19-1.25-29.43.06v-18.35c-0-11.27 14.66-11.25 14.66-11.25zm-.01 112.83s-14.65-.05-14.65-11.01v-45.52c0-11.02 14.66-11.02 14.66-11.02h31.96v-23.07h-17.08l1.18 1.19h14.72v20.7h-30.77s-15.84.02-15.84 12.21v45.52c0 12.17 15.84 12.2 15.84 12.2h62.52l-1.19-1.24zm15.97-23.17-1.19 1.18h17.19v-23.28h-17.16l1.21 1.19h14.76v20.92h-14.81zm122.86-353.61h.1v-.06l-1.19-1.12h-.11-29.32v-18.35c0-11.21 14.65-11.27 14.65-11.27h46.75c5.48 0 9.06 2.69 9.06 2.69l.04-.04c.04.02.06.04.06.04l.85-.85s-4.04-3.02-9.91-3.02h-.1-46.75-.1s-15.84-.02-15.84 12.45v19.53h.1zm-15.98 83.21h.11 62.41.1l-1.18-1.2h-.1-61.23s-14.65 0-14.65-11.01v-45.51c0-10.99 14.65-11.01 14.65-11.01h31.87.11v-23.07h-.11-16.99-.1l1.17 1.19h.1 14.63v20.71h-30.68-.1s-15.84.01-15.84 12.2v45.51c0 12.17 15.83 12.19 15.83 12.19zm16.08-24.36h-.1l-1.19 1.15v.03h.11 17.08.11v-23.28h-.11-17.05-.1l1.21 1.19h.1 14.67v20.91zm1.6 318.02h-46.8s-14.62-.14-14.62-11.08v-101.88l29.48.02 1.18-1.19-31.85-.01v103.06c0 12.17 15.81 12.27 15.81 12.27h46.8c4.67 0 8.46-2.22 9.97-3.21l-.85-.86c-1.36.88-4.45 2.88-9.12 2.88zm-14.85-113.98h-1.19v1.19 89.46h-14.71l-1.18 1.18h17.08v-90.64h29.48v.04l1.2-1.21v-.02h-1.2zm85.92 8.9h46.58l1.19-1.2h-46.59zm47.75 23.37-1.19-1.19h-46.56l1.2 1.19zm-31.63 58.51h-14.94l-1.18 1.18 17.32.01v-45.48h29.28l1.18-1.17-31.65-.01v45.47zm15.83 23.38h-43.42s-18.07-.32-18.07-11.56v-71.52h-9.32v-22.19h9.32v-13.11h29.52l1.18-1.19h-31.89v13.1h-9.32v24.58h9.32v70.33c0 12.47 19.22 12.75 19.22 12.75h43.45c1.79 0 6.44-.98 10.04-3.23l-.85-.86c-4.51 2.72-9.18 2.9-9.18 2.9zm-152.39-241.9h-45.43v-.01l-1.18 1.18v.02h46.59l1.2-1.19zm0 24.58h1.16l-1.2-1.19h-46.57l1.19 1.19zm-29.3 59.69v-45.48l29.3.01 1.18-1.19-31.67-.01v45.48h-14.94l-1.18 1.19zm23.83 19.3c-5.23 2.83-9.18 2.9-9.18 2.9s-48.23-.1-48.5-.1h-.01s-12.98.18-12.98-11.46v-71.52h-9.33v-22.2h9.33v-13.33h29.51l1.2-1.19h-31.9v13.33h-9.32v24.58h9.32v70.33c0 12.81 15.26 12.77 15.26 12.77l47.42-.02c.08-.01 5.45-.23 10.05-3.23zm261.81 28.61.85-.85c-.07-.04-4.4-3.64-10.84-3.64h-.01-.01-46.99s-15.82-.06-15.82 12.58v88.69c0 13.85 17.8 13.88 17.8 13.83h45.05s6-.07 10.22-3.35l-.85-.85c-4.28 3.06-9.37 3.01-9.37 3.01h-45.05s-16.61-.01-16.61-12.64v-88.85c0-11.32 14.63-11.24 14.63-11.24h46.99c6.16 0 10 3.29 10.01 3.31zm-40.84 86.23-1.18 1.17h17.11v-68.45h-17.1l1.18 1.18h14.73v66.1z" fill="#fff"/><path d="m730.14 481.75c1.34 0 2.01.56 2.01 1.69 0 .94-.52 1.47-1.55 1.61l1.69 2.61h-.99l-1.61-2.54h-.97v2.54h-.92v-5.9h2.34zm-.36 2.62c.56 0 .94-.07 1.15-.22s.31-.4.31-.75c0-.6-.41-.9-1.24-.9h-1.27v1.88h1.05z"/><path d="m729.78 489.79c-2.81 0-5.1-2.29-5.1-5.1s2.29-5.1 5.1-5.1 5.1 2.29 5.1 5.1-2.29 5.1-5.1 5.1zm0-9.4c-2.37 0-4.3 1.93-4.3 4.3s1.93 4.3 4.3 4.3 4.3-1.93 4.3-4.3-1.93-4.3-4.3-4.3z"/><path d="m466.04 547.57h-43.59c-.17 0-.32-.15-.32-.32v-62.66c0-2.59-2.11-4.69-4.7-4.69h-20.53c-2.59 0-4.69 2.11-4.69 4.69v85.32c0 2.59 2.1 4.69 4.69 4.69h69.13c2.59 0 4.7-2.11 4.7-4.69v-17.64c.01-2.6-2.1-4.7-4.69-4.7zm-198.54-67.68h-67.04c-7.63 0-13.84 6.21-13.84 13.84v67.02c0 7.63 6.21 13.84 13.84 13.84h67.04c7.63 0 13.84-6.21 13.84-13.84v-67.02c.01-7.63-6.2-13.84-13.84-13.84zm-16.07 64.76c0 1.6-1.31 2.91-2.91 2.91h-29.06c-1.6 0-2.91-1.31-2.91-2.91v-35.95c0-1.6 1.31-2.91 2.91-2.91h29.06c1.6 0 2.91 1.31 2.91 2.91zm126.14-64.76h-19.02c-2.59 0-4.7 2.1-4.7 4.69v37.61l-39.73-39.88c-1.38-1.38-3.88-2.42-5.83-2.42h-12.42c-2.59 0-4.69 2.1-4.69 4.69v85.32c0 2.59 2.1 4.7 4.69 4.7h19.02c2.59 0 4.69-2.11 4.69-4.7v-37.78l39.72 40.05c1.37 1.38 3.88 2.43 5.83 2.43h12.44c2.59 0 4.7-2.11 4.7-4.7v-85.32c0-2.58-2.11-4.69-4.7-4.69zm320.76 25.9c2.59 0 4.7-2.11 4.7-4.7v-16.51c0-2.59-2.11-4.69-4.7-4.69h-72.4c-2.59 0-4.69 2.1-4.69 4.69v85.32c0 2.59 2.11 4.7 4.69 4.7h72.4c2.59 0 4.7-2.11 4.7-4.7v-17.64c0-2.59-2.11-4.7-4.7-4.7h-47.18v-8h25.41c2.59 0 4.69-2.1 4.69-4.69v-16.5c0-2.59-2.11-4.7-4.69-4.7h-25.41v-7.89h47.18zm-91.63-25.9h-19.03c-2.59 0-4.7 2.1-4.7 4.69v37.61l-39.72-39.88c-1.37-1.38-3.88-2.42-5.83-2.42h-12.42c-2.59 0-4.7 2.1-4.7 4.69v85.32c0 2.59 2.11 4.7 4.7 4.7h19.01c2.59 0 4.7-2.11 4.7-4.7v-37.78l39.72 40.05c1.37 1.38 3.88 2.42 5.83 2.42h12.44c2.59 0 4.69-2.11 4.69-4.7v-85.32c-0-2.57-2.1-4.68-4.69-4.68zm-101 0h-20.53c-2.59 0-4.7 2.11-4.7 4.69v85.32c0 2.59 2.11 4.69 4.7 4.69h20.53c2.59 0 4.7-2.11 4.7-4.69v-85.32c-.01-2.58-2.11-4.69-4.7-4.69z" fill="#e90000"/><path d="m708.46 526.13 9.62-16.47v120.16l-17.53-7.55"/><path d="m639.75 596.82v1" fill="none"/><path d="m200.67 708.83v14.88c-10.89-.73-17.25-1.05-30.71-1.05v17.08c7.46-.1 13.21-.1 22.63-.42v14.25c-9.42-.31-15.17-.31-22.63-.42v7.23c0 5.97 0 12.89 1.47 23.26h-28.63c1.47-10.37 1.47-17.29 1.47-23.26v-28.29c0-5.97 0-12.89-1.47-23.26z" fill="#f7b500"/><path d="m241.33 708.83c.73 4.09 2.57 9.33 4.04 13.62l13.09 36.99c4.16 11.63 6.73 17.92 9.67 24.21h-29.12c-.61-2.3-1.84-6.81-4.04-12.68h-22.14c-2.57 5.66-3.42 9.85-4.04 12.68h-20.31c2.45-4.82 4.89-11.11 7.83-19.28l15.05-39.93c1.47-3.98 2.45-6.6 3.3-9.22l-1.84-6.39zm-10.52 47.89c-3.3-9.75-5.14-16.56-6.12-20.43h-.24c-2.08 6.92-3.79 12.05-6.97 20.43z" fill="#f7b500"/><path d="m316.98 708.83c17.37.11 27.28 10.06 27.28 21.59 0 9.43-7.34 16.77-14.68 19.7 11.26 20.75 15.17 29.13 18.6 33.53h-31.2c-4.77-12.26-9.3-22.64-12.23-29.34h-3.3v19.18c0 4.09.37 7.44.86 10.16h-28.01c1.47-10.37 1.47-17.29 1.47-23.26v-28.29c0-5.97 0-12.89-1.47-23.26h42.68zm-15.53 31.43s1.22.21 3.06.21c7.46 0 11.87-2.62 11.87-8.59 0-5.66-4.65-9.22-11.74-9.22-1.47 0-2.32.1-3.18.21v17.39z" fill="#f7b500"/><path d="m382.23 708.83 15.78 36.89 16.15-36.89h27.53c-1.47 10.37-1.47 17.29-1.47 23.26v28.29c0 5.97 0 12.89 1.47 23.26h-26.79c0-3.25.37-12.37.37-20.22v-16.66h-.25l-13.7 29.13h-14.44l-14.19-31.23h-.24v16.03c0 10.37.49 17.71.73 22.95h-19.82c1.47-10.37 1.47-17.29 1.47-23.26v-28.29c0-5.97 0-12.89-1.47-23.26z" fill="#f7b500"/><path d="m523.47 708.83c17.37.11 27.28 10.06 27.28 21.59 0 9.43-7.34 16.77-14.68 19.7 11.26 20.75 15.17 29.13 18.6 33.53h-31.2c-4.77-12.26-9.3-22.64-12.23-29.34h-3.3v19.18c0 4.09.37 7.44.86 10.16h-28.01c1.47-10.37 1.47-17.29 1.47-23.26v-28.29c0-5.97 0-12.89-1.47-23.26h42.68zm-15.53 31.43s1.22.21 3.06.21c7.46 0 11.87-2.62 11.87-8.59 0-5.66-4.65-9.22-11.74-9.22-1.47 0-2.32.1-3.18.21v17.39z" fill="#f7b500"/><path d="m611.01 708.83c.73 4.09 2.57 9.33 4.04 13.62l13.09 36.99c4.16 11.63 6.73 17.92 9.66 24.21h-29.12c-.61-2.3-1.84-6.81-4.04-12.68h-22.14c-2.57 5.66-3.42 9.85-4.04 12.68h-20.31c2.45-4.82 4.89-11.11 7.83-19.28l15.05-39.93c1.47-3.98 2.45-6.6 3.3-9.22l-1.84-6.39zm-10.52 47.89c-3.3-9.75-5.14-16.56-6.12-20.43h-.24c-2.08 6.92-3.79 12.05-6.97 20.43z" fill="#f7b500"/><path d="m671.96 708.83c-1.47 10.37-1.47 17.29-1.47 23.26v28.29c0 5.97 0 12.89 1.47 23.26h-28.63c1.47-10.37 1.47-17.29 1.47-23.26v-28.29c0-5.97 0-12.89-1.47-23.26z" fill="#f7b500"/><path d="m677.93 783.65c1.47-10.37 1.47-17.29 1.47-23.26v-28.29c0-5.97 0-12.89-1.47-23.26h24.71c14.44 0 22.51 1.78 30.22 6.6 10.03 6.29 15.29 15.4 15.29 29.66 0 11.42-3.06 24.21-14.68 32.17-8.07 5.55-21.41 6.39-30.71 6.39h-24.83zm27.16-13h.86c10.03 0 15.29-4.82 15.29-25.26 0-17.6-6.48-22.74-15.05-22.74h-1.1z" fill="#f7b500"/><path d="m740.4 703.39c-11.62-7.27-23.48-8.75-37.72-8.75h-24.71c-1.01 0-2.01.11-2.98.32-.97-.21-1.97-.32-2.98-.32h-10.94l-.03-.1-16.78.1h-.87c-.04 0-.07.01-.11.01l-30.03.17c-.72-.11-1.45-.18-2.19-.18h-28.5c-1.1 0-2.19.13-3.24.38l-47.42.28c-2.61-.4-5.36-.64-8.28-.65-.03 0-.06 0-.08 0h-42.69c-1.77 0-3.5.35-5.12.98l-28.43.17c-1.73-.74-3.61-1.15-5.54-1.15h-27.56c-2.15 0-4.21.49-6.07 1.37l-19.56.11c-1.92-.96-4.06-1.49-6.3-1.49h-28.87c-2.39 0-4.69.62-6.74 1.73l-15.78.09c-4.14-1.14-8.72-1.79-13.76-1.82-.03 0-.06 0-.08 0h-42.69c-2.7 0-5.3.79-7.54 2.2l-17.71.1c-2.23-1.45-4.88-2.3-7.71-2.3h-28.5c-2.14 0-4.21.49-6.08 1.39-1.84-.88-3.9-1.39-6.08-1.39h-57.86c-4.1 0-7.99 1.78-10.68 4.87-.86.99-1.55 2.09-2.09 3.25l-1.23-.67v3.41l-.16-.54v78.87s.02-.02.04-.04c.04 3.32 1.24 6.55 3.45 9.09 2.69 3.09 6.58 4.87 10.68 4.87h28.63 17.06 20.31 30.22 29.12 6.17 28.01 14.68 31.2 5.18 19.82 41.72 26.79 39.1 28.01 14.68 31.2 3.49 20.31 30.22 29.12 5.54 28.54 5.97 17.05 7.79c17.37 0 30.03-2.91 38.7-8.87 13.63-9.34 20.83-24.5 20.83-43.84 0-18.51-7.38-32.52-21.94-41.65z"/><path d="m762.14 705.33v-3.41l-1.23.67c-.55-1.16-1.24-2.26-2.09-3.25-2.69-3.09-6.58-4.87-10.68-4.87h-57.86c-2.18 0-4.24.51-6.08 1.39-1.88-.89-3.95-1.39-6.08-1.39h-28.5c-2.83 0-5.48.85-7.71 2.3l-17.71-.1c-2.24-1.41-4.84-2.2-7.54-2.2h-42.69c-.03 0-.06 0-.08 0-5.04.03-9.62.68-13.76 1.82l-15.78-.09c-2.05-1.11-4.36-1.73-6.74-1.73h-28.91c-2.23 0-4.38.53-6.3 1.49l-19.56-.11c-1.86-.89-3.93-1.37-6.07-1.37h-27.53c-1.93 0-3.81.41-5.54 1.15l-28.43-.17c-1.62-.63-3.35-.98-5.12-.98h-42.69c-.03 0-.06 0-.08 0-2.91.02-5.66.25-8.28.65l-47.42-.28c-1.05-.25-2.14-.38-3.24-.38h-28.5c-.74 0-1.47.07-2.19.18l-30.03-.17c-.04 0-.07-.01-.11-.01h-.87l-16.78-.1-.03.1h-10.94c-1.01 0-2.01.11-2.98.32-.97-.21-1.97-.32-2.98-.32h-24.71c-14.24 0-26.1 1.49-37.72 8.75-14.56 9.13-21.94 23.14-21.94 41.65 0 19.34 7.2 34.5 20.83 43.84 8.67 5.96 21.34 8.87 38.7 8.87h7.79 17.02 5.97 28.63 5.54 29.12 30.22 20.31 3.49 31.2 14.68 28.01 39.1 26.79 41.72 19.82 5.18 31.2 14.68 28.01 6.17 29.12 30.22 20.31 17.06 28.63c4.1 0 7.99-1.78 10.68-4.87 2.21-2.54 3.4-5.77 3.45-9.09.03.02 0 0 0 0l.04-78.83z"/><path d="m740.36 703.43c-11.62-7.27-23.48-8.75-37.72-8.75h-24.71c-1.01 0-2.01.11-2.98.32-.97-.21-1.97-.32-2.98-.32h-10.94l-.03-.1-16.78.1h-.87c-.04 0-.07.01-.11.01l-30.03.17c-.72-.11-1.45-.18-2.19-.18h-28.5c-1.1 0-2.19.13-3.24.38l-47.42.28c-2.61-.4-5.36-.64-8.28-.65-.03 0-.06 0-.08 0h-42.69c-1.77 0-3.5.35-5.12.98l-28.43.17c-1.73-.74-3.61-1.15-5.54-1.15h-27.53c-2.15 0-4.21.49-6.07 1.37l-19.56.11c-1.92-.96-4.06-1.49-6.3-1.49h-28.87c-2.39 0-4.69.62-6.74 1.73l-15.78.09c-4.14-1.14-8.72-1.79-13.76-1.82-.03 0-.06 0-.08 0h-42.69c-2.7 0-5.3.79-7.54 2.2l-17.71.1c-2.23-1.45-4.88-2.3-7.71-2.3h-28.5c-2.14 0-4.21.49-6.08 1.39-1.84-.88-3.9-1.39-6.08-1.39h-57.92c-4.1 0-7.99 1.78-10.68 4.87-.86.99-1.55 2.09-2.09 3.25l-1.23-.67v3.41l-.16-.54.04 78.83s-.03.02 0 0c.04 3.32 1.24 6.55 3.45 9.09 2.69 3.09 6.58 4.87 10.68 4.87h28.63 17.06 20.31 30.22 29.12 6.17 28.01 14.68 31.2 5.18 19.82 41.72 26.79 39.1 28.01 14.68 31.2 3.49 20.31 30.22 29.12 5.54 28.63 5.97 17.05 7.79c17.37 0 30.03-2.91 38.7-8.87 13.63-9.34 20.83-24.5 20.83-43.84-.06-18.51-7.44-32.52-22-41.65z"/><path d="m762.14 705.33v-3.41l-1.23.67c-.55-1.16-1.24-2.26-2.09-3.25-2.69-3.09-6.58-4.87-10.68-4.87h-57.86c-2.18 0-4.24.51-6.08 1.39-1.88-.89-3.95-1.39-6.08-1.39h-28.5c-2.83 0-5.48.85-7.71 2.3l-17.71-.1c-2.24-1.41-4.84-2.2-7.54-2.2h-42.69c-.03 0-.06 0-.08 0-5.04.03-9.62.68-13.76 1.82l-15.78-.09c-2.05-1.11-4.36-1.73-6.74-1.73h-28.91c-2.23 0-4.38.53-6.3 1.49l-19.56-.11c-1.86-.89-3.93-1.37-6.07-1.37h-27.53c-1.93 0-3.81.41-5.54 1.15l-28.43-.17c-1.62-.63-3.35-.98-5.12-.98h-42.69c-.03 0-.06 0-.08 0-2.91.02-5.66.25-8.28.65l-47.42-.28c-1.05-.25-2.14-.38-3.24-.38h-28.5c-.74 0-1.47.07-2.19.18l-30.03-.17c-.04 0-.07-.01-.11-.01h-.87l-16.78-.1-.03.1h-10.94c-1.01 0-2.01.11-2.98.32-.97-.21-1.97-.32-2.98-.32h-24.71c-14.24 0-26.1 1.49-37.72 8.75-14.56 9.13-21.94 23.14-21.94 41.65 0 19.34 7.2 34.5 20.83 43.84 8.67 5.96 21.34 8.87 38.7 8.87h7.79 17.02 5.97 28.63 5.54 29.12 30.22 20.31 3.49 31.2 14.68 28.01 39.1 26.79 41.72 19.82 5.18 31.2 14.68 28.01 6.17 29.12 30.22 20.31 17.06 28.63c4.1 0 7.99-1.78 10.68-4.87 2.21-2.54 3.4-5.77 3.45-9.09.03.02.04-78.83.04-78.83z"/><path d="m200.67 708.83v14.88c-10.89-.73-17.25-1.05-30.71-1.05v17.08c7.46-.1 13.21-.1 22.63-.42v14.25c-9.42-.31-15.17-.31-22.63-.42v7.23c0 5.97 0 12.89 1.47 23.26h-28.63c1.47-10.37 1.47-17.29 1.47-23.26v-28.29c0-5.97 0-12.89-1.47-23.26z" fill="#f7b500"/><path d="m241.33 708.83c.73 4.09 2.57 9.33 4.04 13.62l13.09 36.99c4.16 11.63 6.73 17.92 9.67 24.21h-29.12c-.61-2.3-1.84-6.81-4.04-12.68h-22.14c-2.57 5.66-3.42 9.85-4.04 12.68h-20.31c2.45-4.82 4.89-11.11 7.83-19.28l15.05-39.93c1.47-3.98 2.45-6.6 3.3-9.22l-1.84-6.39zm-10.52 47.89c-3.3-9.75-5.14-16.56-6.12-20.43h-.24c-2.08 6.92-3.79 12.05-6.97 20.43z" fill="#f7b500"/><path d="m316.98 708.83c17.37.11 27.28 10.06 27.28 21.59 0 9.43-7.34 16.77-14.68 19.7 11.26 20.75 15.17 29.13 18.6 33.53h-31.2c-4.77-12.26-9.3-22.64-12.23-29.34h-3.3v19.18c0 4.09.37 7.44.86 10.16h-28.01c1.47-10.37 1.47-17.29 1.47-23.26v-28.29c0-5.97 0-12.89-1.47-23.26h42.68zm-15.53 31.43s1.22.21 3.06.21c7.46 0 11.87-2.62 11.87-8.59 0-5.66-4.65-9.22-11.74-9.22-1.47 0-2.32.1-3.18.21v17.39z" fill="#f7b500"/><path d="m382.23 708.83 15.78 36.89 16.15-36.89h27.53c-1.47 10.37-1.47 17.29-1.47 23.26v28.29c0 5.97 0 12.89 1.47 23.26h-26.79c0-3.25.37-12.37.37-20.22v-16.66h-.25l-13.7 29.13h-14.44l-14.19-31.23h-.24v16.03c0 10.37.49 17.71.73 22.95h-19.82c1.47-10.37 1.47-17.29 1.47-23.26v-28.29c0-5.97 0-12.89-1.47-23.26z" fill="#f7b500"/><path d="m523.47 708.83c17.37.11 27.28 10.06 27.28 21.59 0 9.43-7.34 16.77-14.68 19.7 11.26 20.75 15.17 29.13 18.6 33.53h-31.2c-4.77-12.26-9.3-22.64-12.23-29.34h-3.3v19.18c0 4.09.37 7.44.86 10.16h-28.01c1.47-10.37 1.47-17.29 1.47-23.26v-28.29c0-5.97 0-12.89-1.47-23.26h42.68zm-15.53 31.43s1.22.21 3.06.21c7.46 0 11.87-2.62 11.87-8.59 0-5.66-4.65-9.22-11.74-9.22-1.47 0-2.32.1-3.18.21v17.39z" fill="#f7b500"/><path d="m611.01 708.83c.73 4.09 2.57 9.33 4.04 13.62l13.09 36.99c4.16 11.63 6.73 17.92 9.66 24.21h-29.12c-.61-2.3-1.84-6.81-4.04-12.68h-22.14c-2.57 5.66-3.42 9.85-4.04 12.68h-20.31c2.45-4.82 4.89-11.11 7.83-19.28l15.05-39.93c1.47-3.98 2.45-6.6 3.3-9.22l-1.84-6.39zm-10.52 47.89c-3.3-9.75-5.14-16.56-6.12-20.43h-.24c-2.08 6.92-3.79 12.05-6.97 20.43z" fill="#f7b500"/><path d="m671.96 708.83c-1.47 10.37-1.47 17.29-1.47 23.26v28.29c0 5.97 0 12.89 1.47 23.26h-28.63c1.47-10.37 1.47-17.29 1.47-23.26v-28.29c0-5.97 0-12.89-1.47-23.26z" fill="#f7b500"/><path d="m677.93 783.65c1.47-10.37 1.47-17.29 1.47-23.26v-28.29c0-5.97 0-12.89-1.47-23.26h24.71c14.44 0 22.51 1.78 30.22 6.6 10.03 6.29 15.29 15.4 15.29 29.66 0 11.42-3.06 24.21-14.68 32.17-8.07 5.55-21.41 6.39-30.71 6.39h-24.83zm27.16-13h.86c10.03 0 15.29-4.82 15.29-25.26 0-17.6-6.48-22.74-15.05-22.74h-1.1z" fill="#f7b500"/><path d="m756.91 364.98 10.69-11.96s24.72 16.97 30.73 43.36-8.24-4.01-8.24-4.01l-12.8-10.24"/><path d="m653.68 421.61 2.29-2.2s-13.47-2.29-14.07-14.94l-2.25 7.56.73 12.23 12.33 3.53 10.13-2.84"/><path d="m317.8 577.49-7.88 7.08-.97 5.01h5.94z"/><path d="m775.54 575.97h-61.7v13.61h60.47c.78-5.59 1.23-10.02 1.23-13.61z"/><path d="m867.49 567.67c-.73-.85-1.53-1.61-2.36-2.33l.14.04c-3.45-3.62-8.68-5.1-12.95-5.69-.2-.04-.51-.08-.91-.11-2.87-.32-5.18-.26-5.99-.22-16.97-.27-58.19.48-58.19.48-3.35 0-6.54 1.41-8.79 3.89s-3.35 5.79-3.03 9.12c.09.96.13 2 .13 3.11 0 3.59-.45 8.02-1.23 13.61h-68.54c-1.25-8.26-5.36-15.65-11.86-20.93-.26-.21-.51-.42-.77-.62-.04-.03-.08-.06-.11-.09-.79-.59-1.61-1.13-2.45-1.64-3.09-1.89-6.49-3.25-10.2-4.22-6.73-1.76-14.49-2.25-23.37-2.25h-64.66c-4.45-3.6-10.3-5.55-16.86-5.55-14.89 0-27.34 10.35-29.6 24.61-.6 3.76-.4 7.37.52 10.68h-59.51c-5.74 2.6-13.18 2.54-19.58 2.04-2.59-.2-5.19-.28-7.8-.28-1.01.5-2.01.97-3.01 1.42-.29.19-.58.37-.84.58-3.46 2.83-8.06 3.73-11.81 1.43-1.45-.55-2.77-1.49-3.83-2.66-3.07.2-6.18.38-9.26.35-5.22 5.42-12.29 2.37-15.01-2.89h-30.14l1.89-11.94c.86-5.44-.7-10.96-4.28-15.15s-8.79-6.59-14.3-6.59h-25.4c-3.35 0-6.54 1.41-8.79 3.89s-3.35 5.79-3.03 9.12c.09.9.13 1.88.14 2.92l-.13.02-1.6 17.73h-148.73l.54-3.43c.19-1.2.41-2.6.64-4.1v-.01c.27-1.77.31-3.54.17-5.28-.81-23.23-23.23-23.1-23.23-23.1h-57.23c-40.44 0-75.84 30.99-82.35 72.09-3.21 20.25 1.14 38.55 12.23 51.54 4.8 5.62 10.76 10.08 17.58 13.28 3.42 1.3 9.85 3.17 19.08 3.6h780.79c4.44-1.11 7.89-4.72 8.76-9.25v.01l.01-.05c.06-.33.11-.67.15-1.01l14.16-98.14c.98-6.48-.92-13.05-5.2-18.03z" fill="#fff"/><g fill="#033397"><path d="m685.93 577.46c-5.84-4.35-14.47-5.75-28.92-5.75h-45.53c-.57 15.38-2.2 25.64-3.6 34.5l-6.65 41.95c-1.4 8.86-3.03 19.11-7.33 34.5h40.4c14.3 0 19.16-.31 28.77-3.11 11.73-3.42 23.86-14.3 26.23-29.21 1.89-11.96-3.38-22.84-15.37-26.57 7.53-3.42 18.06-11.97 20.05-24.55 1.48-9.33-1.95-17.09-8.05-21.76zm-32.96 72.73c-1.48 9.32-7.94 13.83-16.95 13.83-2.64 0-4.43-.47-5.47-.78l4.28-27.04c.83-.31 2.25-.47 4.42-.47 9.95-0 15.1 5.75 13.72 14.46zm4.97-47.09c-1.4 8.86-8.7 12.74-14.76 12.74-2.49 0-3.84-.31-5.03-.62l3.29-20.76.06-.01.61-4.26c1.27-.15 3.03-.47 5.05-.47 6.84.02 12.21 4.37 10.78 13.38z"/><path d="m771.44 628.76c-.07-6.35-1.24-11.16-4.83-16.18-4.69-6.68-13.22-10.72-24.25-10.72-24.4 0-42.02 20.04-45.47 41.8-3.96 25.02 10 40.87 33.46 40.87 14.29 0 26.62-6.22 34.8-13.67l-1.83-2.76c-2.85-4.3-8.56-5.71-13.04-3.16-2.82 1.6-5.92 2.81-8.72 2.81-6.68 0-11.44-5.28-12.77-12.59l33.1-12.45c5.8-2.19 9.62-7.76 9.55-13.95zm-28.82 1.85c-.35 2.18-.85 3.42-2.73 4.51s-7.56 3.57-12.52 5.44c-.01-.93-.07-2.48.47-5.9 1.72-10.88 6.73-16.01 10.77-16.01 3.58-.01 5.14 4.81 4.01 11.96z"/><path d="m817.75 583.94c.97-6.43-4.01-12.23-10.51-12.23h-20.01c.71 7.3-.54 16.16-3 31.7l-8.86 55.94c-1.63 10.26-3.52 19.27-5.25 23.31h33.41c.03-9.01.57-12.43 4.66-38.22l8.98-56.72c.17-1.11.37-2.4.58-3.78z"/><path d="m850.43 571.71h-20.01c.71 7.3-.54 16.16-3 31.7l-8.86 55.94c-1.62 10.26-3.52 19.27-5.25 23.31h33.41c.03-9.01.57-12.43 4.66-38.22l8.98-56.72c.18-1.11.38-2.4.59-3.78.97-6.43-4.01-12.23-10.52-12.23z"/><path d="m88.07 663.36c-20.69 0-22.73-20.53-19.62-41.22 2.97-18.77 11.27-36.73 28.76-36.73 11.71 0 18.93 7.06 24.83 18.45l5.39-34c-7.38-3.05-16.64-4.33-25.14-4.33-37.06 0-65.42 29.19-70.63 62.07-5.33 33.68 13.6 56.94 45.68 56.94 16.2 0 29.62-6.74 41.89-16.36l-8.61-13.47c-7.33 5.77-15.81 8.65-22.55 8.65z"/><path d="m170.84 580.27c.99-6.58-4.12-12.5-10.78-12.5h-20.76c.73 7.54-.56 16.68-3.1 32.72l-9.15 57.74c-1.68 10.59-3.63 19.89-5.41 24.06h34.49c.03-9.3.59-12.83 4.81-39.46l9.27-58.54c.19-1.18.4-2.55.63-4.02z"/><path d="m240.48 601.45h-19.89c.46 4.17-.53 13.47-2.21 24.06l-4.42 27.91c-.96 6.1-1.63 10.26-7.88 10.26-5.45 0-4.77-4.33-3.75-10.75l5.88-37.14c1.19-7.53-4.63-14.35-12.25-14.35h-18.52c.46 4.17-.53 13.47-2.21 24.06l-4.27 26.95c-2.13 13.47-1.67 20.69 3.13 25.82 3.7 4.01 8.53 5.93 15.26 5.93 7.86 0 15.16-2.57 23.73-8.02.45 2.24 1.1 4.17 1.92 6.09h28.39c-1.1-4.17-.43-13.47 1.24-24.06l5.69-35.93c.41-2.57.84-5.08 1.28-7.47 1.28-6.94-4.04-13.36-11.12-13.36z"/><path d="m308.19 617.49c4.81 0 10.48 2.73 15.05 6.26l3.61-22.78c-4.18-.96-11.06-2.08-16.51-2.08-33.53 0-52.57 25.02-55.82 45.55-3.69 23.26 11.18 39.78 35.25 39.78 10.91 0 22.24-3.69 32.2-11.87l-6.94-11.87c-3.91 2.41-9.32 5.13-14.29 5.13-10.11 0-15.4-9.14-12.83-25.34 2.43-15.4 10.5-22.78 20.28-22.78z"/><path d="m367.93 627.44-.27-.32 8.13-51.33c.66-4.21-2.59-8.02-6.86-8.02h-25.4c.73 7.54-.56 16.68-3.1 32.72l-6.71 42.35c-4.22 26.63-4.78 30.15-7.69 39.46h32.24c.06-2.41.2-7.38 1.07-12.83l2.24-14.12 6.39-5.93 4.97 22.3c1.09 5.29 1.55 9.46 1.69 10.59h35.61c-3.56-9.94-5.5-18.93-6.7-24.54l-6.23-29.51c2.97-2.57 7.08-4.17 11.25-4.17 1.12 0 2.06.16 2.83.32l3.91-24.7c-1.66-.64-3.56-.8-5.49-.8-11.05-.03-22.41 6.87-41.88 28.53z"/><path d="m528.93 598.88c-8.34 0-15.27 3.21-23.19 8.66-.45-2.25-1.1-4.17-1.92-6.09h-28.07c.46 4.17-.53 13.47-2.21 24.06l-2.74 17.32c-4.22 26.63-4.78 30.15-7.69 39.46h34.49c-.46-4.17.53-13.47 2.21-24.06l4.72-29.83c.91-5.78 3.25-8.34 7.1-8.34 4.01 0 5.53 2.57 4.61 8.34l-8.54 53.89h33.04c-.46-4.17.53-13.47 2.21-24.06l5.21-32.88c1.53-9.62.17-15.24-3.75-19.89s-8.75-6.58-15.48-6.58z"/><path d="m575.5 562.04c-9.46 0-16.63 6.74-17.87 14.6-1.37 8.66 4.49 13.15 12.06 12.99-.5 3.19-2.18 7.7-9.45 14.66-2.18 2.08-2.54 5.44-.87 7.95 15.11-8.34 27.57-22.13 29.47-34.17 1.57-9.93-3.88-16.03-13.34-16.03z"/></g><path d="m378.18 596.09 7.44-6.51h170.6l-85.86 7.53-29.53 1.54-25.27-4.61" fill="#fff"/><path d="m449.84 591.83c9.96 0 18.39-7 19.67-15.1 1.28-8.09-4.92-15.1-14.89-15.1-9.96 0-18.39 7-19.67 15.1s4.93 15.1 14.89 15.1z" fill="#fff"/><path d="m449.84 600.83c-7.72 0-14.46-2.91-18.97-8.19-4.11-4.81-5.81-10.96-4.81-17.32 2.02-12.72 14.56-22.69 28.56-22.69 7.73 0 14.46 2.91 18.97 8.19 4.11 4.81 5.81 10.96 4.8 17.32-2 12.73-14.55 22.69-28.55 22.69zm4.79-30.19c-5.65 0-10.22 3.96-10.78 7.51-.17 1.11.07 2.05.71 2.81 1.02 1.19 2.95 1.88 5.29 1.88 5.65 0 10.22-3.96 10.78-7.51.18-1.11-.06-2.05-.71-2.81-1.03-1.2-2.95-1.88-5.29-1.88z" fill="#fff"/><path d="m449.84 591.83c9.96 0 18.39-7 19.67-15.1 1.28-8.09-4.92-15.1-14.89-15.1-9.96 0-18.39 7-19.67 15.1s4.93 15.1 14.89 15.1z" fill="#033397"/><path d="m450.34 601.45h-18.39c.46 4.17-.53 13.47-2.21 24.06l-5.18 32.72c-1.68 10.59-3.63 19.89-5.41 24.06h34.65c-.46-4.17.53-13.47 2.21-24.06l6.7-42.31c1.2-7.59-4.67-14.47-12.37-14.47z" fill="#033397"/><path d="m337.61 561.01-5.82 4.98-3.66 29.04 6.3-5.31 4.44-11.34" fill="#fff"/><path d="m787.31 564.32c-.27.36-11.88 6.05-11.88 6.05l-3.22 31.64 10.54-21.08" fill="#fff"/></svg>