<?xml version="1.0" encoding="UTF-8"?>
<svg id="Layer_1" data-name="Layer 1" xmlns="http://www.w3.org/2000/svg" xmlns:xlink="http://www.w3.org/1999/xlink" viewBox="0 0 795.466 770">
  <defs>
    <style>
      .cls-1 {
        fill: url(#linear-gradient);
      }

      .cls-2 {
        fill: #fff;
      }

      .cls-3 {
        fill: #ca0000;
      }

      .cls-4 {
        fill: url(#linear-gradient-27);
        stroke: url(#linear-gradient-28);
      }

      .cls-4, .cls-5, .cls-6, .cls-7, .cls-8, .cls-9, .cls-10, .cls-11, .cls-12, .cls-13, .cls-14, .cls-15, .cls-16, .cls-17 {
        stroke-miterlimit: 10;
        stroke-width: .791px;
      }

      .cls-5 {
        fill: url(#linear-gradient-23);
        stroke: url(#linear-gradient-24);
      }

      .cls-6 {
        fill: url(#linear-gradient-15);
        stroke: url(#linear-gradient-16);
      }

      .cls-7 {
        fill: url(#linear-gradient-19);
        stroke: url(#linear-gradient-20);
      }

      .cls-8 {
        fill: url(#linear-gradient-17);
        stroke: url(#linear-gradient-18);
      }

      .cls-9 {
        fill: url(#linear-gradient-21);
        stroke: url(#linear-gradient-22);
      }

      .cls-10 {
        fill: url(#linear-gradient-13);
        stroke: url(#linear-gradient-14);
      }

      .cls-11 {
        fill: url(#linear-gradient-11);
        stroke: url(#linear-gradient-12);
      }

      .cls-12 {
        fill: url(#linear-gradient-25);
        stroke: url(#linear-gradient-26);
      }

      .cls-13 {
        fill: url(#linear-gradient-29);
        stroke: url(#linear-gradient-30);
      }

      .cls-14 {
        fill: url(#linear-gradient-31);
        stroke: url(#linear-gradient-32);
      }

      .cls-15 {
        fill: url(#linear-gradient-35);
        stroke: url(#linear-gradient-36);
      }

      .cls-16 {
        fill: url(#linear-gradient-37);
        stroke: url(#linear-gradient-38);
      }

      .cls-17 {
        fill: url(#linear-gradient-33);
        stroke: url(#linear-gradient-34);
      }

      .cls-18 {
        fill: url(#New_Gradient_Swatch_4);
      }

      .cls-19 {
        fill: none;
        stroke: url(#linear-gradient-10);
        stroke-width: 1.484px;
      }

      .cls-20 {
        fill: url(#linear-gradient-8);
      }

      .cls-21 {
        fill: url(#linear-gradient-9);
      }

      .cls-22 {
        fill: url(#linear-gradient-3);
      }

      .cls-23 {
        fill: url(#linear-gradient-4);
      }

      .cls-24 {
        fill: url(#linear-gradient-2);
      }

      .cls-25 {
        fill: url(#linear-gradient-6);
      }

      .cls-26 {
        fill: url(#linear-gradient-7);
      }

      .cls-27 {
        fill: url(#linear-gradient-5);
      }

      .cls-28 {
        fill: url(#New_Gradient_Swatch_4-5);
      }

      .cls-29 {
        fill: url(#New_Gradient_Swatch_4-4);
      }

      .cls-30 {
        fill: url(#New_Gradient_Swatch_4-6);
      }

      .cls-31 {
        fill: url(#New_Gradient_Swatch_4-2);
      }

      .cls-32 {
        fill: url(#New_Gradient_Swatch_4-3);
      }
    </style>
    <linearGradient id="linear-gradient" x1="0" y1="385" x2="795.466" y2="385" gradientTransform="matrix(1, 0, 0, 1, 0, 0)" gradientUnits="userSpaceOnUse">
      <stop offset=".085" stop-color="#90a949"/>
      <stop offset=".498" stop-color="#cddcb7"/>
      <stop offset="1" stop-color="#90a949"/>
    </linearGradient>
    <linearGradient id="linear-gradient-2" x1="397.744" y1="557.042" x2="397.744" y2="465.134" gradientTransform="matrix(1, 0, 0, 1, 0, 0)" gradientUnits="userSpaceOnUse">
      <stop offset="0" stop-color="#8c0000"/>
      <stop offset=".48" stop-color="#ca0000"/>
      <stop offset=".992" stop-color="#ca3232"/>
    </linearGradient>
    <linearGradient id="linear-gradient-3" x1="340.692" y1="518.864" x2="417.662" y2="505.292" gradientTransform="matrix(1, 0, 0, 1, 0, 0)" gradientUnits="userSpaceOnUse">
      <stop offset="0" stop-color="#8c0000"/>
      <stop offset=".58" stop-color="#ca3232"/>
      <stop offset="1" stop-color="#ab0000"/>
    </linearGradient>
    <linearGradient id="linear-gradient-4" x1="142.788" y1="519.964" x2="243.468" y2="502.212" xlink:href="#linear-gradient-3"/>
    <linearGradient id="linear-gradient-5" x1="242.826" y1="519.906" x2="342.85" y2="502.269" xlink:href="#linear-gradient-3"/>
    <linearGradient id="linear-gradient-6" x1="562.997" y1="519.135" x2="654.273" y2="503.041" xlink:href="#linear-gradient-3"/>
    <linearGradient id="linear-gradient-7" x1="465.19" y1="519.907" x2="565.213" y2="502.27" xlink:href="#linear-gradient-3"/>
    <linearGradient id="linear-gradient-8" x1="425.631" y1="514.831" x2="468.088" y2="507.345" xlink:href="#linear-gradient-3"/>
    <linearGradient id="linear-gradient-9" x1="395.755" y1="616.887" x2="395.755" y2="689.057" gradientTransform="matrix(1, 0, 0, 1, 0, 0)" gradientUnits="userSpaceOnUse">
      <stop offset=".085" stop-color="#90a949"/>
      <stop offset=".495" stop-color="#ceddba"/>
      <stop offset="1" stop-color="#90a949"/>
    </linearGradient>
    <linearGradient id="linear-gradient-10" x1="395.778" y1="689.799" x2="395.778" y2="616.145" gradientTransform="matrix(1, 0, 0, 1, 0, 0)" gradientUnits="userSpaceOnUse">
      <stop offset="0" stop-color="#90a955"/>
      <stop offset=".434" stop-color="#6e8c28"/>
      <stop offset="1" stop-color="#a9be77"/>
    </linearGradient>
    <linearGradient id="New_Gradient_Swatch_4" data-name="New Gradient Swatch 4" x1="1038.145" y1="-3408.282" x2="1205.72" y2="-3408.282" gradientTransform="translate(1705.515 -2810.967) rotate(-180)" gradientUnits="userSpaceOnUse">
      <stop offset=".034" stop-color="#a6926a"/>
      <stop offset=".095" stop-color="#a9966e"/>
      <stop offset=".167" stop-color="#b2a27d"/>
      <stop offset=".245" stop-color="#c2b795"/>
      <stop offset=".327" stop-color="#d7d3b6"/>
      <stop offset=".33" stop-color="#d9d5b8"/>
      <stop offset=".394" stop-color="#d0cbae"/>
      <stop offset=".502" stop-color="#b8b093"/>
      <stop offset=".64" stop-color="#928568"/>
      <stop offset=".723" stop-color="#79684c"/>
      <stop offset=".981" stop-color="#dedcb2"/>
    </linearGradient>
    <linearGradient id="New_Gradient_Swatch_4-2" data-name="New Gradient Swatch 4" x1="1048.335" y1="-3398.093" x2="1205.72" y2="-3398.093" xlink:href="#New_Gradient_Swatch_4"/>
    <linearGradient id="New_Gradient_Swatch_4-3" data-name="New Gradient Swatch 4" x1="1058.524" y1="-3387.904" x2="1205.72" y2="-3387.904" xlink:href="#New_Gradient_Swatch_4"/>
    <linearGradient id="New_Gradient_Swatch_4-4" data-name="New Gradient Swatch 4" x1="145.645" y1="-3408.282" x2="313.22" y2="-3408.282" gradientTransform="translate(-16.227 -2810.967) scale(1 -1)" xlink:href="#New_Gradient_Swatch_4"/>
    <linearGradient id="New_Gradient_Swatch_4-5" data-name="New Gradient Swatch 4" x1="155.834" y1="-3398.093" x2="313.22" y2="-3398.093" gradientTransform="translate(-16.227 -2810.967) scale(1 -1)" xlink:href="#New_Gradient_Swatch_4"/>
    <linearGradient id="New_Gradient_Swatch_4-6" data-name="New Gradient Swatch 4" x1="166.023" y1="-3387.904" x2="313.22" y2="-3387.904" gradientTransform="translate(-16.227 -2810.967) scale(1 -1)" xlink:href="#New_Gradient_Swatch_4"/>
    <linearGradient id="linear-gradient-11" x1="345.611" y1="568.936" x2="345.611" y2="603.803" gradientTransform="matrix(1, 0, 0, 1, 0, 0)" gradientUnits="userSpaceOnUse">
      <stop offset="0" stop-color="#f6f3b4"/>
      <stop offset=".233" stop-color="#f6f2ac"/>
      <stop offset=".61" stop-color="#938256"/>
      <stop offset="1" stop-color="#d5c382"/>
    </linearGradient>
    <linearGradient id="linear-gradient-12" x1="324.065" y1="586.369" x2="367.158" y2="586.369" gradientTransform="matrix(1, 0, 0, 1, 0, 0)" gradientUnits="userSpaceOnUse">
      <stop offset="0" stop-color="#f6f3ba"/>
      <stop offset=".289" stop-color="#f6f2ac"/>
      <stop offset=".616" stop-color="#938256"/>
      <stop offset=".989" stop-color="#d5c382"/>
    </linearGradient>
    <linearGradient id="linear-gradient-13" x1="398.089" x2="398.089" xlink:href="#linear-gradient-11"/>
    <linearGradient id="linear-gradient-14" x1="371.52" x2="424.657" xlink:href="#linear-gradient-12"/>
    <linearGradient id="linear-gradient-15" x1="449.912" x2="449.912" xlink:href="#linear-gradient-11"/>
    <linearGradient id="linear-gradient-16" x1="428.424" x2="471.421" xlink:href="#linear-gradient-12"/>
    <linearGradient id="linear-gradient-17" x1="119.13" y1="707.783" x2="119.13" y2="748.797" xlink:href="#linear-gradient-11"/>
    <linearGradient id="linear-gradient-18" x1="93.886" y1="728.29" x2="144.394" y2="728.29" xlink:href="#linear-gradient-12"/>
    <linearGradient id="linear-gradient-19" x1="179.865" y1="707.783" x2="179.865" y2="748.797" xlink:href="#linear-gradient-11"/>
    <linearGradient id="linear-gradient-20" x1="148.29" y1="728.29" x2="211.44" y2="728.29" xlink:href="#linear-gradient-12"/>
    <linearGradient id="linear-gradient-21" x1="242.685" y1="707.783" x2="242.685" y2="748.797" xlink:href="#linear-gradient-11"/>
    <linearGradient id="linear-gradient-22" x1="217.368" y1="728.29" x2="268.003" y2="728.29" xlink:href="#linear-gradient-12"/>
    <linearGradient id="linear-gradient-23" x1="299.314" y1="707.783" x2="299.314" y2="748.797" xlink:href="#linear-gradient-11"/>
    <linearGradient id="linear-gradient-24" x1="274.07" y1="728.29" x2="324.579" y2="728.29" xlink:href="#linear-gradient-12"/>
    <linearGradient id="linear-gradient-25" x1="360.67" y1="707.783" x2="360.67" y2="748.797" xlink:href="#linear-gradient-11"/>
    <linearGradient id="linear-gradient-26" x1="329.445" y1="728.29" x2="391.894" y2="728.29" xlink:href="#linear-gradient-12"/>
    <linearGradient id="linear-gradient-27" x1="421.958" y1="707.783" x2="421.958" y2="748.797" xlink:href="#linear-gradient-11"/>
    <linearGradient id="linear-gradient-28" x1="395.734" y1="728.29" x2="448.181" y2="728.29" xlink:href="#linear-gradient-12"/>
    <linearGradient id="linear-gradient-29" x1="481.31" y1="707.783" x2="481.31" y2="748.797" xlink:href="#linear-gradient-11"/>
    <linearGradient id="linear-gradient-30" x1="450.085" y1="728.29" x2="512.535" y2="728.29" xlink:href="#linear-gradient-12"/>
    <linearGradient id="linear-gradient-31" x1="532.339" y1="707.783" x2="532.339" y2="748.797" xlink:href="#linear-gradient-11"/>
    <linearGradient id="linear-gradient-32" x1="517.373" y1="728.29" x2="547.305" y2="728.29" xlink:href="#linear-gradient-12"/>
    <linearGradient id="linear-gradient-33" x1="575.744" y1="707.082" x2="575.744" y2="749.441" xlink:href="#linear-gradient-11"/>
    <linearGradient id="linear-gradient-34" x1="552.122" y1="728.261" x2="599.365" y2="728.261" xlink:href="#linear-gradient-12"/>
    <linearGradient id="linear-gradient-35" x1="628.181" y1="707.783" x2="628.181" y2="748.797" xlink:href="#linear-gradient-11"/>
    <linearGradient id="linear-gradient-36" x1="602.936" y1="728.29" x2="653.446" y2="728.29" xlink:href="#linear-gradient-12"/>
    <linearGradient id="linear-gradient-37" x1="683.892" y1="707.082" x2="683.892" y2="749.441" xlink:href="#linear-gradient-11"/>
    <linearGradient id="linear-gradient-38" x1="660.271" y1="728.261" x2="707.514" y2="728.261" xlink:href="#linear-gradient-12"/>
  </defs>
  <path d="M762.564,595.743h-66.161l-32.338-32.359v-93.695c0-11.192-9.106-20.298-20.3-20.298h-54.236c2.022-3.987,3.045-8.44,3.045-13.283v-87.801c0-8.182-2.926-15.381-8.462-20.818-4.506-4.425-10.686-7.562-17.544-8.931v-34.895l28.554-.004v21.123c0,7.976,2.847,15.035,8.233,20.414,9.402,9.393,22.965,9.868,25.588,9.868h45.496c16.815,0,33.838-10.402,33.838-30.282v-111.134h-45.229l.011-12.901h-67.938v5.338h-62.74c-8.472,.003-16.667,2.673-22.767,7.374-2.252-1.724-4.807-3.177-7.614-4.33-7.041-2.889-13.803-3.036-15.087-3.036h-45.564c-8.309,0-16.382,2.59-22.43,7.152-5.695-4.393-13.091-6.887-20.55-6.887l-13.333-.015v-6.063h226.446V1.956h-68.17V31.384l-11.688,.003c-8.586,.044-16.857,2.807-22.974,7.628-6.218-4.714-14.439-7.492-22.335-7.492-4.785,0-136.175-.077-136.182-.077-8.425,.025-16.576,2.702-22.646,7.392-9.478-7.244-21.179-7.463-22.537-7.463H167.936c-20.269,0-33.885,15.764-33.885,30.487V216.812h83v37.517h9.058v50.503c0,4.688,.958,9.011,2.854,12.898-16.046,.902-31.573,11.337-31.573,30.494v87.883c0,4.844,1.021,9.296,3.041,13.283h-39.833c-16.087,0-29.176,13.088-29.176,29.176v84.817l-32.359,32.359H32.903l-30.946,25.789v61.381l30.946,25.789h38.286v38.39l20.952,20.952H713.215l20.953-20.952v-38.39h28.396l30.945-25.789v-61.381l-30.945-25.789Z"/>
  <path class="cls-1" d="M609.483,3.956V178.28h-226.446v10.061l15.331,.017c7.311,0,14.858,2.549,20.538,7.456,6.046-5.109,14.27-7.721,22.443-7.721h45.564c1.218,0,7.631,.138,14.328,2.886,3.197,1.312,6.002,3.016,8.377,5.056,6.085-5.255,14.452-7.948,22.763-7.951h64.74v-5.338h63.935l-.011,12.901h45.23v109.134c0,18.567-16.016,28.282-31.838,28.282h-45.495c-2.534,0-15.343-.46-24.176-9.283-5.001-4.996-7.646-11.564-7.646-18.999v-23.123l-32.555,.006v38.571c13.706,2.121,26.007,11.672,26.007,28.072v87.801c0,6.042-1.711,11.143-4.555,15.283h57.746c10.091,0,18.3,8.208,18.3,18.297v94.524l33.509,33.531h66.265l29.671,24.726v59.508l-29.671,24.726h-29.671v39.561l-19.781,19.781H92.968l-19.781-19.781v-39.561H33.627l-29.671-24.725v-59.508l29.671-24.726H99.892l33.531-33.531v-85.645c0-14.985,12.191-27.176,27.176-27.176h43.34c-2.84-4.14-4.548-9.24-4.548-15.283v-87.883c0-18.749,16.022-28.558,31.848-28.558h1.125c-2.668-4.06-4.254-9.015-4.254-14.834v-52.503h-9.058v-37.517h-83V61.863c0-13.757,12.817-28.487,31.885-28.487h137.016c2.374,0,13.829,.579,22.544,8.04,6.056-5.244,14.377-7.944,22.645-7.969,0,0,131.391,.077,136.177,.077,7.142,0,15.858,2.588,22.361,8.074,6.095-5.383,14.552-8.167,22.956-8.21l13.678-.004V3.956h64.17m3.956-3.956h-72.082V29.429l-9.723,.003c-8.49,.043-16.688,2.62-23.003,7.154-6.387-4.433-14.503-7.018-22.313-7.018-4.73,0-134.86-.076-136.174-.077-8.325,.025-16.401,2.519-22.66,6.923-9.756-6.783-21.158-6.995-22.53-6.995H167.936c-9.863,0-19.041,3.621-25.842,10.196-6.354,6.143-9.998,14.252-9.998,22.246V218.768h83v37.517h9.058v48.547c0,3.983,.653,7.725,1.946,11.185-7.22,.87-13.9,3.568-19.194,7.811-7.505,6.015-11.471,14.451-11.471,24.397v87.883c0,4.039,.67,7.828,1.997,11.327h-36.833c-17.166,0-31.132,13.966-31.132,31.132v84.007l-31.213,31.213H32.195l-1.1,.917-29.671,24.726-1.423,1.186v63.214l1.423,1.186,29.671,24.726,1.1,.917h37.037v37.244l1.159,1.159,19.781,19.781,1.159,1.159H714.026l1.159-1.159,19.781-19.781,1.159-1.159v-37.244h27.147l1.1-.917,29.671-24.726,1.423-1.186v-63.214l-1.423-1.186-29.671-24.726-1.1-.917h-66.058l-31.192-31.213v-92.886c0-12.271-9.984-22.254-22.256-22.254h-51.234c1.329-3.499,2-7.288,2-11.327v-87.801c0-8.719-3.129-16.4-9.048-22.213-4.426-4.348-10.358-7.517-16.959-9.107v-31.367l24.642-.004v19.166c0,8.506,3.045,16.043,8.806,21.798,9.948,9.937,24.213,10.441,26.972,10.441h45.495c9.151,0,17.785-2.854,24.312-8.037,7.511-5.965,11.482-14.333,11.482-24.202v-113.09h-45.227l.008-8.942,.003-3.959h-51.578V0h0Zm-226.446,182.237h206.173v1.892h-60.784c-8.361,.003-16.48,2.491-22.771,6.906-2.086-1.452-4.385-2.696-6.868-3.715-7.381-3.028-14.481-3.182-15.829-3.182h-45.564c-8.194,0-16.187,2.41-22.417,6.69-5.856-4.111-13.183-6.425-20.565-6.425l-11.374-.012v-2.153h0Z"/>
  <path class="cls-3" d="M418.337,530.812h-42.3c-.167,0-.315-.146-.315-.313v-60.809c0-2.512-2.044-4.555-4.557-4.555h-19.92c-2.512,0-4.554,2.044-4.554,4.555v82.797c0,2.512,2.042,4.555,4.554,4.555h67.092c2.513,0,4.557-2.044,4.557-4.555v-17.119c0-2.512-2.044-4.555-4.557-4.555Zm-192.68-65.678h-65.059c-7.407,0-13.433,6.026-13.433,13.433v65.043c0,7.407,6.026,13.433,13.433,13.433h65.059c7.407,0,13.433-6.026,13.433-13.433v-65.043c0-7.407-6.026-13.433-13.433-13.433Zm-15.601,62.85c0,1.555-1.272,2.828-2.828,2.828h-28.202c-1.556,0-2.828-1.273-2.828-2.828v-34.891c0-1.555,1.272-2.828,2.828-2.828h28.202c1.556,0,2.828,1.273,2.828,2.828v34.891Zm122.42-62.85h-18.462c-2.513,0-4.557,2.042-4.557,4.554v36.498l-38.553-38.703c-1.335-1.339-3.767-2.349-5.656-2.349h-12.055c-2.512,0-4.554,2.042-4.554,4.554v82.797c0,2.513,2.042,4.557,4.554,4.557h18.456c2.512,0,4.554-2.044,4.554-4.557v-36.664l38.546,38.866c1.33,1.342,3.761,2.354,5.654,2.354h12.071c2.513,0,4.557-2.044,4.557-4.557v-82.797c0-2.512-2.044-4.554-4.557-4.554Zm311.287,25.131c2.513,0,4.557-2.044,4.557-4.557v-16.02c0-2.512-2.044-4.554-4.557-4.554h-70.261c-2.512,0-4.555,2.042-4.555,4.554v82.797c0,2.513,2.044,4.557,4.555,4.557h70.261c2.513,0,4.557-2.044,4.557-4.557v-17.117c0-2.513-2.044-4.557-4.557-4.557h-45.783v-7.768h24.656c2.512,0,4.555-2.042,4.555-4.554v-16.015c0-2.513-2.044-4.557-4.555-4.557h-24.656v-7.653h45.783Zm-88.921-25.131h-18.464c-2.513,0-4.557,2.042-4.557,4.554v36.498l-38.551-38.7c-1.332-1.341-3.764-2.352-5.657-2.352h-12.052c-2.513,0-4.557,2.042-4.557,4.554v82.797c0,2.513,2.044,4.557,4.557,4.557h18.453c2.513,0,4.557-2.044,4.557-4.557v-36.664l38.546,38.869c1.333,1.341,3.764,2.352,5.654,2.352h12.071c2.512,0,4.554-2.044,4.554-4.557v-82.797c0-2.512-2.042-4.554-4.554-4.554Zm-98.022,0h-19.923c-2.513,0-4.557,2.044-4.557,4.555v82.797c0,2.512,2.044,4.555,4.557,4.555h19.923c2.513,0,4.557-2.044,4.557-4.555v-82.797c0-2.512-2.044-4.555-4.557-4.555Z"/>
  <g>
    <path class="cls-2" d="M531.705,164.537h64.035V17.7h-36.683v29.423l-27.351,.008s-18.233,.094-18.233,14.819v88.007c0,14.456,18.233,14.58,18.233,14.58Zm18.423-87.947h8.895v59.203h-8.895v-59.203ZM232.034,186.02V47.12h-64.098c-10.983,0-18.133,7.862-18.133,14.745l-.008,88.308c0,14.47,18.213,14.559,18.213,14.559h27.346v7.418h-45.559v29.231l64.155-.015c18.052,0,18.085-15.345,18.085-15.345Zm-36.691-50.523h-8.881v-58.916h8.881v58.916Zm263.827-58.834h8.835v87.875h36.407V62.091h-.014v-.011c0-11.234-12.425-14.812-18.081-14.812-12.207,0-21.196,2.545-27.147,7.4v-7.388h-36.399v117.257h36.399V76.662Zm233.363,162.025v-29.297h-45.242l.011-12.901h-36.437v12.901h-9.042v29.297h9.042v66.093c0,14.561,18.103,14.539,18.103,14.539h45.468s18.097,.058,18.097-14.539v-58.897h-36.2v44.14h-9.042v-51.336h45.242Zm-96.252-7.412l.135-29.448h-64.029s-18.213,.007-18.213,14.834v102.76h36.65v-51.498l45.592-.01v-29.446h-45.592v-7.183l45.457-.01Zm-91.245,73.54v-22.035h-36.468v7.415h-8.862v-14.836h45.322v-58.746c0-14.808-18.114-14.779-18.114-14.779h-45.565s-18.122,0-18.122,14.827v88.154c0,14.539,18.144,14.588,18.144,14.588l45.542,.018s18.122-.068,18.122-14.606Zm-45.33-73.54h8.862v14.609h-8.862v-14.609Zm-217.854,73.557c0,14.485,18.119,14.59,18.119,14.59h45.485s18.111-.08,18.111-14.595h-.011v-58.841h-36.208v44.238h-9.053v-51.638h45.261v-29.195h-45.751l.029-13.398h-36.487l.019,13.398h-8.571v29.195h9.057v66.247Zm35.936-184.17h8.804v65.965c0,14.56,18.335,14.573,18.335,14.573h27.922v118.221h36.444v-87.959h8.804v87.959h36.414v-102.539c0-14.782-16.16-14.782-16.16-14.782l-29.058-.033v-30.041l-46.273,.015v-58.794c.05-6.33-4.548-8.658-4.548-8.658,0,0,4.54-1.776,4.548-5.918V62.091c0-14.823-18.093-14.971-18.093-14.971h-63.564V187.909h36.425V120.663Zm-.006-44.022l8.814,.035v14.587h-8.814v-14.622Zm72.391,87.811h63.591V62.002c0-14.812-18.121-14.812-18.121-14.812h-45.463s-18.104,.055-18.104,14.812v21.734h36.421v-7.176h8.839l-.006,14.58h-27.158s-18.096,.015-18.096,14.571v44.164c0,14.537,18.096,14.576,18.096,14.576Zm18.328-43.946h8.83v14.783h-8.83v-14.783Zm-91.803,212.904h-45.46s-18.106-.03-18.106,14.815v21.727h36.414v-7.175h8.843v14.582h-27.154s-18.103-.028-18.103,14.576v44.173c0,14.524,18.103,14.557,18.103,14.557h63.577v-102.44c0-14.845-18.115-14.815-18.115-14.815Zm-18.308,88.105h-8.843v-14.786h8.843v14.786Zm90.919-.116h-8.807v-88.118h-36.386v102.6c0,14.689,18.078,14.783,18.078,14.783h45.42s18.067-.094,18.067-14.634c0-.616,.003-102.597,.003-102.597h-36.374v87.966Zm91.15-80.668l.008-13.314h-36.436v13.32h-9.05v29.298h9.05v66.092h.003c0,14.256,18.093,14.537,18.093,14.537h45.468s18.089-.075,18.089-14.537v-58.906h-36.183v44.14h-9.042v-51.325h45.225v-29.304h-45.225Zm118.218-7.207h-45.554s-18.138,.025-18.138,14.782v87.801c0,14.557,18.138,14.557,18.138,14.557h45.554s18.152-.033,18.152-14.557v-87.801c0-14.891-18.152-14.782-18.152-14.782Zm-18.335,88.021h-8.851v-58.682h8.851v58.682Z"/>
    <path class="cls-24" d="M418.337,530.812h-42.3c-.167,0-.315-.146-.315-.313v-60.809c0-2.512-2.044-4.555-4.557-4.555h-19.92c-2.512,0-4.554,2.044-4.554,4.555v82.797c0,2.512,2.042,4.555,4.554,4.555h67.092c2.513,0,4.557-2.044,4.557-4.555v-17.119c0-2.512-2.044-4.555-4.557-4.555Zm-192.68-65.678h-65.059c-7.407,0-13.433,6.026-13.433,13.433v65.043c0,7.407,6.026,13.433,13.433,13.433h65.059c7.407,0,13.433-6.026,13.433-13.433v-65.043c0-7.407-6.026-13.433-13.433-13.433Zm-15.601,62.85c0,1.555-1.272,2.828-2.828,2.828h-28.202c-1.556,0-2.828-1.273-2.828-2.828v-34.891c0-1.555,1.272-2.828,2.828-2.828h28.202c1.556,0,2.828,1.273,2.828,2.828v34.891Zm122.42-62.85h-18.462c-2.513,0-4.557,2.042-4.557,4.554v36.498l-38.553-38.703c-1.335-1.339-3.767-2.349-5.656-2.349h-12.055c-2.512,0-4.554,2.042-4.554,4.554v82.797c0,2.513,2.042,4.557,4.554,4.557h18.456c2.512,0,4.554-2.044,4.554-4.557v-36.664l38.546,38.866c1.33,1.342,3.761,2.354,5.654,2.354h12.071c2.513,0,4.557-2.044,4.557-4.557v-82.797c0-2.512-2.044-4.554-4.557-4.554Zm311.287,25.131c2.513,0,4.557-2.044,4.557-4.557v-16.02c0-2.512-2.044-4.554-4.557-4.554h-70.261c-2.512,0-4.555,2.042-4.555,4.554v82.797c0,2.513,2.044,4.557,4.555,4.557h70.261c2.513,0,4.557-2.044,4.557-4.557v-17.117c0-2.513-2.044-4.557-4.557-4.557h-45.783v-7.768h24.656c2.512,0,4.555-2.042,4.555-4.554v-16.015c0-2.513-2.044-4.557-4.555-4.557h-24.656v-7.653h45.783Zm-88.921-25.131h-18.464c-2.513,0-4.557,2.042-4.557,4.554v36.498l-38.551-38.7c-1.332-1.341-3.764-2.352-5.657-2.352h-12.052c-2.513,0-4.557,2.042-4.557,4.554v82.797c0,2.513,2.044,4.557,4.557,4.557h18.453c2.513,0,4.557-2.044,4.557-4.557v-36.664l38.546,38.869c1.333,1.341,3.764,2.352,5.654,2.352h12.071c2.512,0,4.554-2.044,4.554-4.557v-82.797c0-2.512-2.042-4.554-4.554-4.554Zm-98.022,0h-19.923c-2.513,0-4.557,2.044-4.557,4.555v82.797c0,2.512,2.044,4.555,4.557,4.555h19.923c2.513,0,4.557-2.044,4.557-4.555v-82.797c0-2.512-2.044-4.555-4.557-4.555Z"/>
  </g>
  <g>
    <path class="cls-22" d="M371.165,466.618c1.695,0,3.073,1.378,3.073,3.072v60.809c0,.991,.807,1.797,1.798,1.797h42.3c1.695,0,3.073,1.378,3.073,3.072v17.12c0,1.694-1.379,3.072-3.073,3.072h-67.092c-1.693,0-3.07-1.378-3.07-3.072v-82.797c0-1.694,1.377-3.072,3.07-3.072h19.92m0-1.484h-19.92c-2.512,0-4.554,2.044-4.554,4.555v82.797c0,2.512,2.042,4.555,4.554,4.555h67.092c2.513,0,4.557-2.044,4.557-4.555v-17.12c0-2.512-2.044-4.555-4.557-4.555h-42.3c-.167,0-.315-.146-.315-.313v-60.809c0-2.512-2.044-4.555-4.557-4.555h0Z"/>
    <path class="cls-23" d="M225.658,466.618c6.589,0,11.949,5.36,11.949,11.949v65.043c0,6.589-5.36,11.949-11.949,11.949h-65.059c-6.589,0-11.949-5.36-11.949-11.949v-65.043c0-6.589,5.36-11.949,11.949-11.949h65.059m-46.631,65.678h28.203c2.377,0,4.311-1.934,4.311-4.312v-34.891c0-2.377-1.934-4.312-4.311-4.312h-28.203c-2.377,0-4.311,1.934-4.311,4.312v34.891c0,2.377,1.934,4.312,4.311,4.312m46.631-67.161h-65.059c-7.407,0-13.432,6.026-13.432,13.433v65.043c0,7.407,6.026,13.432,13.432,13.432h65.059c7.407,0,13.432-6.026,13.432-13.432v-65.043c0-7.407-6.026-13.433-13.432-13.433h0Zm-46.631,65.678c-1.555,0-2.828-1.273-2.828-2.828v-34.891c0-1.555,1.273-2.828,2.828-2.828h28.203c1.555,0,2.828,1.273,2.828,2.828v34.891c0,1.555-1.272,2.828-2.828,2.828h-28.203Z"/>
    <path class="cls-27" d="M332.477,466.618c1.695,0,3.073,1.377,3.073,3.07v82.797c0,1.695-1.379,3.073-3.073,3.073h-12.071c-1.491,0-3.555-.859-4.601-1.915l-38.546-38.866-2.537-2.558v40.266c0,1.695-1.377,3.073-3.07,3.073h-18.456c-1.693,0-3.07-1.379-3.07-3.073v-82.797c0-1.693,1.377-3.07,3.07-3.07h12.055c1.488,0,3.554,.858,4.605,1.912l38.553,38.703,2.535,2.545v-40.09c0-1.693,1.379-3.07,3.073-3.07h18.462m0-1.484h-18.462c-2.513,0-4.557,2.042-4.557,4.554v36.498l-38.553-38.703c-1.335-1.339-3.767-2.349-5.656-2.349h-12.055c-2.512,0-4.554,2.042-4.554,4.554v82.797c0,2.513,2.042,4.557,4.554,4.557h18.456c2.512,0,4.554-2.044,4.554-4.557v-36.664l38.546,38.866c1.33,1.342,3.761,2.354,5.654,2.354h12.071c2.513,0,4.557-2.044,4.557-4.557v-82.797c0-2.512-2.044-4.554-4.557-4.554h0Z"/>
    <path class="cls-25" d="M643.765,466.618c1.695,0,3.073,1.377,3.073,3.07v16.02c0,1.695-1.379,3.073-3.073,3.073h-47.266v10.62h26.14c1.694,0,3.072,1.379,3.072,3.073v16.015c0,1.693-1.378,3.07-3.072,3.07h-26.14v10.736h47.266c1.695,0,3.073,1.379,3.073,3.073v17.117c0,1.695-1.379,3.073-3.073,3.073h-70.261c-1.694,0-3.072-1.379-3.072-3.073v-82.797c0-1.693,1.378-3.07,3.072-3.07h70.261m0-1.484h-70.261c-2.512,0-4.555,2.042-4.555,4.554v82.797c0,2.513,2.044,4.557,4.555,4.557h70.261c2.513,0,4.557-2.044,4.557-4.557v-17.117c0-2.513-2.044-4.557-4.557-4.557h-45.783v-7.768h24.656c2.512,0,4.555-2.042,4.555-4.554v-16.015c0-2.513-2.044-4.557-4.555-4.557h-24.656v-7.653h45.783c2.513,0,4.557-2.044,4.557-4.557v-16.02c0-2.512-2.044-4.554-4.557-4.554h0Z"/>
    <path class="cls-26" d="M554.843,466.618c1.693,0,3.07,1.377,3.07,3.07v82.797c0,1.695-1.377,3.073-3.07,3.073h-12.071c-1.489,0-3.554-.859-4.601-1.913l-38.546-38.869-2.537-2.558v40.266c0,1.695-1.379,3.073-3.073,3.073h-18.453c-1.695,0-3.073-1.379-3.073-3.073v-82.797c0-1.693,1.379-3.07,3.073-3.07h12.052c1.491,0,3.556,.858,4.606,1.915l38.552,38.701,2.535,2.544v-40.089c0-1.693,1.379-3.07,3.073-3.07h18.464m0-1.484h-18.464c-2.513,0-4.557,2.042-4.557,4.554v36.498l-38.552-38.701c-1.332-1.341-3.764-2.352-5.657-2.352h-12.052c-2.513,0-4.557,2.042-4.557,4.554v82.797c0,2.513,2.044,4.557,4.557,4.557h18.453c2.513,0,4.557-2.044,4.557-4.557v-36.664l38.546,38.869c1.333,1.341,3.764,2.352,5.655,2.352h12.071c2.512,0,4.554-2.044,4.554-4.557v-82.797c0-2.512-2.042-4.554-4.554-4.554h0Z"/>
    <path class="cls-20" d="M456.821,466.618c1.695,0,3.073,1.378,3.073,3.072v82.797c0,1.694-1.379,3.072-3.073,3.072h-19.923c-1.695,0-3.073-1.378-3.073-3.072v-82.797c0-1.694,1.379-3.072,3.073-3.072h19.923m0-1.484h-19.923c-2.513,0-4.557,2.044-4.557,4.555v82.797c0,2.512,2.044,4.555,4.557,4.555h19.923c2.513,0,4.557-2.044,4.557-4.555v-82.797c0-2.512-2.044-4.555-4.557-4.555h0Z"/>
  </g>
  <g>
    <path d="M675.749,467.115c1.302,0,1.953,.546,1.953,1.639,0,.909-.503,1.429-1.508,1.56l1.639,2.53h-.957l-1.56-2.464h-.944v2.464h-.892v-5.729h2.268Zm-.354,2.543c.542,0,.914-.072,1.115-.216,.201-.144,.301-.387,.301-.727,0-.585-.402-.878-1.206-.878h-1.232v1.822h1.022Z"/>
    <path d="M675.395,474.925c-2.729,0-4.949-2.22-4.949-4.949s2.22-4.949,4.949-4.949,4.949,2.22,4.949,4.949-2.22,4.949-4.949,4.949Zm0-9.124c-2.302,0-4.176,1.873-4.176,4.175s1.874,4.175,4.176,4.175,4.176-1.873,4.176-4.175-1.874-4.175-4.176-4.175Z"/>
  </g>
  <path class="cls-21" d="M111.096,660.612l3.598,1.272-.457,1.002c-.327,.715-.685,1.593-1.075,2.633-.416,1.111-.91,2.168-1.465,3.143-1.079,2.025-2.397,3.967-3.904,5.747-1.491,1.763-3.114,3.384-4.819,4.817-3.878,3.267-8.414,5.751-13.479,7.384-5.044,1.623-10.478,2.446-16.15,2.446-5.391,0-11.029-.802-16.757-2.383-5.731-1.583-11.019-3.911-15.715-6.919-4.723-3.021-8.652-6.779-11.679-11.169-3.07-4.451-4.626-9.57-4.626-15.214,0-4.477,1.184-8.957,3.518-13.318,2.314-4.323,5.556-8.256,9.633-11.687,4.069-3.423,8.944-6.222,14.484-8.317,5.556-2.1,11.661-3.163,18.145-3.163,2.568,0,4.979,.191,7.167,.565,2.164,.372,4.177,.855,5.981,1.432,1.798,.579,3.451,1.215,4.916,1.897l6.529,2.99c.469,.207,.904,.313,1.29,.313,1.325,0,2.923-.601,4.747-1.786,1.995-1.296,4.554-3.007,7.677-5.135l.256-.175h2.371l1.296,27.301h-2.645l-.303-.384c-1.727-2.192-3.336-4.183-4.829-5.976-1.457-1.749-3.019-3.358-4.638-4.786-2.677-2.413-5.391-4.404-8.075-5.926-2.712-1.532-5.333-2.751-7.785-3.622-2.454-.872-4.731-1.479-6.767-1.804-2.04-.325-3.785-.488-5.188-.488-2.261,0-4.642,.481-7.078,1.43-2.401,.936-4.62,2.574-6.598,4.867-2.005,2.324-3.689,5.489-5.007,9.406-1.324,3.943-1.995,8.979-1.995,14.968,0,5.148,.575,9.814,1.712,13.869,1.125,4.018,2.797,7.464,4.969,10.243,2.155,2.757,4.839,4.894,7.977,6.354,3.149,1.461,6.822,2.204,10.917,2.204,1.422,0,3.061-.116,4.871-.343,1.796-.225,3.687-.648,5.617-1.26,1.948-.616,3.969-1.438,6.007-2.44,2.017-.993,4.022-2.281,5.96-3.831,1.491-1.168,2.913-2.489,4.231-3.939,1.322-1.45,2.58-3.132,3.738-4.999,.573-.894,1.083-1.883,1.522-2.948,.473-1.148,.979-2.296,1.52-3.447l.388-.825Zm110.356,24.231h3.622v3.216h-35.863l-18.789-31.879h-13.804v22.517l9.777,6.145h3.116v3.216h-49.886v-3.216h3.116l9.777-6.145v-51.45l-9.777-6.145h-3.116v-3.216h59.771c4.104,0,8.282,.374,12.418,1.115,4.166,.746,7.963,1.899,11.287,3.425,3.382,1.552,6.17,3.59,8.288,6.054,2.186,2.543,3.293,5.572,3.293,9.003,0,2.73-.802,5.261-2.381,7.522-1.556,2.228-4.002,4.187-7.271,5.822-3.198,1.599-7.354,2.889-12.355,3.837-3.65,.691-7.888,1.15-12.646,1.371,.884,.205,1.798,.386,2.73,.542,1.583,.264,3.106,.461,4.522,.589,1.414,.13,2.56,.195,3.407,.195h7.973l12.359,21.068,10.434,6.415Zm-64.834-32.479h16.182c5.802,0,10.281-1.221,13.314-3.628,2.962-2.352,4.465-6.306,4.465-11.752,0-5.369-1.58-9.284-4.695-11.636-3.204-2.419-7.876-3.646-13.883-3.646h-15.382v30.661Zm75.141-31.26h3.116l9.777,6.145v51.45l-9.777,6.145h-3.116v3.216h49.886v-3.216h-3.116l-9.777-6.145v-51.45l9.777-6.145h3.116v-3.216h-49.886v3.216Zm121.466,41.823l-26.673-45.039h-36.96v3.216h3.762l10.029,5.2v43.054l-10.322,15.486h-3.468v3.216h31.398v-3.216h-3.466l-10.324-15.486v-38.167l33.492,56.87h2.872l33.273-60.444v51.083l-9.777,6.145h-3.116v3.216h49.886v-3.216h-3.116l-9.775-6.145v-51.45l9.775-6.145h3.116v-3.216h-35.985l-24.619,45.039Zm68.189-41.823h3.116l9.777,6.145v51.45l-9.777,6.145h-3.116v3.216h49.886v-3.216h-3.116l-9.777-6.145v-51.45l9.777-6.145h3.116v-3.216h-49.886v3.216Zm163.271,0v-3.216h-31.496v3.216h3.482l10.308,14.7v22.191l-51.109-40.107h-37.832v3.216h3.659l12.331,9.58v38.969l-10.318,15.191h-3.474v3.216h31.498v-3.216h-3.472l-10.318-15.191v-35.894l69.195,54.301h3.756v-52.255l10.308-14.7h3.482Zm88.989,63.739h2.551v3.216h-46.987v-3.216h2.927l6.458-5.672-7.726-11.998h-31.644l-.664,1.162,6.848,16.508h2.633v3.216h-28.899v-3.216h2.407l13.089-17.19,29.2-50.666h2.935l39.483,61.886,7.39,5.97Zm-45.082-21.485l-14.381-22.236-12.707,22.236h27.089Zm135.115-4.097l-.12,3.019-26.159,21.864h-18.313v-56.895l9.777-6.145h3.116v-3.216h-49.886v3.216h3.214l9.678,6.141v51.452l-9.873,6.147h-3.019v3.216h83.104l1.719-28.798h-3.238Z"/>
  <path class="cls-19" d="M111.096,660.612l3.598,1.272-.457,1.002c-.327,.715-.685,1.593-1.075,2.633-.416,1.111-.91,2.168-1.465,3.143-1.079,2.025-2.397,3.967-3.904,5.747-1.491,1.763-3.114,3.384-4.819,4.817-3.878,3.267-8.414,5.751-13.479,7.384-5.044,1.623-10.478,2.446-16.15,2.446-5.391,0-11.029-.802-16.757-2.383-5.731-1.583-11.019-3.911-15.715-6.919-4.723-3.021-8.652-6.779-11.679-11.169-3.07-4.451-4.626-9.57-4.626-15.214,0-4.477,1.184-8.957,3.518-13.318,2.314-4.323,5.556-8.256,9.633-11.687,4.069-3.423,8.944-6.222,14.484-8.317,5.556-2.1,11.661-3.163,18.145-3.163,2.568,0,4.979,.191,7.167,.565,2.164,.372,4.177,.855,5.981,1.432,1.798,.579,3.451,1.215,4.916,1.897l6.529,2.99c.469,.207,.904,.313,1.29,.313,1.325,0,2.923-.601,4.747-1.786,1.995-1.296,4.554-3.007,7.677-5.135l.256-.175h2.371l1.296,27.301h-2.645l-.303-.384c-1.727-2.192-3.336-4.183-4.829-5.976-1.457-1.749-3.019-3.358-4.638-4.786-2.677-2.413-5.391-4.404-8.075-5.926-2.712-1.532-5.333-2.751-7.785-3.622-2.454-.872-4.731-1.479-6.767-1.804-2.04-.325-3.785-.488-5.188-.488-2.261,0-4.642,.481-7.078,1.43-2.401,.936-4.62,2.574-6.598,4.867-2.005,2.324-3.689,5.489-5.007,9.406-1.324,3.943-1.995,8.979-1.995,14.968,0,5.148,.575,9.814,1.712,13.869,1.125,4.018,2.797,7.464,4.969,10.243,2.155,2.757,4.839,4.894,7.977,6.354,3.149,1.461,6.822,2.204,10.917,2.204,1.422,0,3.061-.116,4.871-.343,1.796-.225,3.687-.648,5.617-1.26,1.948-.616,3.969-1.438,6.007-2.44,2.017-.993,4.022-2.281,5.96-3.831,1.491-1.168,2.913-2.489,4.231-3.939,1.322-1.45,2.58-3.132,3.738-4.999,.573-.894,1.083-1.883,1.522-2.948,.473-1.148,.979-2.296,1.52-3.447l.388-.825Zm110.356,24.231h3.622v3.216h-35.863l-18.789-31.879h-13.804v22.517l9.777,6.145h3.116v3.216h-49.886v-3.216h3.116l9.777-6.145v-51.45l-9.777-6.145h-3.116v-3.216h59.771c4.104,0,8.282,.374,12.418,1.115,4.166,.746,7.963,1.899,11.287,3.425,3.382,1.552,6.17,3.59,8.288,6.054,2.186,2.543,3.293,5.572,3.293,9.003,0,2.73-.802,5.261-2.381,7.522-1.556,2.228-4.002,4.187-7.271,5.822-3.198,1.599-7.354,2.889-12.355,3.837-3.65,.691-7.888,1.15-12.646,1.371,.884,.205,1.798,.386,2.73,.542,1.583,.264,3.106,.461,4.522,.589,1.414,.13,2.56,.195,3.407,.195h7.973l12.359,21.068,10.434,6.415Zm-64.834-32.479h16.182c5.802,0,10.281-1.221,13.314-3.628,2.962-2.352,4.465-6.306,4.465-11.752,0-5.369-1.58-9.284-4.695-11.636-3.204-2.419-7.876-3.646-13.883-3.646h-15.382v30.661Zm75.141-31.26h3.116l9.777,6.145v51.45l-9.777,6.145h-3.116v3.216h49.886v-3.216h-3.116l-9.777-6.145v-51.45l9.777-6.145h3.116v-3.216h-49.886v3.216Zm121.466,41.823l-26.673-45.039h-36.96v3.216h3.762l10.029,5.2v43.054l-10.322,15.486h-3.468v3.216h31.398v-3.216h-3.466l-10.324-15.486v-38.167l33.492,56.87h2.872l33.273-60.444v51.083l-9.777,6.145h-3.116v3.216h49.886v-3.216h-3.116l-9.775-6.145v-51.45l9.775-6.145h3.116v-3.216h-35.985l-24.619,45.039Zm68.189-41.823h3.116l9.777,6.145v51.45l-9.777,6.145h-3.116v3.216h49.886v-3.216h-3.116l-9.777-6.145v-51.45l9.777-6.145h3.116v-3.216h-49.886v3.216Zm163.271,0v-3.216h-31.496v3.216h3.482l10.308,14.7v22.191l-51.109-40.107h-37.832v3.216h3.659l12.331,9.58v38.969l-10.318,15.191h-3.474v3.216h31.498v-3.216h-3.472l-10.318-15.191v-35.894l69.195,54.301h3.756v-52.255l10.308-14.7h3.482Zm88.989,63.739h2.551v3.216h-46.987v-3.216h2.927l6.458-5.672-7.726-11.998h-31.644l-.664,1.162,6.848,16.508h2.633v3.216h-28.899v-3.216h2.407l13.089-17.19,29.2-50.666h2.935l39.483,61.886,7.39,5.97Zm-45.082-21.485l-14.381-22.236-12.707,22.236h27.089Zm135.115-4.097l-.12,3.019-26.159,21.864h-18.313v-56.895l9.777-6.145h3.116v-3.216h-49.886v3.216h3.214l9.678,6.141v51.452l-9.873,6.147h-3.019v3.216h83.104l1.719-28.798h-3.238Z"/>
  <g>
    <polygon class="cls-18" points="499.795 596.258 665.254 596.258 667.369 598.373 499.795 598.373 499.795 596.258"/>
    <polygon class="cls-31" points="499.794 586.068 655.095 586.068 657.18 588.184 499.794 588.184 499.794 586.068"/>
    <polygon class="cls-32" points="499.794 575.879 644.876 575.879 646.991 577.995 499.794 577.995 499.794 575.879"/>
  </g>
  <g>
    <polygon class="cls-29" points="296.993 596.258 131.533 596.258 129.418 598.373 296.993 598.373 296.993 596.258"/>
    <polygon class="cls-28" points="296.993 586.068 141.692 586.068 139.607 588.184 296.993 588.184 296.993 586.068"/>
    <polygon class="cls-30" points="296.993 575.879 151.911 575.879 149.796 577.995 296.993 577.995 296.993 575.879"/>
  </g>
  <g>
    <polygon class="cls-11" points="324.461 568.936 366.762 568.936 366.762 585.192 364.881 585.192 364.881 583.601 354.394 571.064 351.698 571.064 351.698 599.005 356.454 601.922 358.393 601.922 358.393 603.803 332.634 603.803 332.634 601.922 334.574 601.922 339.526 598.904 339.526 571.064 336.828 571.064 326.343 583.503 326.343 585.094 324.461 585.094 324.461 568.936"/>
    <polygon class="cls-10" points="399.389 570.817 401.029 570.817 405.739 573.777 405.739 585.033 390.439 585.033 390.439 573.777 395.149 570.817 396.789 570.817 396.789 568.936 371.916 568.936 371.916 570.817 373.556 570.817 378.268 573.777 378.268 598.962 373.556 601.922 371.916 601.922 371.916 603.803 396.789 603.803 396.789 601.922 395.151 601.922 390.439 598.914 390.439 587.212 405.739 587.212 405.739 598.962 401.029 601.922 399.389 601.922 399.389 603.803 424.262 603.803 424.262 601.922 422.618 601.922 417.91 599.005 417.91 573.777 422.62 570.817 424.262 570.817 424.262 568.936 399.389 568.936 399.389 570.817"/>
    <polygon class="cls-6" points="469.114 588.825 469.053 590.295 458.768 601.627 447.341 601.627 447.341 586.768 451.886 586.768 457.964 591.602 457.964 594.547 459.845 594.547 459.845 575.976 457.964 575.976 457.964 578.278 451.838 584.592 447.341 584.592 447.341 571.112 458.728 571.112 468.549 581.263 468.549 582.534 470.43 582.534 470.43 568.936 428.819 568.936 428.819 570.817 430.458 570.817 435.17 573.777 435.17 598.962 430.458 601.922 428.819 601.922 428.819 603.803 470.251 603.803 471.005 588.825 469.114 588.825"/>
  </g>
  <g>
    <polygon class="cls-8" points="142.145 731.41 143.978 731.41 143.104 748.797 94.281 748.797 94.281 746.966 96.086 746.966 101.826 743.361 101.826 713.221 96.086 709.613 94.281 709.613 94.281 707.783 143.307 707.783 143.307 723.533 141.475 723.533 141.475 722.146 129.695 709.966 115.879 709.966 115.879 726.38 121.508 726.38 128.902 718.763 128.902 716.145 130.733 716.145 130.733 737.801 128.902 737.801 128.902 734.41 121.55 728.563 115.879 728.563 115.879 746.616 129.742 746.616 142.071 733.031 142.145 731.41"/>
    <polygon class="cls-7" points="192.663 709.613 194.689 709.613 200.733 718.234 200.733 731.282 170.944 707.904 170.791 707.783 148.685 707.783 148.685 709.613 150.81 709.613 158.042 715.233 158.042 738.057 151.992 746.966 149.972 746.966 149.972 748.797 168.353 748.797 168.353 746.966 166.333 746.966 160.283 738.057 160.283 716.995 200.81 748.797 202.974 748.797 202.974 718.234 209.018 709.613 211.044 709.613 211.044 707.783 192.663 707.783 192.663 709.613"/>
    <polygon class="cls-9" points="217.764 726.574 219.594 726.574 219.594 724.812 232.157 709.907 235.658 709.907 235.658 743.295 229.631 746.966 227.471 746.966 227.471 748.797 257.666 748.797 257.666 746.966 255.507 746.966 249.712 743.414 249.712 709.907 253.211 709.907 265.777 724.927 265.777 726.691 267.607 726.691 267.607 707.783 217.764 707.783 217.764 726.574"/>
    <polygon class="cls-5" points="322.255 733.031 309.926 746.616 296.063 746.616 296.063 728.563 301.734 728.563 309.086 734.41 309.086 737.801 310.918 737.801 310.918 716.145 309.086 716.145 309.086 718.763 301.692 726.38 296.063 726.38 296.063 709.966 309.879 709.966 321.66 722.146 321.66 723.533 323.491 723.533 323.491 707.783 274.466 707.783 274.466 709.613 276.271 709.613 282.01 713.221 282.01 743.361 276.271 746.966 274.466 746.966 274.466 748.797 323.288 748.797 324.162 731.41 322.329 731.41 322.255 733.031"/>
    <path class="cls-12" d="M389.398,746.967l-6.118-3.762-7.228-12.321h-4.651c-.504,0-1.174-.037-1.996-.114-.839-.075-1.73-.192-2.65-.346-.605-.099-1.201-.218-1.777-.357,2.86-.126,5.402-.397,7.581-.809,2.926-.556,5.358-1.31,7.224-2.245,1.909-.953,3.337-2.097,4.245-3.396,.921-1.321,1.388-2.796,1.388-4.389,0-2.002-.646-3.769-1.921-5.253-1.238-1.44-2.867-2.629-4.841-3.537-1.938-.889-4.158-1.563-6.599-2-2.427-.432-4.87-.653-7.263-.653h-34.951v1.83h1.805l5.739,3.608v30.139l-5.739,3.606h-1.805v1.83h29.142v-1.83h-1.805l-5.739-3.606v-13.218h8.119l10.994,18.654h20.947v-1.83h-2.101Zm-37.959-19.007v-17.993h9.026c3.524,0,6.263,.719,8.141,2.137,1.829,1.38,2.758,3.678,2.758,6.829,0,3.196-.882,5.515-2.623,6.898-1.78,1.411-4.406,2.128-7.807,2.128h-9.495Z"/>
    <path class="cls-4" d="M445.908,714.282c-1.216-1.52-2.804-2.781-4.718-3.749-1.89-.953-4.036-1.658-6.38-2.097-2.332-.432-4.688-.653-7.004-.653h-31.677v1.83h1.805l5.739,3.608v30.139l-5.739,3.606h-1.805v1.83h29.025v-1.83h-1.801l-5.627-3.661v-11.937h8.442c.928,0,2.1-.04,3.481-.117,1.406-.077,2.919-.238,4.498-.474,1.584-.238,3.187-.607,4.763-1.1,1.599-.499,3.071-1.169,4.372-1.991,1.331-.84,2.421-1.91,3.244-3.182,.836-1.297,1.259-2.856,1.259-4.635,0-2.15-.632-4.029-1.878-5.586Zm-14.729,12.585c-1.539,1.539-4.15,2.32-7.759,2.32h-5.693v-19.221h6.863c2.801,0,4.974,.697,6.46,2.073,.822,.752,1.438,1.733,1.834,2.92,.408,1.226,.615,2.622,.615,4.15,0,3.608-.781,6.219-2.32,7.758Z"/>
    <path class="cls-13" d="M510.035,746.967l-6.115-3.762-7.227-12.321h-4.653c-.503,0-1.173-.037-1.996-.114-.836-.075-1.727-.192-2.648-.346-.607-.099-1.202-.218-1.778-.357,2.86-.126,5.401-.397,7.582-.809,2.924-.556,5.354-1.31,7.22-2.245,1.91-.953,3.339-2.097,4.247-3.396,.922-1.321,1.389-2.796,1.389-4.389,0-2-.646-3.769-1.921-5.253-1.239-1.44-2.869-2.629-4.843-3.537-1.936-.889-4.155-1.561-6.598-2-2.426-.432-4.869-.653-7.262-.653h-34.952v1.83h1.805l5.738,3.608v30.139l-5.738,3.606h-1.805v1.83h29.142v-1.83h-1.804l-5.74-3.606v-13.218h8.12l10.83,18.376,.165,.278h20.946v-1.83h-2.104Zm-37.957-19.007v-17.993h9.026c3.524,0,6.263,.719,8.14,2.137,1.831,1.38,2.759,3.678,2.759,6.829,0,3.196-.882,5.515-2.622,6.896-1.78,1.414-4.408,2.13-7.809,2.13h-9.494Z"/>
    <polygon class="cls-14" points="517.769 709.613 519.573 709.613 525.311 713.221 525.311 743.361 519.573 746.966 517.769 746.966 517.769 748.797 546.91 748.797 546.91 746.966 545.106 746.966 539.365 743.361 539.365 713.221 545.106 709.613 546.91 709.613 546.91 707.783 517.769 707.783 517.769 709.613"/>
    <path class="cls-17" d="M595.509,726.848c-1.226-1.288-2.907-2.441-4.993-3.427-2.064-.973-4.675-1.687-7.763-2.121l-14.742-2.108c-1.7-.225-3.057-.556-4.031-.981-.973-.421-1.716-.867-2.21-1.328-.47-.434-.772-.864-.895-1.275-.139-.445-.21-.823-.21-1.118,0-.126,.031-.443,.24-1.16,.146-.505,.518-1.052,1.107-1.623,.602-.582,1.519-1.111,2.732-1.575,1.213-.459,2.918-.692,5.063-.692,1.817,0,3.769,.251,5.802,.745,2.04,.496,4.119,1.239,6.179,2.214,2.058,.968,4.102,2.19,6.078,3.628,1.963,1.429,3.769,3.12,5.368,5.026l.17,.201h1.53v-14.171h-1.46l-.152,.117c-1.857,1.422-3.33,2.485-4.499,3.251-1.087,.715-1.996,1.076-2.701,1.076-.359,0-.823-.106-1.381-.315-.6-.225-1.162-.485-1.7-.794-1.727-.862-3.714-1.643-5.906-2.316-2.205-.675-4.631-1.019-7.211-1.019-2.393,0-4.669,.364-6.764,1.083-2.102,.721-3.956,1.707-5.515,2.924-1.572,1.233-2.832,2.697-3.742,4.358-.922,1.676-1.387,3.478-1.387,5.359,0,1.153,.247,2.417,.734,3.76,.498,1.363,1.392,2.675,2.655,3.897,1.255,1.215,2.942,2.305,5.015,3.237,2.075,.937,4.748,1.592,7.946,1.947l10.881,1.231c2.825,.304,5.035,.737,6.567,1.283,1.504,.54,2.615,1.116,3.299,1.707,.642,.558,1.021,1.114,1.131,1.65,.128,.62,.194,1.153,.194,1.581,0,.686-.176,1.387-.525,2.086-.351,.701-.898,1.345-1.627,1.912-.739,.578-1.711,1.059-2.889,1.429-2.569,.801-6.508,.767-10.713-.331-2.274-.591-4.611-1.464-6.944-2.596-2.335-1.127-4.635-2.534-6.839-4.181-2.194-1.641-4.243-3.524-6.087-5.597l-.168-.19h-1.519v15.81h1.442l.146-.101c1.411-.979,2.547-1.793,3.409-2.439,.849-.64,1.557-1.151,2.115-1.537,.516-.355,.961-.598,1.319-.719,.668-.218,1.336-.293,2.569,.117,.635,.212,1.553,.589,2.712,1.114,2.355,1.14,4.651,2.029,6.819,2.638,2.183,.615,4.653,.928,7.344,.928,3.372,0,6.219-.476,8.466-1.418,2.247-.944,4.062-2.141,5.396-3.555,1.339-1.42,2.287-2.977,2.818-4.631,.52-1.63,.785-3.154,.785-4.53s-.267-2.825-.792-4.285c-.531-1.469-1.429-2.873-2.668-4.175Z"/>
    <polygon class="cls-15" points="651.12 733.031 638.795 746.616 624.93 746.616 624.93 728.563 630.602 728.563 637.952 734.41 637.952 737.801 639.782 737.801 639.782 716.145 637.952 716.145 637.952 718.763 630.56 726.38 624.93 726.38 624.93 709.966 638.744 709.966 650.527 722.146 650.527 723.533 652.357 723.533 652.357 707.783 603.332 707.783 603.332 709.613 605.135 709.613 610.876 713.221 610.876 743.361 605.135 746.966 603.332 746.966 603.332 748.797 652.152 748.797 653.03 731.41 651.193 731.41 651.12 733.031"/>
    <path class="cls-16" d="M706.327,731.022c-.531-1.469-1.429-2.873-2.668-4.175-1.226-1.288-2.907-2.441-4.993-3.427-2.064-.973-4.675-1.687-7.763-2.121l-14.742-2.108c-1.7-.225-3.057-.556-4.031-.981-.973-.421-1.716-.867-2.21-1.328-.47-.434-.772-.864-.895-1.275-.139-.445-.21-.823-.21-1.118,0-.126,.031-.443,.24-1.16,.146-.505,.518-1.052,1.107-1.623,.602-.582,1.519-1.111,2.732-1.575,1.213-.459,2.918-.692,5.063-.692,1.817,0,3.769,.251,5.802,.745,2.04,.496,4.119,1.239,6.179,2.214,2.058,.968,4.102,2.19,6.078,3.628,1.963,1.429,3.769,3.12,5.368,5.026l.17,.201h1.53v-14.171h-1.46l-.152,.117c-1.857,1.422-3.33,2.485-4.499,3.251-1.087,.715-1.996,1.076-2.701,1.076-.359,0-.823-.106-1.381-.315-.6-.225-1.162-.485-1.7-.794-1.727-.862-3.714-1.643-5.906-2.316-2.205-.675-4.631-1.019-7.211-1.019-2.393,0-4.669,.364-6.764,1.083-2.102,.721-3.956,1.707-5.515,2.924-1.572,1.233-2.832,2.697-3.742,4.358-.922,1.676-1.387,3.478-1.387,5.359,0,1.153,.247,2.417,.734,3.76,.498,1.363,1.392,2.675,2.655,3.897,1.255,1.215,2.942,2.305,5.015,3.237,2.075,.937,4.748,1.592,7.946,1.947l10.881,1.231c2.825,.304,5.035,.737,6.567,1.283,1.504,.54,2.615,1.116,3.299,1.707,.642,.558,1.021,1.114,1.131,1.65,.128,.62,.194,1.153,.194,1.581,0,.686-.176,1.387-.525,2.086-.351,.701-.898,1.345-1.627,1.912-.739,.578-1.711,1.059-2.889,1.429-2.569,.801-6.51,.767-10.713-.331-2.274-.591-4.611-1.464-6.944-2.596-2.335-1.127-4.635-2.534-6.839-4.181-2.194-1.641-4.243-3.524-6.087-5.597l-.168-.19h-1.519v15.81h1.442l.146-.101c1.411-.979,2.547-1.793,3.409-2.439,.849-.64,1.557-1.151,2.115-1.537,.516-.355,.961-.598,1.319-.719,.67-.218,1.334-.293,2.569,.117,.635,.212,1.553,.589,2.712,1.114,2.355,1.14,4.651,2.029,6.819,2.638,2.183,.615,4.653,.928,7.344,.928,3.372,0,6.219-.476,8.466-1.418,2.247-.944,4.062-2.141,5.396-3.555,1.339-1.42,2.287-2.977,2.818-4.631,.52-1.63,.785-3.154,.785-4.53s-.267-2.825-.792-4.285Z"/>
  </g>
</svg>