<svg xmlns="http://www.w3.org/2000/svg" width="20" height="20" viewBox="0 0 20 20" fill="none">
  <path fill-rule="evenodd" clip-rule="evenodd" d="M3.23223 1.56622C3.70107 1.09738 4.33696 0.833984 5 0.833984H11.6667C11.8877 0.833984 12.0996 0.921782 12.2559 1.07806L17.2559 6.07806C17.4122 6.23434 17.5 6.4463 17.5 6.66732V16.6673C17.5 17.3304 17.2366 17.9662 16.7678 18.4351C16.2989 18.9039 15.663 19.1673 15 19.1673H5C4.33696 19.1673 3.70107 18.9039 3.23223 18.4351C2.76339 17.9662 2.5 17.3304 2.5 16.6673V3.33398C2.5 2.67094 2.76339 2.03506 3.23223 1.56622ZM5 2.50065C4.77899 2.50065 4.56702 2.58845 4.41074 2.74473C4.25446 2.90101 4.16667 3.11297 4.16667 3.33398V16.6673C4.16667 16.8883 4.25446 17.1003 4.41074 17.2566C4.56702 17.4129 4.77899 17.5007 5 17.5007H15C15.221 17.5007 15.433 17.4129 15.5893 17.2566C15.7455 17.1003 15.8333 16.8883 15.8333 16.6673V7.0125L11.3215 2.50065H5Z" fill="white"/>
  <path fill-rule="evenodd" clip-rule="evenodd" d="M11.6668 0.833984C12.1271 0.833984 12.5002 1.20708 12.5002 1.66732V5.83398H16.6668C17.1271 5.83398 17.5002 6.20708 17.5002 6.66732C17.5002 7.12755 17.1271 7.50065 16.6668 7.50065H11.6668C11.2066 7.50065 10.8335 7.12755 10.8335 6.66732V1.66732C10.8335 1.20708 11.2066 0.833984 11.6668 0.833984Z" fill="white"/>
  <path fill-rule="evenodd" clip-rule="evenodd" d="M5.8335 10.8333C5.8335 10.3731 6.20659 10 6.66683 10H13.3335C13.7937 10 14.1668 10.3731 14.1668 10.8333C14.1668 11.2936 13.7937 11.6667 13.3335 11.6667H6.66683C6.20659 11.6667 5.8335 11.2936 5.8335 10.8333Z" fill="white"/>
  <path fill-rule="evenodd" clip-rule="evenodd" d="M5.8335 14.1673C5.8335 13.7071 6.20659 13.334 6.66683 13.334H13.3335C13.7937 13.334 14.1668 13.7071 14.1668 14.1673C14.1668 14.6276 13.7937 15.0007 13.3335 15.0007H6.66683C6.20659 15.0007 5.8335 14.6276 5.8335 14.1673Z" fill="white"/>
  <path fill-rule="evenodd" clip-rule="evenodd" d="M5.8335 7.49935C5.8335 7.03911 6.20659 6.66602 6.66683 6.66602H8.3335C8.79373 6.66602 9.16683 7.03911 9.16683 7.49935C9.16683 7.95959 8.79373 8.33268 8.3335 8.33268H6.66683C6.20659 8.33268 5.8335 7.95959 5.8335 7.49935Z" fill="white"/>
</svg>