<svg width="28" height="30" viewBox="0 0 28 30" fill="none" xmlns="http://www.w3.org/2000/svg">
<path fill-rule="evenodd" clip-rule="evenodd" d="M6.9511 8.93947H10.7404C12.4583 8.93947 13.9451 8.41612 13.9451 6.50158C13.9451 4.98253 12.6396 4.65991 11.3844 4.65991H7.85884L6.9511 8.93947ZM21.9571 19.1727H28L22.5466 22.9472L23.4285 28.8951L18.7035 25.3054L12.3625 29.0309L15.3273 22.7268C15.3273 22.7268 11.8788 19.1309 11.8815 19.1309C11.6497 18.8249 11.5722 18.0365 11.5722 17.6973C11.5722 17.2686 11.5996 16.8342 11.6287 16.3716C11.662 15.8445 11.6975 15.2808 11.6975 14.6467C11.6975 13.0817 11.0061 12.2633 9.31592 12.2633H6.14697L4.76715 18.7231H0L3.79108 0.969727H12.7622C16.096 0.969727 18.6403 1.78987 18.6403 5.57169C18.6403 8.23372 17.3302 10.1246 14.4399 10.5217V10.5727C15.799 10.8957 16.3081 11.815 16.3081 13.5282C16.3081 14.2121 16.2873 14.8123 16.2677 15.3769C16.2504 15.8781 16.234 16.3513 16.234 16.8299C16.234 17.4434 16.3934 18.4462 16.7949 19.1309H17.4572L20.9987 13.2151L21.9571 19.1727ZM21.2069 20.0403H25.2173L21.6017 22.542L22.2477 26.9037L18.7688 24.2583L14.3523 26.8514L16.3741 22.5584L13.9157 19.9981H17.9576L20.5144 15.727L21.2069 20.0403Z" fill="white"/>
</svg>
